%TF.GenerationSoftware,KiCad,Pcbnew,9.0.3*%
%TF.CreationDate,2025-12-18T09:50:52-08:00*%
%TF.ProjectId,stm_temp_v0,73746d5f-7465-46d7-905f-76302e6b6963,rev?*%
%TF.SameCoordinates,Original*%
%TF.FileFunction,Legend,Top*%
%TF.FilePolarity,Positive*%
%FSLAX46Y46*%
G04 Gerber Fmt 4.6, Leading zero omitted, Abs format (unit mm)*
G04 Created by KiCad (PCBNEW 9.0.3) date 2025-12-18 09:50:52*
%MOMM*%
%LPD*%
G01*
G04 APERTURE LIST*
%ADD10C,0.125000*%
%ADD11C,0.150000*%
%ADD12C,0.254000*%
%ADD13C,0.120000*%
%ADD14C,0.127000*%
%ADD15C,0.240000*%
%ADD16C,0.200000*%
%ADD17C,0.052000*%
G04 APERTURE END LIST*
D10*
G36*
X153283297Y-118213970D02*
G01*
X153311293Y-118216577D01*
X153345761Y-118224820D01*
X153374637Y-118236196D01*
X153400218Y-118251574D01*
X153420799Y-118270133D01*
X153437082Y-118292149D01*
X153448753Y-118317236D01*
X153455697Y-118344643D01*
X153458114Y-118375750D01*
X153455924Y-118405835D01*
X153449736Y-118431444D01*
X153439431Y-118454741D01*
X153425587Y-118474913D01*
X153408380Y-118492435D01*
X153387802Y-118507654D01*
X153364804Y-118520282D01*
X153338563Y-118531076D01*
X153366303Y-118548045D01*
X153389469Y-118572622D01*
X153409772Y-118605577D01*
X153428920Y-118647550D01*
X153484400Y-118783599D01*
X153492991Y-118807706D01*
X153494915Y-118818477D01*
X153493462Y-118825145D01*
X153487264Y-118829932D01*
X153473843Y-118832753D01*
X153450933Y-118833736D01*
X153430587Y-118832753D01*
X153417936Y-118829675D01*
X153410498Y-118823734D01*
X153405968Y-118814160D01*
X153349077Y-118668536D01*
X153328262Y-118622973D01*
X153316349Y-118603409D01*
X153302702Y-118587155D01*
X153286617Y-118573828D01*
X153267781Y-118563774D01*
X153246465Y-118557633D01*
X153219482Y-118555397D01*
X153164515Y-118555397D01*
X153164515Y-118818477D01*
X153162336Y-118825145D01*
X153155625Y-118829675D01*
X153143187Y-118832539D01*
X153123354Y-118833736D01*
X153103522Y-118832539D01*
X153090870Y-118829675D01*
X153084159Y-118825145D01*
X153082236Y-118818434D01*
X153082236Y-118489061D01*
X153164515Y-118489061D01*
X153244829Y-118489061D01*
X153276104Y-118486956D01*
X153300992Y-118481196D01*
X153323101Y-118471511D01*
X153340443Y-118459184D01*
X153354203Y-118443725D01*
X153363653Y-118425930D01*
X153369189Y-118406177D01*
X153371090Y-118384299D01*
X153366814Y-118349986D01*
X153354805Y-118322835D01*
X153342225Y-118308260D01*
X153324479Y-118296186D01*
X153300308Y-118286718D01*
X153273252Y-118281930D01*
X153233844Y-118280477D01*
X153164515Y-118280477D01*
X153164515Y-118489061D01*
X153082236Y-118489061D01*
X153082236Y-118246198D01*
X153084970Y-118229640D01*
X153092024Y-118220167D01*
X153102292Y-118214569D01*
X153112840Y-118212773D01*
X153244358Y-118212773D01*
X153283297Y-118213970D01*
G37*
G36*
X153798900Y-118590018D02*
G01*
X153797577Y-118607205D01*
X153794583Y-118615920D01*
X153789288Y-118621321D01*
X153782144Y-118623101D01*
X153582281Y-118623101D01*
X153574722Y-118621240D01*
X153569330Y-118615664D01*
X153566349Y-118606790D01*
X153565055Y-118590018D01*
X153566357Y-118573282D01*
X153569330Y-118564629D01*
X153574699Y-118559258D01*
X153582281Y-118557449D01*
X153782144Y-118557449D01*
X153789069Y-118558902D01*
X153794326Y-118564416D01*
X153797703Y-118574716D01*
X153798900Y-118590018D01*
G37*
G36*
X163329749Y-118540659D02*
G01*
X163329749Y-118768434D01*
X163327826Y-118775145D01*
X163321115Y-118779675D01*
X163308207Y-118782539D01*
X163288631Y-118783736D01*
X163268756Y-118782539D01*
X163255847Y-118779675D01*
X163248923Y-118775145D01*
X163247000Y-118768434D01*
X163247000Y-118540659D01*
X163072012Y-118192052D01*
X163065558Y-118174869D01*
X163067909Y-118165295D01*
X163080817Y-118161021D01*
X163105949Y-118160037D01*
X163129159Y-118161021D01*
X163143264Y-118163628D01*
X163151128Y-118168415D01*
X163156172Y-118176280D01*
X163241742Y-118353917D01*
X163265635Y-118406961D01*
X163290041Y-118462825D01*
X163291024Y-118462825D01*
X163313721Y-118408628D01*
X163337400Y-118355371D01*
X163423441Y-118176750D01*
X163427501Y-118168629D01*
X163434682Y-118163628D01*
X163447377Y-118161021D01*
X163467936Y-118160037D01*
X163494949Y-118161234D01*
X163508541Y-118165765D01*
X163511085Y-118169679D01*
X163511191Y-118175339D01*
X163504737Y-118192052D01*
X163329749Y-118540659D01*
G37*
G36*
X163981615Y-118505824D02*
G01*
X163980162Y-118521383D01*
X163976358Y-118532154D01*
X163970630Y-118538351D01*
X163963449Y-118540275D01*
X163806627Y-118540275D01*
X163806627Y-118713767D01*
X163804704Y-118720221D01*
X163798720Y-118724751D01*
X163787949Y-118727829D01*
X163771236Y-118729026D01*
X163754695Y-118727829D01*
X163743710Y-118724751D01*
X163737726Y-118720221D01*
X163735846Y-118713767D01*
X163735846Y-118540275D01*
X163578981Y-118540275D01*
X163571586Y-118538351D01*
X163566072Y-118532154D01*
X163562226Y-118521383D01*
X163560815Y-118505824D01*
X163562226Y-118490779D01*
X163566072Y-118480051D01*
X163571586Y-118473810D01*
X163578510Y-118471887D01*
X163735846Y-118471887D01*
X163735846Y-118297198D01*
X163737726Y-118290231D01*
X163743710Y-118284974D01*
X163754695Y-118281597D01*
X163771236Y-118280400D01*
X163787949Y-118281597D01*
X163798720Y-118284974D01*
X163804704Y-118290231D01*
X163806627Y-118297198D01*
X163806627Y-118471887D01*
X163963920Y-118471887D01*
X163970844Y-118473810D01*
X163976571Y-118480051D01*
X163980418Y-118490779D01*
X163981615Y-118505824D01*
G37*
G36*
X133429749Y-118640658D02*
G01*
X133429749Y-118868433D01*
X133427826Y-118875144D01*
X133421115Y-118879674D01*
X133408207Y-118882538D01*
X133388631Y-118883735D01*
X133368756Y-118882538D01*
X133355847Y-118879674D01*
X133348923Y-118875144D01*
X133347000Y-118868433D01*
X133347000Y-118640658D01*
X133172012Y-118292051D01*
X133165558Y-118274868D01*
X133167909Y-118265294D01*
X133180817Y-118261020D01*
X133205949Y-118260036D01*
X133229159Y-118261020D01*
X133243264Y-118263627D01*
X133251128Y-118268414D01*
X133256172Y-118276279D01*
X133341742Y-118453916D01*
X133365635Y-118506960D01*
X133390041Y-118562824D01*
X133391024Y-118562824D01*
X133413721Y-118508627D01*
X133437400Y-118455370D01*
X133523441Y-118276749D01*
X133527501Y-118268628D01*
X133534682Y-118263627D01*
X133547377Y-118261020D01*
X133567936Y-118260036D01*
X133594949Y-118261233D01*
X133608541Y-118265764D01*
X133611085Y-118269678D01*
X133611191Y-118275338D01*
X133604737Y-118292051D01*
X133429749Y-118640658D01*
G37*
G36*
X134081615Y-118605823D02*
G01*
X134080162Y-118621382D01*
X134076358Y-118632153D01*
X134070630Y-118638350D01*
X134063449Y-118640274D01*
X133906627Y-118640274D01*
X133906627Y-118813766D01*
X133904704Y-118820220D01*
X133898720Y-118824750D01*
X133887949Y-118827828D01*
X133871236Y-118829025D01*
X133854695Y-118827828D01*
X133843710Y-118824750D01*
X133837726Y-118820220D01*
X133835846Y-118813766D01*
X133835846Y-118640274D01*
X133678981Y-118640274D01*
X133671586Y-118638350D01*
X133666072Y-118632153D01*
X133662226Y-118621382D01*
X133660815Y-118605823D01*
X133662226Y-118590778D01*
X133666072Y-118580050D01*
X133671586Y-118573809D01*
X133678510Y-118571886D01*
X133835846Y-118571886D01*
X133835846Y-118397197D01*
X133837726Y-118390230D01*
X133843710Y-118384973D01*
X133854695Y-118381596D01*
X133871236Y-118380399D01*
X133887949Y-118381596D01*
X133898720Y-118384973D01*
X133904704Y-118390230D01*
X133906627Y-118397197D01*
X133906627Y-118571886D01*
X134063920Y-118571886D01*
X134070844Y-118573809D01*
X134076571Y-118580050D01*
X134080418Y-118590778D01*
X134081615Y-118605823D01*
G37*
G36*
X123483297Y-118263969D02*
G01*
X123511293Y-118266576D01*
X123545761Y-118274819D01*
X123574637Y-118286195D01*
X123600218Y-118301573D01*
X123620799Y-118320132D01*
X123637082Y-118342148D01*
X123648753Y-118367235D01*
X123655697Y-118394642D01*
X123658114Y-118425749D01*
X123655924Y-118455834D01*
X123649736Y-118481443D01*
X123639431Y-118504740D01*
X123625587Y-118524912D01*
X123608380Y-118542434D01*
X123587802Y-118557653D01*
X123564804Y-118570281D01*
X123538563Y-118581075D01*
X123566303Y-118598044D01*
X123589469Y-118622621D01*
X123609772Y-118655576D01*
X123628920Y-118697549D01*
X123684400Y-118833598D01*
X123692991Y-118857705D01*
X123694915Y-118868476D01*
X123693462Y-118875144D01*
X123687264Y-118879931D01*
X123673843Y-118882752D01*
X123650933Y-118883735D01*
X123630587Y-118882752D01*
X123617936Y-118879674D01*
X123610498Y-118873733D01*
X123605968Y-118864159D01*
X123549077Y-118718535D01*
X123528262Y-118672972D01*
X123516349Y-118653408D01*
X123502702Y-118637154D01*
X123486617Y-118623827D01*
X123467781Y-118613773D01*
X123446465Y-118607632D01*
X123419482Y-118605396D01*
X123364515Y-118605396D01*
X123364515Y-118868476D01*
X123362336Y-118875144D01*
X123355625Y-118879674D01*
X123343187Y-118882538D01*
X123323354Y-118883735D01*
X123303522Y-118882538D01*
X123290870Y-118879674D01*
X123284159Y-118875144D01*
X123282236Y-118868433D01*
X123282236Y-118539060D01*
X123364515Y-118539060D01*
X123444829Y-118539060D01*
X123476104Y-118536955D01*
X123500992Y-118531195D01*
X123523101Y-118521510D01*
X123540443Y-118509183D01*
X123554203Y-118493724D01*
X123563653Y-118475929D01*
X123569189Y-118456176D01*
X123571090Y-118434298D01*
X123566814Y-118399985D01*
X123554805Y-118372834D01*
X123542225Y-118358259D01*
X123524479Y-118346185D01*
X123500308Y-118336717D01*
X123473252Y-118331929D01*
X123433844Y-118330476D01*
X123364515Y-118330476D01*
X123364515Y-118539060D01*
X123282236Y-118539060D01*
X123282236Y-118296197D01*
X123284970Y-118279639D01*
X123292024Y-118270166D01*
X123302292Y-118264568D01*
X123312840Y-118262772D01*
X123444358Y-118262772D01*
X123483297Y-118263969D01*
G37*
G36*
X123998900Y-118640017D02*
G01*
X123997577Y-118657204D01*
X123994583Y-118665919D01*
X123989288Y-118671320D01*
X123982144Y-118673100D01*
X123782281Y-118673100D01*
X123774722Y-118671239D01*
X123769330Y-118665663D01*
X123766349Y-118656789D01*
X123765055Y-118640017D01*
X123766357Y-118623281D01*
X123769330Y-118614628D01*
X123774699Y-118609257D01*
X123782281Y-118607448D01*
X123982144Y-118607448D01*
X123989069Y-118608901D01*
X123994326Y-118614415D01*
X123997703Y-118624715D01*
X123998900Y-118640017D01*
G37*
G36*
X151898120Y-125929960D02*
G01*
X151913935Y-125930901D01*
X151924663Y-125934021D01*
X151930647Y-125939278D01*
X151932528Y-125946202D01*
X151932528Y-126120250D01*
X152468433Y-126120250D01*
X152475144Y-126122173D01*
X152479674Y-126128884D01*
X152482538Y-126141578D01*
X152483735Y-126161368D01*
X152482538Y-126180987D01*
X152479674Y-126193895D01*
X152475144Y-126200606D01*
X152468433Y-126202529D01*
X151932528Y-126202529D01*
X151932528Y-126376577D01*
X151930647Y-126383501D01*
X151924663Y-126388545D01*
X151913935Y-126391622D01*
X151898120Y-126392819D01*
X151882134Y-126391622D01*
X151870893Y-126388545D01*
X151864695Y-126383501D01*
X151862772Y-126376577D01*
X151862772Y-125946202D01*
X151864695Y-125939278D01*
X151870893Y-125934021D01*
X151882134Y-125930901D01*
X151898120Y-125929960D01*
G37*
G36*
X152624358Y-125432993D02*
G01*
X152639745Y-125434134D01*
X152648507Y-125436840D01*
X152654203Y-125441758D01*
X152656073Y-125448765D01*
X152656073Y-125909273D01*
X152654310Y-125916424D01*
X152648978Y-125921711D01*
X152640592Y-125924710D01*
X152625341Y-125925985D01*
X152610339Y-125924748D01*
X152601191Y-125921711D01*
X152595100Y-125916342D01*
X152593156Y-125909273D01*
X152593156Y-125448765D01*
X152594987Y-125442106D01*
X152600721Y-125437054D01*
X152609440Y-125434185D01*
X152624358Y-125432993D01*
G37*
G36*
X152478520Y-124888967D02*
G01*
X152482795Y-124901618D01*
X152483735Y-124925298D01*
X152483008Y-124948977D01*
X152480658Y-124962356D01*
X152476170Y-124969066D01*
X152469032Y-124973127D01*
X152319604Y-125026213D01*
X152319604Y-125283480D01*
X152467151Y-125334130D01*
X152474503Y-125337977D01*
X152479717Y-125344901D01*
X152482795Y-125357809D01*
X152483735Y-125379565D01*
X152482538Y-125402304D01*
X152478050Y-125414742D01*
X152468305Y-125418076D01*
X152451379Y-125414016D01*
X151877176Y-125206458D01*
X151868628Y-125201457D01*
X151863370Y-125192353D01*
X151860763Y-125177051D01*
X151860108Y-125155765D01*
X151944838Y-125155765D01*
X151944838Y-125156278D01*
X152253951Y-125262878D01*
X152253951Y-125047712D01*
X151944838Y-125155765D01*
X151860108Y-125155765D01*
X151860036Y-125153415D01*
X151860763Y-125128068D01*
X151863370Y-125111826D01*
X151868841Y-125102252D01*
X151877646Y-125096952D01*
X152451892Y-124889437D01*
X152468818Y-124885376D01*
X152478520Y-124888967D01*
G37*
G36*
X152092556Y-124695001D02*
G01*
X152468946Y-124695001D01*
X152475400Y-124696925D01*
X152479931Y-124703379D01*
X152482752Y-124715560D01*
X152483735Y-124734709D01*
X152482752Y-124753815D01*
X152479931Y-124766039D01*
X152475400Y-124772493D01*
X152468946Y-124774374D01*
X152092556Y-124774374D01*
X152092556Y-124835111D01*
X152090703Y-124841720D01*
X152084905Y-124846609D01*
X152075959Y-124849278D01*
X152059986Y-124850413D01*
X152044641Y-124849473D01*
X152034340Y-124846609D01*
X152028570Y-124841822D01*
X152026903Y-124835111D01*
X152026903Y-124774374D01*
X151982152Y-124774374D01*
X151938546Y-124772122D01*
X151904403Y-124766039D01*
X151874107Y-124755148D01*
X151851232Y-124740693D01*
X151833320Y-124721529D01*
X151820671Y-124697651D01*
X151813419Y-124670187D01*
X151810797Y-124636188D01*
X151814387Y-124601780D01*
X151821098Y-124577844D01*
X151827082Y-124567800D01*
X151834519Y-124563269D01*
X151845547Y-124560875D01*
X151861105Y-124560149D01*
X151875723Y-124560875D01*
X151884613Y-124563055D01*
X151889144Y-124566389D01*
X151890341Y-124570663D01*
X151888204Y-124579297D01*
X151883417Y-124591265D01*
X151878629Y-124608234D01*
X151876450Y-124630930D01*
X151878006Y-124647765D01*
X151882263Y-124660807D01*
X151889586Y-124671767D01*
X151900343Y-124680640D01*
X151913770Y-124687041D01*
X151932143Y-124691881D01*
X151979630Y-124695471D01*
X152026903Y-124695471D01*
X152026903Y-124501335D01*
X151924578Y-124501335D01*
X151918380Y-124499454D01*
X151913336Y-124493214D01*
X151910259Y-124481246D01*
X151909276Y-124461670D01*
X151910259Y-124442521D01*
X151913336Y-124430596D01*
X151918380Y-124424356D01*
X151924578Y-124422432D01*
X152026903Y-124422432D01*
X152026903Y-124312456D01*
X152028570Y-124305532D01*
X152034340Y-124300531D01*
X152044641Y-124297411D01*
X152059986Y-124296214D01*
X152075921Y-124297494D01*
X152084905Y-124300531D01*
X152090747Y-124305690D01*
X152092556Y-124311986D01*
X152092556Y-124422432D01*
X152331871Y-124422432D01*
X152373116Y-124418733D01*
X152398848Y-124409524D01*
X152411026Y-124399063D01*
X152418663Y-124383874D01*
X152421502Y-124362208D01*
X152419365Y-124342846D01*
X152414791Y-124327288D01*
X152410261Y-124315576D01*
X152408081Y-124307199D01*
X152409278Y-124302411D01*
X152413851Y-124299291D01*
X152422955Y-124297154D01*
X152437359Y-124296214D01*
X152459457Y-124298351D01*
X152471425Y-124304335D01*
X152478649Y-124315320D01*
X152484162Y-124332331D01*
X152487753Y-124353360D01*
X152489206Y-124375116D01*
X152486838Y-124407625D01*
X152480401Y-124432990D01*
X152469158Y-124454925D01*
X152453644Y-124472185D01*
X152433873Y-124485135D01*
X152408295Y-124494411D01*
X152379572Y-124499477D01*
X152343625Y-124501335D01*
X152092556Y-124501335D01*
X152092556Y-124695001D01*
G37*
G36*
X152249958Y-123838062D02*
G01*
X152259764Y-123844810D01*
X152265674Y-123854810D01*
X152267629Y-123866053D01*
X152267629Y-124148196D01*
X152302707Y-124146311D01*
X152332555Y-124141016D01*
X152359705Y-124131287D01*
X152382093Y-124117123D01*
X152400212Y-124098093D01*
X152413851Y-124073611D01*
X152421942Y-124045054D01*
X152424921Y-124008087D01*
X152423584Y-123978353D01*
X152419878Y-123953590D01*
X152408508Y-123912215D01*
X152397181Y-123883535D01*
X152392095Y-123866523D01*
X152393805Y-123860582D01*
X152398848Y-123856522D01*
X152408166Y-123854342D01*
X152422784Y-123853615D01*
X152433598Y-123854128D01*
X152441762Y-123855325D01*
X152448259Y-123857718D01*
X152453773Y-123862035D01*
X152462407Y-123877551D01*
X152474246Y-123911018D01*
X152484590Y-123958591D01*
X152489206Y-124016208D01*
X152485287Y-124067307D01*
X152474374Y-124109215D01*
X152455780Y-124146237D01*
X152430350Y-124176407D01*
X152398105Y-124199961D01*
X152357132Y-124217568D01*
X152311069Y-124227740D01*
X152254721Y-124231416D01*
X152200942Y-124227664D01*
X152155002Y-124217055D01*
X152113489Y-124199206D01*
X152079861Y-124175680D01*
X152052602Y-124145916D01*
X152032460Y-124110412D01*
X152020217Y-124070565D01*
X152016271Y-124028176D01*
X152077510Y-124028176D01*
X152080364Y-124056086D01*
X152088452Y-124079338D01*
X152101225Y-124099669D01*
X152117389Y-124116182D01*
X152136701Y-124129199D01*
X152159405Y-124139135D01*
X152183822Y-124145444D01*
X152209499Y-124148196D01*
X152209499Y-123914822D01*
X152169279Y-123917601D01*
X152137620Y-123927040D01*
X152112645Y-123942349D01*
X152093629Y-123963934D01*
X152081789Y-123991875D01*
X152077510Y-124028176D01*
X152016271Y-124028176D01*
X152015961Y-124024842D01*
X152020285Y-123976491D01*
X152032161Y-123938545D01*
X152051413Y-123905746D01*
X152075801Y-123879945D01*
X152105293Y-123860189D01*
X152140128Y-123846221D01*
X152177898Y-123838200D01*
X152219031Y-123835450D01*
X152233307Y-123835450D01*
X152249958Y-123838062D01*
G37*
G36*
X152065671Y-123463590D02*
G01*
X152083366Y-123464060D01*
X152094607Y-123465983D01*
X152100805Y-123469574D01*
X152102942Y-123475515D01*
X152100805Y-123484876D01*
X152096531Y-123497314D01*
X152092427Y-123512829D01*
X152090504Y-123531465D01*
X152095377Y-123554931D01*
X152111362Y-123579080D01*
X152140983Y-123605623D01*
X152186119Y-123636184D01*
X152468946Y-123636184D01*
X152475400Y-123638107D01*
X152479931Y-123644348D01*
X152482752Y-123656273D01*
X152483735Y-123675892D01*
X152482752Y-123694998D01*
X152479931Y-123707222D01*
X152475400Y-123713420D01*
X152468946Y-123715087D01*
X152038957Y-123715087D01*
X152032545Y-123713676D01*
X152027758Y-123707949D01*
X152024894Y-123696964D01*
X152024168Y-123679226D01*
X152024894Y-123661787D01*
X152027758Y-123651058D01*
X152032545Y-123645545D01*
X152038999Y-123643835D01*
X152101574Y-123643835D01*
X152058789Y-123610624D01*
X152032759Y-123581217D01*
X152019637Y-123553734D01*
X152015961Y-123526208D01*
X152016688Y-123512145D01*
X152019338Y-123495647D01*
X152023612Y-123480088D01*
X152028399Y-123470258D01*
X152032930Y-123466454D01*
X152038444Y-123464787D01*
X152048232Y-123463846D01*
X152065671Y-123463590D01*
G37*
G36*
X134398120Y-126179960D02*
G01*
X134413935Y-126180901D01*
X134424663Y-126184021D01*
X134430647Y-126189278D01*
X134432528Y-126196202D01*
X134432528Y-126370250D01*
X134968433Y-126370250D01*
X134975144Y-126372173D01*
X134979674Y-126378884D01*
X134982538Y-126391578D01*
X134983735Y-126411368D01*
X134982538Y-126430987D01*
X134979674Y-126443895D01*
X134975144Y-126450606D01*
X134968433Y-126452529D01*
X134432528Y-126452529D01*
X134432528Y-126626577D01*
X134430647Y-126633501D01*
X134424663Y-126638545D01*
X134413935Y-126641622D01*
X134398120Y-126642819D01*
X134382134Y-126641622D01*
X134370893Y-126638545D01*
X134364695Y-126633501D01*
X134362772Y-126626577D01*
X134362772Y-126196202D01*
X134364695Y-126189278D01*
X134370893Y-126184021D01*
X134382134Y-126180901D01*
X134398120Y-126179960D01*
G37*
G36*
X135124358Y-125682993D02*
G01*
X135139745Y-125684134D01*
X135148507Y-125686840D01*
X135154203Y-125691758D01*
X135156073Y-125698765D01*
X135156073Y-126159273D01*
X135154310Y-126166424D01*
X135148978Y-126171711D01*
X135140592Y-126174710D01*
X135125341Y-126175985D01*
X135110339Y-126174748D01*
X135101191Y-126171711D01*
X135095100Y-126166342D01*
X135093156Y-126159273D01*
X135093156Y-125698765D01*
X135094987Y-125692106D01*
X135100721Y-125687054D01*
X135109440Y-125684185D01*
X135124358Y-125682993D01*
G37*
G36*
X134832651Y-125196834D02*
G01*
X134857901Y-125202354D01*
X134881397Y-125211344D01*
X134901969Y-125223127D01*
X134920253Y-125237855D01*
X134936248Y-125255397D01*
X134949703Y-125275305D01*
X134960996Y-125297969D01*
X134969684Y-125322246D01*
X134975999Y-125348661D01*
X134979669Y-125376666D01*
X134981000Y-125410553D01*
X134981000Y-125572205D01*
X134979203Y-125582752D01*
X134973605Y-125593020D01*
X134964103Y-125600078D01*
X134947575Y-125602808D01*
X134396197Y-125602808D01*
X134379676Y-125600076D01*
X134370209Y-125593020D01*
X134364578Y-125582749D01*
X134362772Y-125572205D01*
X134362772Y-125436369D01*
X134429792Y-125436369D01*
X134429792Y-125521512D01*
X134630853Y-125521512D01*
X134630853Y-125427778D01*
X134630486Y-125422991D01*
X134696505Y-125422991D01*
X134696505Y-125521512D01*
X134913295Y-125521512D01*
X134913295Y-125401961D01*
X134911532Y-125374762D01*
X134906670Y-125352722D01*
X134898318Y-125332769D01*
X134886923Y-125315664D01*
X134872317Y-125301436D01*
X134854353Y-125290574D01*
X134833815Y-125283849D01*
X134809175Y-125281470D01*
X134782680Y-125283792D01*
X134760705Y-125290318D01*
X134741382Y-125301237D01*
X134725528Y-125316134D01*
X134713232Y-125334773D01*
X134703900Y-125358706D01*
X134698543Y-125385966D01*
X134696505Y-125422991D01*
X134630486Y-125422991D01*
X134628528Y-125397487D01*
X134622475Y-125376145D01*
X134612472Y-125357986D01*
X134599907Y-125343618D01*
X134584636Y-125332482D01*
X134566825Y-125324726D01*
X134547580Y-125320243D01*
X134527673Y-125318742D01*
X134505821Y-125320363D01*
X134486896Y-125324982D01*
X134469954Y-125333037D01*
X134455951Y-125344601D01*
X134444966Y-125359581D01*
X134436503Y-125379521D01*
X134431676Y-125402798D01*
X134429792Y-125436369D01*
X134362772Y-125436369D01*
X134362772Y-125431625D01*
X134365704Y-125378731D01*
X134373329Y-125340754D01*
X134386615Y-125307662D01*
X134404019Y-125281727D01*
X134426384Y-125261013D01*
X134453429Y-125246079D01*
X134483945Y-125237221D01*
X134519594Y-125234112D01*
X134541317Y-125235444D01*
X134561781Y-125239369D01*
X134581241Y-125245928D01*
X134598967Y-125254927D01*
X134615019Y-125266458D01*
X134629400Y-125280744D01*
X134641543Y-125297294D01*
X134651455Y-125316348D01*
X134658194Y-125291798D01*
X134668851Y-125269032D01*
X134683176Y-125248416D01*
X134700993Y-125230521D01*
X134721952Y-125215902D01*
X134746728Y-125204491D01*
X134773774Y-125197382D01*
X134804302Y-125194917D01*
X134832651Y-125196834D01*
G37*
G36*
X134749958Y-124714496D02*
G01*
X134759764Y-124721244D01*
X134765674Y-124731244D01*
X134767629Y-124742487D01*
X134767629Y-125024631D01*
X134802707Y-125022745D01*
X134832555Y-125017450D01*
X134859705Y-125007722D01*
X134882093Y-124993557D01*
X134900212Y-124974527D01*
X134913851Y-124950045D01*
X134921942Y-124921488D01*
X134924921Y-124884521D01*
X134923584Y-124854787D01*
X134919878Y-124830024D01*
X134908508Y-124788649D01*
X134897181Y-124759969D01*
X134892095Y-124742957D01*
X134893805Y-124737016D01*
X134898848Y-124732956D01*
X134908166Y-124730776D01*
X134922784Y-124730049D01*
X134933598Y-124730562D01*
X134941762Y-124731759D01*
X134948259Y-124734153D01*
X134953773Y-124738469D01*
X134962407Y-124753985D01*
X134974246Y-124787452D01*
X134984590Y-124835025D01*
X134989206Y-124892642D01*
X134985287Y-124943741D01*
X134974374Y-124985649D01*
X134955780Y-125022671D01*
X134930350Y-125052841D01*
X134898105Y-125076395D01*
X134857132Y-125094002D01*
X134811069Y-125104174D01*
X134754721Y-125107850D01*
X134700942Y-125104098D01*
X134655002Y-125093489D01*
X134613489Y-125075640D01*
X134579861Y-125052114D01*
X134552602Y-125022350D01*
X134532460Y-124986846D01*
X134520217Y-124946999D01*
X134516271Y-124904610D01*
X134577510Y-124904610D01*
X134580364Y-124932520D01*
X134588452Y-124955772D01*
X134601225Y-124976103D01*
X134617389Y-124992616D01*
X134636701Y-125005633D01*
X134659405Y-125015569D01*
X134683822Y-125021878D01*
X134709499Y-125024631D01*
X134709499Y-124791256D01*
X134669279Y-124794035D01*
X134637620Y-124803474D01*
X134612645Y-124818783D01*
X134593629Y-124840368D01*
X134581789Y-124868309D01*
X134577510Y-124904610D01*
X134516271Y-124904610D01*
X134515961Y-124901276D01*
X134520285Y-124852925D01*
X134532161Y-124814979D01*
X134551413Y-124782180D01*
X134575801Y-124756379D01*
X134605293Y-124736623D01*
X134640128Y-124722655D01*
X134677898Y-124714634D01*
X134719031Y-124711884D01*
X134733307Y-124711884D01*
X134749958Y-124714496D01*
G37*
G36*
X134361105Y-124364686D02*
G01*
X134375723Y-124365669D01*
X134384613Y-124367807D01*
X134389144Y-124370927D01*
X134390341Y-124375671D01*
X134388204Y-124384049D01*
X134383417Y-124396230D01*
X134378629Y-124413242D01*
X134376450Y-124435938D01*
X134377999Y-124452807D01*
X134382263Y-124466072D01*
X134389602Y-124477208D01*
X134400343Y-124486118D01*
X134413775Y-124492471D01*
X134432143Y-124497145D01*
X134479630Y-124500479D01*
X134526903Y-124500479D01*
X134526903Y-124404351D01*
X134528570Y-124397940D01*
X134534340Y-124393153D01*
X134544641Y-124389776D01*
X134559986Y-124388579D01*
X134575921Y-124389860D01*
X134584905Y-124392896D01*
X134590751Y-124398084D01*
X134592556Y-124404351D01*
X134592556Y-124500479D01*
X134968946Y-124500479D01*
X134975400Y-124502403D01*
X134979931Y-124508857D01*
X134982752Y-124521038D01*
X134983735Y-124540187D01*
X134982752Y-124559293D01*
X134979931Y-124571517D01*
X134975400Y-124577971D01*
X134968946Y-124579852D01*
X134592556Y-124579852D01*
X134592556Y-124640589D01*
X134590703Y-124647198D01*
X134584905Y-124652087D01*
X134575959Y-124654756D01*
X134559986Y-124655891D01*
X134544641Y-124654951D01*
X134534340Y-124652087D01*
X134528570Y-124647300D01*
X134526903Y-124640589D01*
X134526903Y-124579852D01*
X134482152Y-124579852D01*
X134438546Y-124577600D01*
X134404403Y-124571517D01*
X134374129Y-124560569D01*
X134351232Y-124545915D01*
X134333311Y-124526577D01*
X134320671Y-124502659D01*
X134313419Y-124475194D01*
X134310797Y-124441195D01*
X134313917Y-124408668D01*
X134320628Y-124384305D01*
X134327082Y-124372807D01*
X134334519Y-124368020D01*
X134345547Y-124365413D01*
X134361105Y-124364686D01*
G37*
G36*
X134799338Y-123925413D02*
G01*
X134844950Y-123935723D01*
X134886576Y-123953226D01*
X134921245Y-123977097D01*
X134949574Y-124007776D01*
X134971254Y-124045956D01*
X134984500Y-124089440D01*
X134989206Y-124141827D01*
X134985037Y-124192776D01*
X134973434Y-124234322D01*
X134953870Y-124270736D01*
X134927486Y-124300102D01*
X134894645Y-124322760D01*
X134854268Y-124339297D01*
X134809519Y-124348818D01*
X134756644Y-124352206D01*
X134705354Y-124348688D01*
X134659790Y-124338571D01*
X134618131Y-124321239D01*
X134583452Y-124297452D01*
X134555129Y-124266802D01*
X134533657Y-124228851D01*
X134520619Y-124185510D01*
X134516255Y-124136057D01*
X134582297Y-124136057D01*
X134585582Y-124169363D01*
X134594736Y-124196110D01*
X134609753Y-124218993D01*
X134629913Y-124237442D01*
X134654247Y-124251390D01*
X134683725Y-124261591D01*
X134715649Y-124267452D01*
X134751643Y-124269499D01*
X134786412Y-124267842D01*
X134818151Y-124263045D01*
X134847720Y-124254259D01*
X134872434Y-124241545D01*
X134893126Y-124223992D01*
X134909235Y-124201111D01*
X134919219Y-124173753D01*
X134922870Y-124137980D01*
X134919603Y-124105095D01*
X134910432Y-124078226D01*
X134895444Y-124055111D01*
X134875511Y-124036638D01*
X134851352Y-124022723D01*
X134821955Y-124012702D01*
X134789949Y-124007038D01*
X134753524Y-124005051D01*
X134719174Y-124006703D01*
X134687530Y-124011505D01*
X134657913Y-124020232D01*
X134633033Y-124032791D01*
X134612107Y-124050162D01*
X134595932Y-124072969D01*
X134585947Y-124100321D01*
X134582297Y-124136057D01*
X134516255Y-124136057D01*
X134515961Y-124132723D01*
X134520142Y-124081738D01*
X134531776Y-124040185D01*
X134551309Y-124003781D01*
X134577681Y-123974447D01*
X134610515Y-123951732D01*
X134650899Y-123934996D01*
X134695606Y-123925277D01*
X134748053Y-123921831D01*
X134799338Y-123925413D01*
G37*
G36*
X134565671Y-123554246D02*
G01*
X134583366Y-123554716D01*
X134594607Y-123556639D01*
X134600805Y-123560230D01*
X134602942Y-123566171D01*
X134600805Y-123575532D01*
X134596531Y-123587970D01*
X134592427Y-123603485D01*
X134590504Y-123622121D01*
X134595377Y-123645587D01*
X134611362Y-123669736D01*
X134640983Y-123696279D01*
X134686119Y-123726840D01*
X134968946Y-123726840D01*
X134975400Y-123728763D01*
X134979931Y-123735004D01*
X134982752Y-123746929D01*
X134983735Y-123766548D01*
X134982752Y-123785654D01*
X134979931Y-123797878D01*
X134975400Y-123804076D01*
X134968946Y-123805743D01*
X134538957Y-123805743D01*
X134532545Y-123804332D01*
X134527758Y-123798605D01*
X134524894Y-123787620D01*
X134524168Y-123769882D01*
X134524894Y-123752443D01*
X134527758Y-123741714D01*
X134532545Y-123736201D01*
X134538999Y-123734491D01*
X134601574Y-123734491D01*
X134558789Y-123701280D01*
X134532759Y-123671873D01*
X134519637Y-123644390D01*
X134515961Y-123616864D01*
X134516688Y-123602801D01*
X134519338Y-123586303D01*
X134523612Y-123570744D01*
X134528399Y-123560914D01*
X134532930Y-123557110D01*
X134538444Y-123555443D01*
X134548232Y-123554502D01*
X134565671Y-123554246D01*
G37*
G36*
X134749958Y-123112850D02*
G01*
X134759764Y-123119597D01*
X134765674Y-123129597D01*
X134767629Y-123140840D01*
X134767629Y-123422984D01*
X134802707Y-123421098D01*
X134832555Y-123415803D01*
X134859705Y-123406075D01*
X134882093Y-123391910D01*
X134900212Y-123372880D01*
X134913851Y-123348398D01*
X134921942Y-123319841D01*
X134924921Y-123282874D01*
X134923584Y-123253140D01*
X134919878Y-123228377D01*
X134908508Y-123187002D01*
X134897181Y-123158322D01*
X134892095Y-123141311D01*
X134893805Y-123135369D01*
X134898848Y-123131309D01*
X134908166Y-123129129D01*
X134922784Y-123128402D01*
X134933598Y-123128915D01*
X134941762Y-123130112D01*
X134948259Y-123132506D01*
X134953773Y-123136823D01*
X134962407Y-123152338D01*
X134974246Y-123185806D01*
X134984590Y-123233378D01*
X134989206Y-123290995D01*
X134985287Y-123342095D01*
X134974374Y-123384002D01*
X134955780Y-123421024D01*
X134930350Y-123451194D01*
X134898105Y-123474748D01*
X134857132Y-123492355D01*
X134811069Y-123502528D01*
X134754721Y-123506203D01*
X134700942Y-123502451D01*
X134655002Y-123491842D01*
X134613489Y-123473993D01*
X134579861Y-123450467D01*
X134552602Y-123420703D01*
X134532460Y-123385199D01*
X134520217Y-123345352D01*
X134516271Y-123302963D01*
X134577510Y-123302963D01*
X134580364Y-123330873D01*
X134588452Y-123354125D01*
X134601225Y-123374456D01*
X134617389Y-123390969D01*
X134636701Y-123403987D01*
X134659405Y-123413922D01*
X134683822Y-123420231D01*
X134709499Y-123422984D01*
X134709499Y-123189610D01*
X134669279Y-123192388D01*
X134637620Y-123201827D01*
X134612645Y-123217136D01*
X134593629Y-123238721D01*
X134581789Y-123266662D01*
X134577510Y-123302963D01*
X134516271Y-123302963D01*
X134515961Y-123299629D01*
X134520285Y-123251279D01*
X134532161Y-123213332D01*
X134551413Y-123180533D01*
X134575801Y-123154732D01*
X134605293Y-123134976D01*
X134640128Y-123121008D01*
X134677898Y-123112987D01*
X134719031Y-123110237D01*
X134733307Y-123110237D01*
X134749958Y-123112850D01*
G37*
G36*
X122666841Y-106740017D02*
G01*
X122665519Y-106757204D01*
X122662524Y-106765919D01*
X122657229Y-106771320D01*
X122650086Y-106773100D01*
X122450222Y-106773100D01*
X122442664Y-106771239D01*
X122437271Y-106765663D01*
X122434290Y-106756789D01*
X122432997Y-106740017D01*
X122434298Y-106723281D01*
X122437271Y-106714628D01*
X122442641Y-106709257D01*
X122450222Y-106707448D01*
X122650086Y-106707448D01*
X122657010Y-106708901D01*
X122662267Y-106714415D01*
X122665644Y-106724715D01*
X122666841Y-106740017D01*
G37*
G36*
X122754267Y-100755823D02*
G01*
X122752814Y-100771382D01*
X122749009Y-100782153D01*
X122743282Y-100788350D01*
X122736101Y-100790274D01*
X122579279Y-100790274D01*
X122579279Y-100963766D01*
X122577356Y-100970220D01*
X122571372Y-100974750D01*
X122560601Y-100977828D01*
X122543888Y-100979025D01*
X122527347Y-100977828D01*
X122516362Y-100974750D01*
X122510378Y-100970220D01*
X122508497Y-100963766D01*
X122508497Y-100790274D01*
X122351632Y-100790274D01*
X122344238Y-100788350D01*
X122338724Y-100782153D01*
X122334877Y-100771382D01*
X122333467Y-100755823D01*
X122334877Y-100740778D01*
X122338724Y-100730050D01*
X122344238Y-100723809D01*
X122351162Y-100721886D01*
X122508497Y-100721886D01*
X122508497Y-100547197D01*
X122510378Y-100540230D01*
X122516362Y-100534973D01*
X122527347Y-100531596D01*
X122543888Y-100530399D01*
X122560601Y-100531596D01*
X122571372Y-100534973D01*
X122577356Y-100540230D01*
X122579279Y-100547197D01*
X122579279Y-100721886D01*
X122736571Y-100721886D01*
X122743496Y-100723809D01*
X122749223Y-100730050D01*
X122753070Y-100740778D01*
X122754267Y-100755823D01*
G37*
G36*
X114356359Y-124915338D02*
G01*
X114401211Y-124922489D01*
X114438743Y-124933545D01*
X114474286Y-124949712D01*
X114505117Y-124969603D01*
X114531750Y-124993256D01*
X114554529Y-125020703D01*
X114573496Y-125052006D01*
X114588683Y-125087632D01*
X114599199Y-125125067D01*
X114605763Y-125166616D01*
X114608046Y-125212824D01*
X114605568Y-125266086D01*
X114598546Y-125312534D01*
X114587486Y-125353020D01*
X114571267Y-125391530D01*
X114551251Y-125424432D01*
X114527476Y-125452396D01*
X114499541Y-125476209D01*
X114467432Y-125495871D01*
X114430621Y-125511423D01*
X114391897Y-125521898D01*
X114346648Y-125528611D01*
X114293888Y-125531000D01*
X114162840Y-125531000D01*
X114152292Y-125529203D01*
X114142024Y-125523605D01*
X114134967Y-125514103D01*
X114132236Y-125497575D01*
X114132236Y-125461928D01*
X114214515Y-125461928D01*
X114299146Y-125461928D01*
X114355825Y-125457919D01*
X114399077Y-125447139D01*
X114436605Y-125428228D01*
X114466953Y-125401789D01*
X114490405Y-125368111D01*
X114507857Y-125325152D01*
X114517837Y-125276772D01*
X114521492Y-125216073D01*
X114518298Y-125167041D01*
X114509054Y-125122723D01*
X114492880Y-125082037D01*
X114470073Y-125048009D01*
X114440304Y-125020191D01*
X114402882Y-124998855D01*
X114375197Y-124989526D01*
X114340745Y-124983395D01*
X114298162Y-124981160D01*
X114214515Y-124981160D01*
X114214515Y-125461928D01*
X114132236Y-125461928D01*
X114132236Y-124946197D01*
X114134968Y-124929676D01*
X114142024Y-124920209D01*
X114152295Y-124914578D01*
X114162840Y-124912772D01*
X114302950Y-124912772D01*
X114356359Y-124915338D01*
G37*
G36*
X115111595Y-124948120D02*
G01*
X115110655Y-124963935D01*
X115107534Y-124974663D01*
X115102277Y-124980647D01*
X115095353Y-124982528D01*
X114921305Y-124982528D01*
X114921305Y-125518433D01*
X114919382Y-125525144D01*
X114912671Y-125529674D01*
X114899977Y-125532538D01*
X114880187Y-125533735D01*
X114860568Y-125532538D01*
X114847660Y-125529674D01*
X114840949Y-125525144D01*
X114839026Y-125518433D01*
X114839026Y-124982528D01*
X114664979Y-124982528D01*
X114658054Y-124980647D01*
X114653011Y-124974663D01*
X114649933Y-124963935D01*
X114648736Y-124948120D01*
X114649933Y-124932134D01*
X114653011Y-124920893D01*
X114658054Y-124914695D01*
X114664979Y-124912772D01*
X115095353Y-124912772D01*
X115102277Y-124914695D01*
X115107534Y-124920893D01*
X115110655Y-124932134D01*
X115111595Y-124948120D01*
G37*
G36*
X115402201Y-124913969D02*
G01*
X115430198Y-124916576D01*
X115464665Y-124924819D01*
X115493542Y-124936195D01*
X115519122Y-124951573D01*
X115539704Y-124970132D01*
X115555987Y-124992148D01*
X115567657Y-125017235D01*
X115574602Y-125044642D01*
X115577018Y-125075749D01*
X115574828Y-125105834D01*
X115568640Y-125131443D01*
X115558336Y-125154740D01*
X115544491Y-125174912D01*
X115527285Y-125192434D01*
X115506707Y-125207653D01*
X115483708Y-125220281D01*
X115457467Y-125231075D01*
X115485207Y-125248044D01*
X115508374Y-125272621D01*
X115528676Y-125305576D01*
X115547825Y-125347549D01*
X115603305Y-125483598D01*
X115611896Y-125507705D01*
X115613819Y-125518476D01*
X115612366Y-125525144D01*
X115606168Y-125529931D01*
X115592747Y-125532752D01*
X115569837Y-125533735D01*
X115549492Y-125532752D01*
X115536840Y-125529674D01*
X115529403Y-125523733D01*
X115524872Y-125514159D01*
X115467982Y-125368535D01*
X115447166Y-125322972D01*
X115435253Y-125303408D01*
X115421606Y-125287154D01*
X115405522Y-125273827D01*
X115386686Y-125263773D01*
X115365369Y-125257632D01*
X115338387Y-125255396D01*
X115283420Y-125255396D01*
X115283420Y-125518476D01*
X115281240Y-125525144D01*
X115274529Y-125529674D01*
X115262091Y-125532538D01*
X115242259Y-125533735D01*
X115222426Y-125532538D01*
X115209774Y-125529674D01*
X115203064Y-125525144D01*
X115201140Y-125518433D01*
X115201140Y-125189060D01*
X115283420Y-125189060D01*
X115363733Y-125189060D01*
X115395009Y-125186955D01*
X115419897Y-125181195D01*
X115442006Y-125171510D01*
X115459348Y-125159183D01*
X115473107Y-125143724D01*
X115482557Y-125125929D01*
X115488094Y-125106176D01*
X115489994Y-125084298D01*
X115485719Y-125049985D01*
X115473709Y-125022834D01*
X115461130Y-125008259D01*
X115443383Y-124996185D01*
X115419213Y-124986717D01*
X115392157Y-124981929D01*
X115352748Y-124980476D01*
X115283420Y-124980476D01*
X115283420Y-125189060D01*
X115201140Y-125189060D01*
X115201140Y-124946197D01*
X115203874Y-124929639D01*
X115210928Y-124920166D01*
X115221197Y-124914568D01*
X115231744Y-124912772D01*
X115363263Y-124912772D01*
X115402201Y-124913969D01*
G37*
G36*
X116920039Y-119998120D02*
G01*
X116919098Y-120013935D01*
X116915978Y-120024663D01*
X116910721Y-120030647D01*
X116903797Y-120032528D01*
X116729749Y-120032528D01*
X116729749Y-120568433D01*
X116727826Y-120575144D01*
X116721115Y-120579674D01*
X116708421Y-120582538D01*
X116688631Y-120583735D01*
X116669012Y-120582538D01*
X116656104Y-120579674D01*
X116649393Y-120575144D01*
X116647470Y-120568433D01*
X116647470Y-120032528D01*
X116473422Y-120032528D01*
X116466498Y-120030647D01*
X116461454Y-120024663D01*
X116458377Y-120013935D01*
X116457180Y-119998120D01*
X116458377Y-119982134D01*
X116461454Y-119970893D01*
X116466498Y-119964695D01*
X116473422Y-119962772D01*
X116903797Y-119962772D01*
X116910721Y-119964695D01*
X116915978Y-119970893D01*
X116919098Y-119982134D01*
X116920039Y-119998120D01*
G37*
G36*
X117283564Y-120559842D02*
G01*
X117287368Y-120571083D01*
X117282837Y-120578478D01*
X117268946Y-120582538D01*
X117244796Y-120583735D01*
X117222100Y-120583008D01*
X117208679Y-120580615D01*
X117201028Y-120576341D01*
X117196497Y-120570357D01*
X117093231Y-120399814D01*
X116990436Y-120570357D01*
X116985862Y-120576341D01*
X116978211Y-120580615D01*
X116965089Y-120583008D01*
X116943547Y-120583735D01*
X116920851Y-120582538D01*
X116907943Y-120578478D01*
X116904096Y-120571083D01*
X116908669Y-120559842D01*
X117042539Y-120350147D01*
X116915807Y-120148061D01*
X116911747Y-120136819D01*
X116916064Y-120129211D01*
X116929912Y-120125151D01*
X116954575Y-120124168D01*
X116976801Y-120124894D01*
X116989923Y-120127074D01*
X116997103Y-120130878D01*
X117001420Y-120136606D01*
X117099429Y-120296634D01*
X117198891Y-120136606D01*
X117203208Y-120131348D01*
X117209662Y-120127288D01*
X117221117Y-120124894D01*
X117241462Y-120124168D01*
X117264159Y-120125151D01*
X117277323Y-120128741D01*
X117281127Y-120136136D01*
X117276383Y-120148061D01*
X117150592Y-120347754D01*
X117283564Y-120559842D01*
G37*
G36*
X116733297Y-117663969D02*
G01*
X116761293Y-117666576D01*
X116795761Y-117674819D01*
X116824637Y-117686195D01*
X116850218Y-117701573D01*
X116870799Y-117720132D01*
X116887082Y-117742148D01*
X116898753Y-117767235D01*
X116905697Y-117794642D01*
X116908114Y-117825749D01*
X116905924Y-117855834D01*
X116899736Y-117881443D01*
X116889431Y-117904740D01*
X116875587Y-117924912D01*
X116858380Y-117942434D01*
X116837802Y-117957653D01*
X116814804Y-117970281D01*
X116788563Y-117981075D01*
X116816303Y-117998044D01*
X116839469Y-118022621D01*
X116859772Y-118055576D01*
X116878920Y-118097549D01*
X116934400Y-118233598D01*
X116942991Y-118257705D01*
X116944915Y-118268476D01*
X116943462Y-118275144D01*
X116937264Y-118279931D01*
X116923843Y-118282752D01*
X116900933Y-118283735D01*
X116880587Y-118282752D01*
X116867936Y-118279674D01*
X116860498Y-118273733D01*
X116855968Y-118264159D01*
X116799077Y-118118535D01*
X116778262Y-118072972D01*
X116766349Y-118053408D01*
X116752702Y-118037154D01*
X116736617Y-118023827D01*
X116717781Y-118013773D01*
X116696465Y-118007632D01*
X116669482Y-118005396D01*
X116614515Y-118005396D01*
X116614515Y-118268476D01*
X116612336Y-118275144D01*
X116605625Y-118279674D01*
X116593187Y-118282538D01*
X116573354Y-118283735D01*
X116553522Y-118282538D01*
X116540870Y-118279674D01*
X116534159Y-118275144D01*
X116532236Y-118268433D01*
X116532236Y-117939060D01*
X116614515Y-117939060D01*
X116694829Y-117939060D01*
X116726104Y-117936955D01*
X116750992Y-117931195D01*
X116773101Y-117921510D01*
X116790443Y-117909183D01*
X116804203Y-117893724D01*
X116813653Y-117875929D01*
X116819189Y-117856176D01*
X116821090Y-117834298D01*
X116816814Y-117799985D01*
X116804805Y-117772834D01*
X116792225Y-117758259D01*
X116774479Y-117746185D01*
X116750308Y-117736717D01*
X116723252Y-117731929D01*
X116683844Y-117730476D01*
X116614515Y-117730476D01*
X116614515Y-117939060D01*
X116532236Y-117939060D01*
X116532236Y-117696197D01*
X116534970Y-117679639D01*
X116542024Y-117670166D01*
X116552292Y-117664568D01*
X116562840Y-117662772D01*
X116694358Y-117662772D01*
X116733297Y-117663969D01*
G37*
G36*
X117381359Y-118259842D02*
G01*
X117385163Y-118271083D01*
X117380632Y-118278478D01*
X117366741Y-118282538D01*
X117342591Y-118283735D01*
X117319895Y-118283008D01*
X117306474Y-118280615D01*
X117298823Y-118276341D01*
X117294292Y-118270357D01*
X117191026Y-118099814D01*
X117088230Y-118270357D01*
X117083657Y-118276341D01*
X117076006Y-118280615D01*
X117062884Y-118283008D01*
X117041342Y-118283735D01*
X117018646Y-118282538D01*
X117005737Y-118278478D01*
X117001891Y-118271083D01*
X117006464Y-118259842D01*
X117140334Y-118050147D01*
X117013602Y-117848061D01*
X117009542Y-117836819D01*
X117013859Y-117829211D01*
X117027707Y-117825151D01*
X117052370Y-117824168D01*
X117074596Y-117824894D01*
X117087718Y-117827074D01*
X117094898Y-117830878D01*
X117099215Y-117836606D01*
X117197224Y-117996634D01*
X117296686Y-117836606D01*
X117301003Y-117831348D01*
X117307457Y-117827288D01*
X117318912Y-117824894D01*
X117339257Y-117824168D01*
X117361953Y-117825151D01*
X117375118Y-117828741D01*
X117378922Y-117836136D01*
X117374178Y-117848061D01*
X117248387Y-118047754D01*
X117381359Y-118259842D01*
G37*
G36*
X116782322Y-115116553D02*
G01*
X116777065Y-115125144D01*
X116767747Y-115130401D01*
X116752445Y-115133008D01*
X116729279Y-115133735D01*
X116710814Y-115133479D01*
X116697222Y-115132282D01*
X116687434Y-115130145D01*
X116680467Y-115127067D01*
X116675936Y-115122536D01*
X116672816Y-115116082D01*
X116470559Y-114542051D01*
X116466498Y-114525082D01*
X116470559Y-114515294D01*
X116484407Y-114511020D01*
X116510266Y-114510036D01*
X116531509Y-114510763D01*
X116543691Y-114513413D01*
X116550145Y-114518414D01*
X116554248Y-114526279D01*
X116731630Y-115046327D01*
X116732143Y-115046327D01*
X116904737Y-114527219D01*
X116908071Y-114518628D01*
X116914781Y-114513413D01*
X116928160Y-114510763D01*
X116951155Y-114510036D01*
X116974535Y-114511233D01*
X116986290Y-114515764D01*
X116988683Y-114525552D01*
X116984110Y-114542521D01*
X116782322Y-115116553D01*
G37*
G36*
X117158072Y-115118946D02*
G01*
X117156148Y-115125400D01*
X117149908Y-115129931D01*
X117137983Y-115132752D01*
X117118364Y-115133735D01*
X117099258Y-115132752D01*
X117087034Y-115129931D01*
X117080836Y-115125400D01*
X117079169Y-115118946D01*
X117079169Y-114688957D01*
X117080836Y-114682759D01*
X117087034Y-114678015D01*
X117099258Y-114675151D01*
X117118364Y-114674168D01*
X117137983Y-114675151D01*
X117149908Y-114678015D01*
X117156148Y-114682759D01*
X117158072Y-114688957D01*
X117158072Y-115118946D01*
G37*
G36*
X117167133Y-114544444D02*
G01*
X117164023Y-114569304D01*
X117156618Y-114582100D01*
X117143388Y-114589131D01*
X117117894Y-114592102D01*
X117092820Y-114589202D01*
X117079853Y-114582357D01*
X117072634Y-114569823D01*
X117069595Y-114545385D01*
X117072705Y-114520525D01*
X117080109Y-114507728D01*
X117093339Y-114500698D01*
X117118834Y-114497727D01*
X117143896Y-114500639D01*
X117156832Y-114507515D01*
X117164081Y-114520018D01*
X117167133Y-114544444D01*
G37*
G36*
X117674059Y-115118861D02*
G01*
X117672136Y-115125357D01*
X117665938Y-115129888D01*
X117653970Y-115132752D01*
X117634864Y-115133735D01*
X117615245Y-115132752D01*
X117603278Y-115129888D01*
X117597080Y-115125357D01*
X117595157Y-115118861D01*
X117595157Y-114866210D01*
X117593545Y-114831086D01*
X117589429Y-114806755D01*
X117582201Y-114785384D01*
X117572674Y-114767945D01*
X117560049Y-114753526D01*
X117544207Y-114742983D01*
X117525806Y-114736598D01*
X117503816Y-114734349D01*
X117474964Y-114739354D01*
X117444532Y-114755464D01*
X117415642Y-114780000D01*
X117382384Y-114817312D01*
X117382384Y-115118861D01*
X117380461Y-115125357D01*
X117374221Y-115129888D01*
X117362295Y-115132752D01*
X117342677Y-115133735D01*
X117323571Y-115132752D01*
X117311346Y-115129931D01*
X117305149Y-115125400D01*
X117303482Y-115118946D01*
X117303482Y-114688957D01*
X117304892Y-114682545D01*
X117310620Y-114677758D01*
X117321605Y-114674894D01*
X117339343Y-114674168D01*
X117356782Y-114674894D01*
X117367510Y-114677758D01*
X117373024Y-114682545D01*
X117374733Y-114688999D01*
X117374733Y-114745847D01*
X117412408Y-114708805D01*
X117447139Y-114685195D01*
X117483912Y-114670646D01*
X117520101Y-114665961D01*
X117560987Y-114669874D01*
X117592549Y-114680579D01*
X117619365Y-114697836D01*
X117640122Y-114719646D01*
X117655547Y-114745828D01*
X117666152Y-114776921D01*
X117671917Y-114811431D01*
X117674059Y-114855738D01*
X117674059Y-115118861D01*
G37*
G36*
X116997061Y-109896419D02*
G01*
X116996078Y-109912533D01*
X116993214Y-109924073D01*
X116988427Y-109930528D01*
X116982229Y-109932451D01*
X116975812Y-109930779D01*
X116963080Y-109923518D01*
X116927219Y-109903728D01*
X116873407Y-109883981D01*
X116840540Y-109877417D01*
X116799077Y-109875005D01*
X116749776Y-109879810D01*
X116707267Y-109893598D01*
X116669599Y-109915867D01*
X116638408Y-109945103D01*
X116613738Y-109980614D01*
X116595110Y-110023279D01*
X116583923Y-110069831D01*
X116580065Y-110121458D01*
X116584395Y-110178490D01*
X116596564Y-110226306D01*
X116616582Y-110269105D01*
X116642213Y-110303541D01*
X116674146Y-110331145D01*
X116711797Y-110351199D01*
X116753630Y-110363246D01*
X116800488Y-110367399D01*
X116829205Y-110365689D01*
X116858618Y-110360474D01*
X116887155Y-110351753D01*
X116913371Y-110339659D01*
X116913371Y-110159499D01*
X116769884Y-110159499D01*
X116762878Y-110157524D01*
X116757703Y-110151335D01*
X116754837Y-110141959D01*
X116753642Y-110125904D01*
X116754583Y-110110303D01*
X116757703Y-110099745D01*
X116762746Y-110093718D01*
X116769884Y-110091795D01*
X116966457Y-110091795D01*
X116976972Y-110093718D01*
X116986503Y-110099489D01*
X116993214Y-110110003D01*
X116995607Y-110125305D01*
X116995607Y-110361201D01*
X116991290Y-110382743D01*
X116985126Y-110390840D01*
X116973125Y-110398772D01*
X116937264Y-110413860D01*
X116891829Y-110427751D01*
X116844470Y-110436342D01*
X116797154Y-110439206D01*
X116749737Y-110436594D01*
X116707232Y-110429082D01*
X116669012Y-110417023D01*
X116632901Y-110399894D01*
X116601253Y-110378848D01*
X116573611Y-110353807D01*
X116549895Y-110324964D01*
X116530062Y-110292339D01*
X116514071Y-110255499D01*
X116502865Y-110216802D01*
X116495915Y-110174343D01*
X116493511Y-110127613D01*
X116496106Y-110079022D01*
X116503614Y-110034835D01*
X116515737Y-109994513D01*
X116532901Y-109956124D01*
X116553783Y-109922404D01*
X116578398Y-109892871D01*
X116606940Y-109867112D01*
X116639166Y-109845434D01*
X116675466Y-109827732D01*
X116713880Y-109815047D01*
X116755557Y-109807247D01*
X116801001Y-109804565D01*
X116835776Y-109806136D01*
X116867465Y-109810678D01*
X116922689Y-109825039D01*
X116963337Y-109842905D01*
X116986033Y-109858635D01*
X116994667Y-109872911D01*
X116997061Y-109896419D01*
G37*
G36*
X117511980Y-110418861D02*
G01*
X117510056Y-110425357D01*
X117503859Y-110429888D01*
X117491891Y-110432752D01*
X117472785Y-110433735D01*
X117453166Y-110432752D01*
X117441198Y-110429888D01*
X117435000Y-110425357D01*
X117433077Y-110418861D01*
X117433077Y-110166210D01*
X117431466Y-110131086D01*
X117427349Y-110106755D01*
X117420121Y-110085384D01*
X117410594Y-110067945D01*
X117397969Y-110053526D01*
X117382128Y-110042983D01*
X117363727Y-110036598D01*
X117341736Y-110034349D01*
X117312884Y-110039354D01*
X117282452Y-110055464D01*
X117253563Y-110080000D01*
X117220305Y-110117312D01*
X117220305Y-110418861D01*
X117218381Y-110425357D01*
X117212141Y-110429888D01*
X117200216Y-110432752D01*
X117180597Y-110433735D01*
X117161491Y-110432752D01*
X117149267Y-110429931D01*
X117143069Y-110425400D01*
X117141402Y-110418946D01*
X117141402Y-109988957D01*
X117142813Y-109982545D01*
X117148540Y-109977758D01*
X117159525Y-109974894D01*
X117177263Y-109974168D01*
X117194702Y-109974894D01*
X117205430Y-109977758D01*
X117210944Y-109982545D01*
X117212654Y-109988999D01*
X117212654Y-110045847D01*
X117250328Y-110008805D01*
X117285060Y-109985195D01*
X117321832Y-109970646D01*
X117358021Y-109965961D01*
X117398907Y-109969874D01*
X117430470Y-109980579D01*
X117457286Y-109997836D01*
X117478042Y-110019646D01*
X117493468Y-110045828D01*
X117504072Y-110076921D01*
X117509838Y-110111431D01*
X117511980Y-110155738D01*
X117511980Y-110418861D01*
G37*
G36*
X118003775Y-109767465D02*
G01*
X118015743Y-109770329D01*
X118022197Y-109775116D01*
X118024334Y-109781570D01*
X118024334Y-110418903D01*
X118022667Y-110425614D01*
X118016939Y-110430145D01*
X118006168Y-110432752D01*
X117989926Y-110433735D01*
X117973171Y-110432752D01*
X117962186Y-110430145D01*
X117955946Y-110425528D01*
X117954065Y-110418732D01*
X117954065Y-110361201D01*
X117918644Y-110394625D01*
X117883497Y-110418647D01*
X117845393Y-110434019D01*
X117803441Y-110439206D01*
X117758458Y-110434347D01*
X117722615Y-110420784D01*
X117692259Y-110399088D01*
X117668332Y-110371032D01*
X117650628Y-110337574D01*
X117637984Y-110297344D01*
X117630849Y-110254271D01*
X117628410Y-110208097D01*
X117628922Y-110199250D01*
X117710177Y-110199250D01*
X117715177Y-110262893D01*
X117722230Y-110292750D01*
X117732659Y-110318159D01*
X117747278Y-110340102D01*
X117765656Y-110356927D01*
X117788157Y-110367661D01*
X117817289Y-110371502D01*
X117847636Y-110367228D01*
X117877556Y-110352909D01*
X117909570Y-110326879D01*
X117944961Y-110287513D01*
X117944961Y-110115261D01*
X117912090Y-110078824D01*
X117883027Y-110054566D01*
X117852040Y-110038742D01*
X117820623Y-110033665D01*
X117792254Y-110037407D01*
X117769460Y-110048027D01*
X117750513Y-110064537D01*
X117735266Y-110085854D01*
X117724071Y-110110445D01*
X117716161Y-110138940D01*
X117711677Y-110168804D01*
X117710177Y-110199250D01*
X117628922Y-110199250D01*
X117631532Y-110154111D01*
X117640335Y-110107866D01*
X117655530Y-110065626D01*
X117675726Y-110031528D01*
X117702060Y-110003538D01*
X117733856Y-109982973D01*
X117770400Y-109970389D01*
X117813955Y-109965961D01*
X117850393Y-109970163D01*
X117883027Y-109982502D01*
X117913284Y-110002194D01*
X117944961Y-110031058D01*
X117944961Y-109781527D01*
X117946628Y-109775116D01*
X117953082Y-109770329D01*
X117965264Y-109767465D01*
X117984199Y-109766268D01*
X118003775Y-109767465D01*
G37*
D11*
X127920399Y-124005763D02*
X127920399Y-123003724D01*
X127920399Y-123003724D02*
X128302128Y-123003724D01*
X128302128Y-123003724D02*
X128397561Y-123051440D01*
X128397561Y-123051440D02*
X128445277Y-123099156D01*
X128445277Y-123099156D02*
X128492993Y-123194588D01*
X128492993Y-123194588D02*
X128492993Y-123337737D01*
X128492993Y-123337737D02*
X128445277Y-123433169D01*
X128445277Y-123433169D02*
X128397561Y-123480885D01*
X128397561Y-123480885D02*
X128302128Y-123528601D01*
X128302128Y-123528601D02*
X127920399Y-123528601D01*
X129447316Y-124005763D02*
X128874722Y-124005763D01*
X129161019Y-124005763D02*
X129161019Y-123003724D01*
X129161019Y-123003724D02*
X129065587Y-123146872D01*
X129065587Y-123146872D02*
X128970154Y-123242304D01*
X128970154Y-123242304D02*
X128874722Y-123290021D01*
X157704819Y-112711904D02*
X158514342Y-112711904D01*
X158514342Y-112711904D02*
X158609580Y-112664285D01*
X158609580Y-112664285D02*
X158657200Y-112616666D01*
X158657200Y-112616666D02*
X158704819Y-112521428D01*
X158704819Y-112521428D02*
X158704819Y-112330952D01*
X158704819Y-112330952D02*
X158657200Y-112235714D01*
X158657200Y-112235714D02*
X158609580Y-112188095D01*
X158609580Y-112188095D02*
X158514342Y-112140476D01*
X158514342Y-112140476D02*
X157704819Y-112140476D01*
X158038152Y-111235714D02*
X158704819Y-111235714D01*
X157657200Y-111473809D02*
X158371485Y-111711904D01*
X158371485Y-111711904D02*
X158371485Y-111092857D01*
D12*
X116154318Y-104373332D02*
X117061461Y-104373332D01*
X117061461Y-104373332D02*
X117242889Y-104433809D01*
X117242889Y-104433809D02*
X117363842Y-104554761D01*
X117363842Y-104554761D02*
X117424318Y-104736190D01*
X117424318Y-104736190D02*
X117424318Y-104857142D01*
X116275270Y-103829047D02*
X116214794Y-103768571D01*
X116214794Y-103768571D02*
X116154318Y-103647618D01*
X116154318Y-103647618D02*
X116154318Y-103345237D01*
X116154318Y-103345237D02*
X116214794Y-103224285D01*
X116214794Y-103224285D02*
X116275270Y-103163809D01*
X116275270Y-103163809D02*
X116396222Y-103103332D01*
X116396222Y-103103332D02*
X116517175Y-103103332D01*
X116517175Y-103103332D02*
X116698603Y-103163809D01*
X116698603Y-103163809D02*
X117424318Y-103889523D01*
X117424318Y-103889523D02*
X117424318Y-103103332D01*
D11*
X127999819Y-112936904D02*
X128809342Y-112936904D01*
X128809342Y-112936904D02*
X128904580Y-112889285D01*
X128904580Y-112889285D02*
X128952200Y-112841666D01*
X128952200Y-112841666D02*
X128999819Y-112746428D01*
X128999819Y-112746428D02*
X128999819Y-112555952D01*
X128999819Y-112555952D02*
X128952200Y-112460714D01*
X128952200Y-112460714D02*
X128904580Y-112413095D01*
X128904580Y-112413095D02*
X128809342Y-112365476D01*
X128809342Y-112365476D02*
X127999819Y-112365476D01*
X127999819Y-111984523D02*
X127999819Y-111365476D01*
X127999819Y-111365476D02*
X128380771Y-111698809D01*
X128380771Y-111698809D02*
X128380771Y-111555952D01*
X128380771Y-111555952D02*
X128428390Y-111460714D01*
X128428390Y-111460714D02*
X128476009Y-111413095D01*
X128476009Y-111413095D02*
X128571247Y-111365476D01*
X128571247Y-111365476D02*
X128809342Y-111365476D01*
X128809342Y-111365476D02*
X128904580Y-111413095D01*
X128904580Y-111413095D02*
X128952200Y-111460714D01*
X128952200Y-111460714D02*
X128999819Y-111555952D01*
X128999819Y-111555952D02*
X128999819Y-111841666D01*
X128999819Y-111841666D02*
X128952200Y-111936904D01*
X128952200Y-111936904D02*
X128904580Y-111984523D01*
X157725399Y-123980763D02*
X157725399Y-122978724D01*
X157725399Y-122978724D02*
X158107128Y-122978724D01*
X158107128Y-122978724D02*
X158202561Y-123026440D01*
X158202561Y-123026440D02*
X158250277Y-123074156D01*
X158250277Y-123074156D02*
X158297993Y-123169588D01*
X158297993Y-123169588D02*
X158297993Y-123312737D01*
X158297993Y-123312737D02*
X158250277Y-123408169D01*
X158250277Y-123408169D02*
X158202561Y-123455885D01*
X158202561Y-123455885D02*
X158107128Y-123503601D01*
X158107128Y-123503601D02*
X157725399Y-123503601D01*
X158679722Y-123074156D02*
X158727438Y-123026440D01*
X158727438Y-123026440D02*
X158822871Y-122978724D01*
X158822871Y-122978724D02*
X159061451Y-122978724D01*
X159061451Y-122978724D02*
X159156884Y-123026440D01*
X159156884Y-123026440D02*
X159204600Y-123074156D01*
X159204600Y-123074156D02*
X159252316Y-123169588D01*
X159252316Y-123169588D02*
X159252316Y-123265021D01*
X159252316Y-123265021D02*
X159204600Y-123408169D01*
X159204600Y-123408169D02*
X158632006Y-123980763D01*
X158632006Y-123980763D02*
X159252316Y-123980763D01*
D13*
%TO.C,10k5*%
X157270000Y-105767621D02*
X157270000Y-105432379D01*
X158030000Y-105767621D02*
X158030000Y-105432379D01*
%TO.C,D2*%
X132000000Y-108490000D02*
X132000000Y-112500000D01*
X134000000Y-108490000D02*
X132000000Y-108490000D01*
X134000000Y-108490000D02*
X134000000Y-112500000D01*
%TO.C,10k3*%
X131620000Y-114582379D02*
X131620000Y-114917621D01*
X132380000Y-114582379D02*
X132380000Y-114917621D01*
%TO.C,C4*%
X128434165Y-116390000D02*
X128665835Y-116390000D01*
X128434165Y-117110000D02*
X128665835Y-117110000D01*
%TO.C,10k4*%
X133370000Y-114532379D02*
X133370000Y-114867621D01*
X134130000Y-114532379D02*
X134130000Y-114867621D01*
%TO.C,C8*%
X124127500Y-106340835D02*
X124127500Y-106109165D01*
X124847500Y-106340835D02*
X124847500Y-106109165D01*
D14*
%TO.C,P1*%
X123580000Y-119450000D02*
X133740000Y-119450000D01*
X123580000Y-126650000D02*
X123580000Y-119450000D01*
X123580000Y-126650000D02*
X133740000Y-126650000D01*
X123580000Y-127650000D02*
X123580000Y-126650000D01*
X133740000Y-119450000D02*
X133740000Y-126650000D01*
X133740000Y-126650000D02*
X133740000Y-127650000D01*
X133740000Y-127650000D02*
X123580000Y-127650000D01*
D13*
%TO.C,U4*%
X155690000Y-111950000D02*
X155690000Y-110000000D01*
X155690000Y-111950000D02*
X155690000Y-113900000D01*
X160810000Y-111950000D02*
X160810000Y-110000000D01*
X160810000Y-111950000D02*
X160810000Y-113900000D01*
X155785000Y-114650000D02*
X155455000Y-114890000D01*
X155455000Y-114410000D01*
X155785000Y-114650000D01*
G36*
X155785000Y-114650000D02*
G01*
X155455000Y-114890000D01*
X155455000Y-114410000D01*
X155785000Y-114650000D01*
G37*
%TO.C,J5*%
X113320000Y-111600000D02*
X113320000Y-124360000D01*
X113320000Y-111600000D02*
X115980000Y-111600000D01*
X113320000Y-124360000D02*
X115980000Y-124360000D01*
X114650000Y-109000000D02*
X115980000Y-109000000D01*
X115980000Y-109000000D02*
X115980000Y-110330000D01*
X115980000Y-111600000D02*
X115980000Y-124360000D01*
D14*
%TO.C,U6*%
X137220000Y-108600000D02*
X137370000Y-108600000D01*
X137220000Y-108750000D02*
X137220000Y-108600000D01*
X137220000Y-115700000D02*
X137220000Y-115550000D01*
X137370000Y-115700000D02*
X137220000Y-115700000D01*
X144170000Y-108600000D02*
X144320000Y-108600000D01*
X144320000Y-108600000D02*
X144320000Y-108750000D01*
X144320000Y-115550000D02*
X144320000Y-115700000D01*
X144320000Y-115700000D02*
X144170000Y-115700000D01*
D15*
X138072640Y-118002880D02*
G75*
G02*
X137872640Y-118002880I-100000J0D01*
G01*
X137872640Y-118002880D02*
G75*
G02*
X138072640Y-118002880I100000J0D01*
G01*
D13*
%TO.C,C10*%
X117584165Y-123740000D02*
X117815835Y-123740000D01*
X117584165Y-124460000D02*
X117815835Y-124460000D01*
%TO.C,D1*%
X123250000Y-108540000D02*
X123250000Y-112550000D01*
X125250000Y-108540000D02*
X123250000Y-108540000D01*
X125250000Y-108540000D02*
X125250000Y-112550000D01*
%TO.C,C9*%
X117584165Y-122542500D02*
X117815835Y-122542500D01*
X117584165Y-123262500D02*
X117815835Y-123262500D01*
%TO.C,U5*%
X123827500Y-102475000D02*
X123827500Y-101825000D01*
X123827500Y-102475000D02*
X123827500Y-103125000D01*
X126947500Y-102475000D02*
X126947500Y-101825000D01*
X126947500Y-102475000D02*
X126947500Y-103125000D01*
X123877500Y-103637500D02*
X123547500Y-103877500D01*
X123547500Y-103397500D01*
X123877500Y-103637500D01*
G36*
X123877500Y-103637500D02*
G01*
X123547500Y-103877500D01*
X123547500Y-103397500D01*
X123877500Y-103637500D01*
G37*
D16*
%TO.C,J2*%
X114251000Y-101754000D02*
X114251000Y-106146000D01*
X121100000Y-100000000D02*
X117675000Y-100000000D01*
X121100000Y-100000000D02*
X121100000Y-102050000D01*
X121100000Y-107900000D02*
X117675000Y-107900000D01*
X121100000Y-107900000D02*
X121100000Y-105850000D01*
D17*
X123682000Y-102855000D02*
X123682000Y-102855000D01*
X123682000Y-102907000D02*
X123682000Y-102907000D01*
X123682000Y-102855000D02*
G75*
G02*
X123682000Y-102907000I0J-26000D01*
G01*
X123682000Y-102907000D02*
G75*
G02*
X123682000Y-102855000I0J26000D01*
G01*
D13*
%TO.C,D4*%
X161805000Y-108165000D02*
X161805000Y-112175000D01*
X163805000Y-108165000D02*
X161805000Y-108165000D01*
X163805000Y-108165000D02*
X163805000Y-112175000D01*
D14*
%TO.C,Y2*%
X141430000Y-118300000D02*
X141430000Y-119600000D01*
X144870000Y-118300000D02*
X144870000Y-119600000D01*
D16*
X141030001Y-118950000D02*
G75*
G02*
X140829999Y-118950000I-100001J0D01*
G01*
X140829999Y-118950000D02*
G75*
G02*
X141030001Y-118950000I100001J0D01*
G01*
D13*
%TO.C,AE2*%
X169190000Y-101020000D02*
X169950000Y-101020000D01*
X169190000Y-102350000D02*
X169190000Y-101020000D01*
X170525000Y-101020000D02*
X170645000Y-101020000D01*
X170525000Y-103680000D02*
X170645000Y-103680000D01*
X170645000Y-101590000D02*
X170645000Y-101020000D01*
X170645000Y-103680000D02*
X170645000Y-103110000D01*
%TO.C,C5*%
X158139165Y-116215000D02*
X158370835Y-116215000D01*
X158139165Y-116935000D02*
X158370835Y-116935000D01*
%TO.C,C1*%
X141165835Y-105790000D02*
X140934165Y-105790000D01*
X141165835Y-106510000D02*
X140934165Y-106510000D01*
%TO.C,U3*%
X125985000Y-112175000D02*
X125985000Y-110225000D01*
X125985000Y-112175000D02*
X125985000Y-114125000D01*
X131105000Y-112175000D02*
X131105000Y-110225000D01*
X131105000Y-112175000D02*
X131105000Y-114125000D01*
X126080000Y-114875000D02*
X125750000Y-115115000D01*
X125750000Y-114635000D01*
X126080000Y-114875000D01*
G36*
X126080000Y-114875000D02*
G01*
X125750000Y-115115000D01*
X125750000Y-114635000D01*
X126080000Y-114875000D01*
G37*
%TO.C,10k2*%
X163125000Y-114357379D02*
X163125000Y-114692621D01*
X163885000Y-114357379D02*
X163885000Y-114692621D01*
%TO.C,C7*%
X125877500Y-106340835D02*
X125877500Y-106109165D01*
X126597500Y-106340835D02*
X126597500Y-106109165D01*
%TO.C,C11*%
X163640000Y-105934165D02*
X163640000Y-106165835D01*
X164360000Y-105934165D02*
X164360000Y-106165835D01*
%TO.C,10k1*%
X161825000Y-114357379D02*
X161825000Y-114692621D01*
X162585000Y-114357379D02*
X162585000Y-114692621D01*
%TO.C,C6*%
X124884165Y-99640000D02*
X125115835Y-99640000D01*
X124884165Y-100360000D02*
X125115835Y-100360000D01*
%TO.C,D3*%
X153005000Y-108265000D02*
X153005000Y-112275000D01*
X155005000Y-108265000D02*
X153005000Y-108265000D01*
X155005000Y-108265000D02*
X155005000Y-112275000D01*
D14*
%TO.C,P2*%
X153385000Y-119425000D02*
X163545000Y-119425000D01*
X153385000Y-126625000D02*
X153385000Y-119425000D01*
X153385000Y-126625000D02*
X163545000Y-126625000D01*
X153385000Y-127625000D02*
X153385000Y-126625000D01*
X163545000Y-119425000D02*
X163545000Y-126625000D01*
X163545000Y-126625000D02*
X163545000Y-127625000D01*
X163545000Y-127625000D02*
X153385000Y-127625000D01*
D13*
%TO.C,R1*%
X119369999Y-123382379D02*
X119369999Y-123717621D01*
X120130001Y-123382379D02*
X120130001Y-123717621D01*
%TD*%
M02*
