%TF.GenerationSoftware,KiCad,Pcbnew,9.0.3*%
%TF.CreationDate,2025-12-18T09:50:52-08:00*%
%TF.ProjectId,stm_temp_v0,73746d5f-7465-46d7-905f-76302e6b6963,rev?*%
%TF.SameCoordinates,Original*%
%TF.FileFunction,Soldermask,Top*%
%TF.FilePolarity,Negative*%
%FSLAX46Y46*%
G04 Gerber Fmt 4.6, Leading zero omitted, Abs format (unit mm)*
G04 Created by KiCad (PCBNEW 9.0.3) date 2025-12-18 09:50:52*
%MOMM*%
%LPD*%
G01*
G04 APERTURE LIST*
G04 Aperture macros list*
%AMRoundRect*
0 Rectangle with rounded corners*
0 $1 Rounding radius*
0 $2 $3 $4 $5 $6 $7 $8 $9 X,Y pos of 4 corners*
0 Add a 4 corners polygon primitive as box body*
4,1,4,$2,$3,$4,$5,$6,$7,$8,$9,$2,$3,0*
0 Add four circle primitives for the rounded corners*
1,1,$1+$1,$2,$3*
1,1,$1+$1,$4,$5*
1,1,$1+$1,$6,$7*
1,1,$1+$1,$8,$9*
0 Add four rect primitives between the rounded corners*
20,1,$1+$1,$2,$3,$4,$5,0*
20,1,$1+$1,$4,$5,$6,$7,0*
20,1,$1+$1,$6,$7,$8,$9,0*
20,1,$1+$1,$8,$9,$2,$3,0*%
G04 Aperture macros list end*
%ADD10RoundRect,0.160000X0.160000X-0.197500X0.160000X0.197500X-0.160000X0.197500X-0.160000X-0.197500X0*%
%ADD11RoundRect,0.225000X-0.375000X0.225000X-0.375000X-0.225000X0.375000X-0.225000X0.375000X0.225000X0*%
%ADD12RoundRect,0.160000X-0.160000X0.197500X-0.160000X-0.197500X0.160000X-0.197500X0.160000X0.197500X0*%
%ADD13RoundRect,0.155000X-0.212500X-0.155000X0.212500X-0.155000X0.212500X0.155000X-0.212500X0.155000X0*%
%ADD14RoundRect,0.102000X0.270000X0.300000X-0.270000X0.300000X-0.270000X-0.300000X0.270000X-0.300000X0*%
%ADD15RoundRect,0.155000X0.155000X-0.212500X0.155000X0.212500X-0.155000X0.212500X-0.155000X-0.212500X0*%
%ADD16RoundRect,0.102000X-0.825000X-0.825000X0.825000X-0.825000X0.825000X0.825000X-0.825000X0.825000X0*%
%ADD17C,1.854000*%
%ADD18RoundRect,0.150000X0.150000X-0.825000X0.150000X0.825000X-0.150000X0.825000X-0.150000X-0.825000X0*%
%ADD19R,1.700000X1.700000*%
%ADD20C,1.700000*%
%ADD21RoundRect,0.199810X0.177190X-0.702190X0.177190X0.702190X-0.177190X0.702190X-0.177190X-0.702190X0*%
%ADD22RoundRect,0.199810X0.702190X-0.177190X0.702190X0.177190X-0.702190X0.177190X-0.702190X-0.177190X0*%
%ADD23RoundRect,0.102000X-0.270000X-0.300000X0.270000X-0.300000X0.270000X0.300000X-0.270000X0.300000X0*%
%ADD24RoundRect,0.150000X0.150000X-0.587500X0.150000X0.587500X-0.150000X0.587500X-0.150000X-0.587500X0*%
%ADD25R,3.500000X1.000000*%
%ADD26R,3.400000X1.500000*%
%ADD27RoundRect,0.102000X-0.200000X-0.950000X0.200000X-0.950000X0.200000X0.950000X-0.200000X0.950000X0*%
%ADD28C,1.300000*%
%ADD29RoundRect,0.155000X0.212500X0.155000X-0.212500X0.155000X-0.212500X-0.155000X0.212500X-0.155000X0*%
%ADD30RoundRect,0.155000X-0.155000X0.212500X-0.155000X-0.212500X0.155000X-0.212500X0.155000X0.212500X0*%
%ADD31C,0.991000*%
G04 APERTURE END LIST*
D10*
%TO.C,10k5*%
X157650000Y-106197500D03*
X157650000Y-105002500D03*
%TD*%
D11*
%TO.C,D2*%
X133000000Y-109200000D03*
X133000000Y-112500000D03*
%TD*%
D12*
%TO.C,10k3*%
X132000000Y-114152500D03*
X132000000Y-115347500D03*
%TD*%
D13*
%TO.C,C4*%
X127982500Y-116750000D03*
X129117500Y-116750000D03*
%TD*%
D14*
%TO.C,FB3*%
X155537000Y-118075000D03*
X154673000Y-118075000D03*
%TD*%
D12*
%TO.C,10k4*%
X133750000Y-114102500D03*
X133750000Y-115297500D03*
%TD*%
D15*
%TO.C,C8*%
X124487500Y-106792500D03*
X124487500Y-105657500D03*
%TD*%
D16*
%TO.C,P1*%
X126120000Y-123550000D03*
D17*
X131200000Y-123550000D03*
%TD*%
D18*
%TO.C,U4*%
X156345000Y-114425000D03*
X157615000Y-114425000D03*
X158885000Y-114425000D03*
X160155000Y-114425000D03*
X160155000Y-109475000D03*
X158885000Y-109475000D03*
X157615000Y-109475000D03*
X156345000Y-109475000D03*
%TD*%
D19*
%TO.C,J5*%
X114650000Y-110330000D03*
D20*
X114650000Y-112870000D03*
X114650000Y-115410000D03*
X114650000Y-117950000D03*
X114650000Y-120490000D03*
X114650000Y-123030000D03*
%TD*%
D21*
%TO.C,U6*%
X137970000Y-116330000D03*
X138770000Y-116330000D03*
X139570000Y-116330000D03*
X140370000Y-116330000D03*
X141170000Y-116330000D03*
X141970000Y-116330000D03*
X142770000Y-116330000D03*
X143570000Y-116330000D03*
D22*
X144950000Y-114950000D03*
X144950000Y-114150000D03*
X144950000Y-113350000D03*
X144950000Y-112550000D03*
X144950000Y-111750000D03*
X144950000Y-110950000D03*
X144950000Y-110150000D03*
X144950000Y-109350000D03*
D21*
X143570000Y-107970000D03*
X142770000Y-107970000D03*
X141970000Y-107970000D03*
X141170000Y-107970000D03*
X140370000Y-107970000D03*
X139570000Y-107970000D03*
X138770000Y-107970000D03*
X137970000Y-107970000D03*
D22*
X136590000Y-109350000D03*
X136590000Y-110150000D03*
X136590000Y-110950000D03*
X136590000Y-111750000D03*
X136590000Y-112550000D03*
X136590000Y-113350000D03*
X136590000Y-114150000D03*
X136590000Y-114950000D03*
%TD*%
D13*
%TO.C,C10*%
X117132500Y-124100000D03*
X118267500Y-124100000D03*
%TD*%
D11*
%TO.C,D1*%
X124250000Y-109250000D03*
X124250000Y-112550000D03*
%TD*%
D13*
%TO.C,C9*%
X117132500Y-122902500D03*
X118267500Y-122902500D03*
%TD*%
D23*
%TO.C,FB4*%
X161023000Y-118025000D03*
X161887000Y-118025000D03*
%TD*%
D24*
%TO.C,U5*%
X124437500Y-103412500D03*
X126337500Y-103412500D03*
X125387500Y-101537500D03*
%TD*%
D25*
%TO.C,J2*%
X121100000Y-102950000D03*
X121100000Y-104950000D03*
D26*
X115550000Y-100600000D03*
X115550000Y-107300000D03*
%TD*%
D11*
%TO.C,D4*%
X162805000Y-108875000D03*
X162805000Y-112175000D03*
%TD*%
D27*
%TO.C,Y2*%
X141950000Y-118950000D03*
X143150000Y-118950000D03*
X144350000Y-118950000D03*
%TD*%
D28*
%TO.C,AE2*%
X169950000Y-102350000D03*
%TD*%
D13*
%TO.C,C5*%
X157687500Y-116575000D03*
X158822500Y-116575000D03*
%TD*%
D29*
%TO.C,C1*%
X141617500Y-106150000D03*
X140482500Y-106150000D03*
%TD*%
D18*
%TO.C,U3*%
X126640000Y-114650000D03*
X127910000Y-114650000D03*
X129180000Y-114650000D03*
X130450000Y-114650000D03*
X130450000Y-109700000D03*
X129180000Y-109700000D03*
X127910000Y-109700000D03*
X126640000Y-109700000D03*
%TD*%
D12*
%TO.C,10k2*%
X163505000Y-113927500D03*
X163505000Y-115122500D03*
%TD*%
D15*
%TO.C,C7*%
X126237500Y-106792500D03*
X126237500Y-105657500D03*
%TD*%
D30*
%TO.C,C11*%
X164000000Y-105482500D03*
X164000000Y-106617500D03*
%TD*%
D31*
%TO.C,J3*%
X147965000Y-108540000D03*
X148981000Y-113620000D03*
X146949000Y-113620000D03*
X147330000Y-109810000D03*
X148600000Y-109810000D03*
X147330000Y-111080000D03*
X148600000Y-111080000D03*
X147330000Y-112350000D03*
X148600000Y-112350000D03*
%TD*%
D12*
%TO.C,10k1*%
X162205000Y-113927500D03*
X162205000Y-115122500D03*
%TD*%
D14*
%TO.C,FB1*%
X125732000Y-118100000D03*
X124868000Y-118100000D03*
%TD*%
D13*
%TO.C,C6*%
X124432500Y-100000000D03*
X125567500Y-100000000D03*
%TD*%
D11*
%TO.C,D3*%
X154005000Y-108975000D03*
X154005000Y-112275000D03*
%TD*%
D16*
%TO.C,P2*%
X155925000Y-123525000D03*
D17*
X161005000Y-123525000D03*
%TD*%
D12*
%TO.C,R1*%
X119750000Y-122952500D03*
X119750000Y-124147500D03*
%TD*%
D23*
%TO.C,FB2*%
X131518000Y-118100000D03*
X132382000Y-118100000D03*
%TD*%
M02*
