%TF.GenerationSoftware,KiCad,Pcbnew,9.0.3*%
%TF.CreationDate,2025-12-18T09:51:01-08:00*%
%TF.ProjectId,stm_temp_v0,73746d5f-7465-46d7-905f-76302e6b6963,rev?*%
%TF.SameCoordinates,Original*%
%TF.FileFunction,Drillmap*%
%TF.FilePolarity,Positive*%
%FSLAX45Y45*%
G04 Gerber Fmt 4.5, Leading zero omitted, Abs format (unit mm)*
G04 Created by KiCad (PCBNEW 9.0.3) date 2025-12-18 09:51:01*
%MOMM*%
%LPD*%
G01*
G04 APERTURE LIST*
%ADD10C,0.254000*%
%ADD11C,0.200000*%
%ADD12C,0.100000*%
%ADD13C,0.110000*%
G04 APERTURE END LIST*
D10*
X11235000Y-9900000D02*
X17155000Y-9900000D01*
X17155000Y-12795000D01*
X11235000Y-12795000D01*
X11235000Y-9900000D01*
D11*
D12*
X11820000Y-11735000D02*
X11850000Y-11765000D01*
X11850000Y-11735000D02*
X11820000Y-11765000D01*
X11820000Y-11850000D02*
X11850000Y-11880000D01*
X11850000Y-11850000D02*
X11820000Y-11880000D01*
X11825000Y-11975000D02*
X11855000Y-12005000D01*
X11855000Y-11975000D02*
X11825000Y-12005000D01*
X11920000Y-11845000D02*
X11950000Y-11875000D01*
X11950000Y-11845000D02*
X11920000Y-11875000D01*
X11925000Y-11730000D02*
X11955000Y-11760000D01*
X11955000Y-11730000D02*
X11925000Y-11760000D01*
X11925000Y-11970000D02*
X11955000Y-12000000D01*
X11955000Y-11970000D02*
X11925000Y-12000000D01*
X12000000Y-11225000D02*
X12030000Y-11255000D01*
X12030000Y-11225000D02*
X12000000Y-11255000D01*
X12000000Y-11335000D02*
X12030000Y-11365000D01*
X12030000Y-11335000D02*
X12000000Y-11365000D01*
X12000000Y-11460000D02*
X12030000Y-11490000D01*
X12030000Y-11460000D02*
X12000000Y-11490000D01*
X12060000Y-12420000D02*
X12090000Y-12450000D01*
X12090000Y-12420000D02*
X12060000Y-12450000D01*
X12110000Y-12195000D02*
X12140000Y-12225000D01*
X12140000Y-12195000D02*
X12110000Y-12225000D01*
X12518750Y-10551250D02*
X12548750Y-10581250D01*
X12548750Y-10551250D02*
X12518750Y-10581250D01*
X12525000Y-11455000D02*
X12555000Y-11485000D01*
X12555000Y-11455000D02*
X12525000Y-11485000D01*
X12540000Y-10795000D02*
X12570000Y-10825000D01*
X12570000Y-10795000D02*
X12540000Y-10825000D01*
X12650000Y-9985000D02*
X12680000Y-10015000D01*
X12680000Y-9985000D02*
X12650000Y-10015000D01*
X12895000Y-10110000D02*
X12925000Y-10140000D01*
X12925000Y-10110000D02*
X12895000Y-10140000D01*
X12895000Y-10230000D02*
X12925000Y-10260000D01*
X12925000Y-10230000D02*
X12895000Y-10260000D01*
X12960000Y-10345000D02*
X12990000Y-10375000D01*
X12990000Y-10345000D02*
X12960000Y-10375000D01*
X12975000Y-10585000D02*
X13005000Y-10615000D01*
X13005000Y-10585000D02*
X12975000Y-10615000D01*
X13085000Y-10110000D02*
X13115000Y-10140000D01*
X13115000Y-10110000D02*
X13085000Y-10140000D01*
X13085000Y-10225000D02*
X13115000Y-10255000D01*
X13115000Y-10225000D02*
X13085000Y-10255000D01*
X13295000Y-10110000D02*
X13325000Y-10140000D01*
X13325000Y-10110000D02*
X13295000Y-10140000D01*
X13295000Y-10230000D02*
X13325000Y-10260000D01*
X13325000Y-10230000D02*
X13295000Y-10260000D01*
X13445000Y-11335000D02*
X13475000Y-11365000D01*
X13475000Y-11335000D02*
X13445000Y-11365000D01*
X13455000Y-11540000D02*
X13485000Y-11570000D01*
X13485000Y-11540000D02*
X13455000Y-11570000D01*
X13485000Y-10110000D02*
X13515000Y-10140000D01*
X13515000Y-10110000D02*
X13485000Y-10140000D01*
X13485000Y-10225000D02*
X13515000Y-10255000D01*
X13515000Y-10225000D02*
X13485000Y-10255000D01*
X13485000Y-10755000D02*
X13515000Y-10785000D01*
X13515000Y-10755000D02*
X13485000Y-10785000D01*
X13530000Y-11835000D02*
X13560000Y-11865000D01*
X13560000Y-11835000D02*
X13530000Y-11865000D01*
X13650000Y-12345000D02*
X13680000Y-12375000D01*
X13680000Y-12345000D02*
X13650000Y-12375000D01*
X13650000Y-12465000D02*
X13680000Y-12495000D01*
X13680000Y-12465000D02*
X13650000Y-12495000D01*
X13650000Y-12595000D02*
X13680000Y-12625000D01*
X13680000Y-12595000D02*
X13650000Y-12625000D01*
X13740000Y-10115000D02*
X13770000Y-10145000D01*
X13770000Y-10115000D02*
X13740000Y-10145000D01*
X13740000Y-10235000D02*
X13770000Y-10265000D01*
X13770000Y-10235000D02*
X13740000Y-10265000D01*
X13780000Y-11475000D02*
X13810000Y-11505000D01*
X13810000Y-11475000D02*
X13780000Y-11505000D01*
X13787500Y-11312500D02*
X13817500Y-11342500D01*
X13817500Y-11312500D02*
X13787500Y-11342500D01*
X13845000Y-11815000D02*
X13875000Y-11845000D01*
X13875000Y-11815000D02*
X13845000Y-11845000D01*
X13930000Y-10115000D02*
X13960000Y-10145000D01*
X13960000Y-10115000D02*
X13930000Y-10145000D01*
X13930000Y-10230000D02*
X13960000Y-10260000D01*
X13960000Y-10230000D02*
X13930000Y-10260000D01*
X13945000Y-11485000D02*
X13975000Y-11515000D01*
X13975000Y-11485000D02*
X13945000Y-11515000D01*
X13985000Y-12345000D02*
X14015000Y-12375000D01*
X14015000Y-12345000D02*
X13985000Y-12375000D01*
X13985000Y-12465000D02*
X14015000Y-12495000D01*
X14015000Y-12465000D02*
X13985000Y-12495000D01*
X13985000Y-12595000D02*
X14015000Y-12625000D01*
X14015000Y-12595000D02*
X13985000Y-12625000D01*
X14095000Y-11480000D02*
X14125000Y-11510000D01*
X14125000Y-11480000D02*
X14095000Y-11510000D01*
X14235000Y-10095000D02*
X14265000Y-10125000D01*
X14265000Y-10095000D02*
X14235000Y-10125000D01*
X14235000Y-10215000D02*
X14265000Y-10245000D01*
X14265000Y-10215000D02*
X14235000Y-10245000D01*
X14235000Y-10345000D02*
X14265000Y-10375000D01*
X14265000Y-10345000D02*
X14235000Y-10375000D01*
X14265000Y-11035000D02*
X14295000Y-11065000D01*
X14295000Y-11035000D02*
X14265000Y-11065000D01*
X14285000Y-11235000D02*
X14315000Y-11265000D01*
X14315000Y-11235000D02*
X14285000Y-11265000D01*
X14295000Y-12345000D02*
X14325000Y-12375000D01*
X14325000Y-12345000D02*
X14295000Y-12375000D01*
X14295000Y-12465000D02*
X14325000Y-12495000D01*
X14325000Y-12465000D02*
X14295000Y-12495000D01*
X14295000Y-12595000D02*
X14325000Y-12625000D01*
X14325000Y-12595000D02*
X14295000Y-12625000D01*
X14305000Y-12055000D02*
X14335000Y-12085000D01*
X14335000Y-12055000D02*
X14305000Y-12085000D01*
X14380000Y-10575000D02*
X14410000Y-10605000D01*
X14410000Y-10575000D02*
X14380000Y-10605000D01*
X14440000Y-10755000D02*
X14470000Y-10785000D01*
X14470000Y-10755000D02*
X14440000Y-10785000D01*
X14535000Y-10105000D02*
X14565000Y-10135000D01*
X14565000Y-10105000D02*
X14535000Y-10135000D01*
X14535000Y-10225000D02*
X14565000Y-10255000D01*
X14565000Y-10225000D02*
X14535000Y-10255000D01*
X14535000Y-10355000D02*
X14565000Y-10385000D01*
X14565000Y-10355000D02*
X14535000Y-10385000D01*
X14605000Y-11945000D02*
X14635000Y-11975000D01*
X14635000Y-11945000D02*
X14605000Y-11975000D01*
X14605000Y-12065000D02*
X14635000Y-12095000D01*
X14635000Y-12065000D02*
X14605000Y-12095000D01*
X14605000Y-12195000D02*
X14635000Y-12225000D01*
X14635000Y-12195000D02*
X14605000Y-12225000D01*
X14605000Y-12345000D02*
X14635000Y-12375000D01*
X14635000Y-12345000D02*
X14605000Y-12375000D01*
X14605000Y-12465000D02*
X14635000Y-12495000D01*
X14635000Y-12465000D02*
X14605000Y-12495000D01*
X14605000Y-12595000D02*
X14635000Y-12625000D01*
X14635000Y-12595000D02*
X14605000Y-12625000D01*
X14620000Y-11160000D02*
X14650000Y-11190000D01*
X14650000Y-11160000D02*
X14620000Y-11190000D01*
X14625000Y-11085000D02*
X14655000Y-11115000D01*
X14655000Y-11085000D02*
X14625000Y-11115000D01*
X14660000Y-10840000D02*
X14690000Y-10870000D01*
X14690000Y-10840000D02*
X14660000Y-10870000D01*
X14850000Y-10675000D02*
X14880000Y-10705000D01*
X14880000Y-10675000D02*
X14850000Y-10705000D01*
X14865000Y-11490000D02*
X14895000Y-11520000D01*
X14895000Y-11490000D02*
X14865000Y-11520000D01*
X14940000Y-11085000D02*
X14970000Y-11115000D01*
X14970000Y-11085000D02*
X14940000Y-11115000D01*
X14945000Y-11940000D02*
X14975000Y-11970000D01*
X14975000Y-11940000D02*
X14945000Y-11970000D01*
X14945000Y-12060000D02*
X14975000Y-12090000D01*
X14975000Y-12060000D02*
X14945000Y-12090000D01*
X14945000Y-12190000D02*
X14975000Y-12220000D01*
X14975000Y-12190000D02*
X14945000Y-12220000D01*
X14945000Y-12345000D02*
X14975000Y-12375000D01*
X14975000Y-12345000D02*
X14945000Y-12375000D01*
X14945000Y-12465000D02*
X14975000Y-12495000D01*
X14975000Y-12465000D02*
X14945000Y-12495000D01*
X14945000Y-12595000D02*
X14975000Y-12625000D01*
X14975000Y-12595000D02*
X14945000Y-12625000D01*
X15150000Y-11270000D02*
X15180000Y-11300000D01*
X15180000Y-11270000D02*
X15150000Y-11300000D01*
X15420000Y-10290000D02*
X15450000Y-10320000D01*
X15450000Y-10290000D02*
X15420000Y-10320000D01*
X15425000Y-11450000D02*
X15455000Y-11480000D01*
X15455000Y-11450000D02*
X15425000Y-11480000D01*
X15470000Y-10700000D02*
X15500000Y-10730000D01*
X15500000Y-10700000D02*
X15470000Y-10730000D01*
X15535000Y-10295000D02*
X15565000Y-10325000D01*
X15565000Y-10295000D02*
X15535000Y-10325000D01*
X15545000Y-10600000D02*
X15575000Y-10630000D01*
X15575000Y-10600000D02*
X15545000Y-10630000D01*
X15585000Y-10705000D02*
X15615000Y-10735000D01*
X15615000Y-10705000D02*
X15585000Y-10735000D01*
X15660000Y-10290000D02*
X15690000Y-10320000D01*
X15690000Y-10290000D02*
X15660000Y-10320000D01*
X15710000Y-10700000D02*
X15740000Y-10730000D01*
X15740000Y-10700000D02*
X15710000Y-10730000D01*
X15995000Y-11593450D02*
X16025000Y-11623450D01*
X16025000Y-11593450D02*
X15995000Y-11623450D01*
X16145000Y-10530000D02*
X16175000Y-10560000D01*
X16175000Y-10530000D02*
X16145000Y-10560000D01*
X16415000Y-10765000D02*
X16445000Y-10795000D01*
X16445000Y-10765000D02*
X16415000Y-10795000D01*
X16540000Y-11965000D02*
X16570000Y-11995000D01*
X16570000Y-11965000D02*
X16540000Y-11995000D01*
X16545000Y-11850000D02*
X16575000Y-11880000D01*
X16575000Y-11850000D02*
X16545000Y-11880000D01*
X16545000Y-12090000D02*
X16575000Y-12120000D01*
X16575000Y-12090000D02*
X16545000Y-12120000D01*
X16545000Y-12415000D02*
X16575000Y-12445000D01*
X16575000Y-12415000D02*
X16545000Y-12445000D01*
X16550000Y-12300000D02*
X16580000Y-12330000D01*
X16580000Y-12300000D02*
X16550000Y-12330000D01*
X16550000Y-12540000D02*
X16580000Y-12570000D01*
X16580000Y-12540000D02*
X16550000Y-12570000D01*
X16800000Y-11855000D02*
X16830000Y-11885000D01*
X16830000Y-11855000D02*
X16800000Y-11885000D01*
X16800000Y-11970000D02*
X16830000Y-12000000D01*
X16830000Y-11970000D02*
X16800000Y-12000000D01*
X16800000Y-12100000D02*
X16830000Y-12130000D01*
X16830000Y-12100000D02*
X16800000Y-12130000D01*
X16810000Y-12305000D02*
X16840000Y-12335000D01*
X16840000Y-12305000D02*
X16810000Y-12335000D01*
X16810000Y-12425000D02*
X16840000Y-12455000D01*
X16840000Y-12425000D02*
X16810000Y-12455000D01*
X16810000Y-12555000D02*
X16840000Y-12585000D01*
X16840000Y-12555000D02*
X16810000Y-12585000D01*
X16900000Y-9990000D02*
X16930000Y-10020000D01*
X16930000Y-9990000D02*
X16900000Y-10020000D01*
X16920000Y-10470000D02*
X16950000Y-10500000D01*
X16950000Y-10470000D02*
X16920000Y-10500000D01*
X16960000Y-10790000D02*
X16990000Y-10820000D01*
X16990000Y-10790000D02*
X16960000Y-10820000D01*
X16960000Y-11340000D02*
X16990000Y-11370000D01*
X16990000Y-11340000D02*
X16960000Y-11370000D01*
X16965000Y-10675000D02*
X16995000Y-10705000D01*
X16995000Y-10675000D02*
X16965000Y-10705000D01*
X16965000Y-10915000D02*
X16995000Y-10945000D01*
X16995000Y-10915000D02*
X16965000Y-10945000D01*
X16965000Y-11225000D02*
X16995000Y-11255000D01*
X16995000Y-11225000D02*
X16965000Y-11255000D01*
X16965000Y-11465000D02*
X16995000Y-11495000D01*
X16995000Y-11465000D02*
X16965000Y-11495000D01*
X17020000Y-9990000D02*
X17050000Y-10020000D01*
X17050000Y-9990000D02*
X17020000Y-10020000D01*
X17040000Y-10470000D02*
X17070000Y-10500000D01*
X17070000Y-10470000D02*
X17040000Y-10500000D01*
X17040000Y-10235000D02*
G75*
G02*
X16950000Y-10235000I-45000J0D01*
G01*
X16950000Y-10235000D02*
G75*
G02*
X17040000Y-10235000I45000J0D01*
G01*
X11465000Y-10983000D02*
X11465000Y-11083000D01*
X11415000Y-11033000D02*
X11515000Y-11033000D01*
X11465000Y-11237000D02*
X11465000Y-11337000D01*
X11415000Y-11287000D02*
X11515000Y-11287000D01*
X11465000Y-11491000D02*
X11465000Y-11591000D01*
X11415000Y-11541000D02*
X11515000Y-11541000D01*
X11465000Y-11745000D02*
X11465000Y-11845000D01*
X11415000Y-11795000D02*
X11515000Y-11795000D01*
X11465000Y-11999000D02*
X11465000Y-12099000D01*
X11415000Y-12049000D02*
X11515000Y-12049000D01*
X11465000Y-12253000D02*
X11465000Y-12353000D01*
X11415000Y-12303000D02*
X11515000Y-12303000D01*
D13*
X12650891Y-12393891D02*
X12650891Y-12316109D01*
X12573109Y-12316109D01*
X12573109Y-12393891D01*
X12650891Y-12393891D01*
X13158891Y-12393891D02*
X13158891Y-12316109D01*
X13081109Y-12316109D01*
X13081109Y-12393891D01*
X13158891Y-12393891D01*
X15631391Y-12391391D02*
X15631391Y-12313609D01*
X15553609Y-12313609D01*
X15553609Y-12391391D01*
X15631391Y-12391391D01*
X16139391Y-12391391D02*
X16139391Y-12313609D01*
X16061609Y-12313609D01*
X16061609Y-12391391D01*
X16139391Y-12391391D01*
D11*
X11483077Y-13119184D02*
X11483077Y-12919184D01*
X11483077Y-12919184D02*
X11530696Y-12919184D01*
X11530696Y-12919184D02*
X11559267Y-12928708D01*
X11559267Y-12928708D02*
X11578315Y-12947755D01*
X11578315Y-12947755D02*
X11587839Y-12966803D01*
X11587839Y-12966803D02*
X11597362Y-13004898D01*
X11597362Y-13004898D02*
X11597362Y-13033469D01*
X11597362Y-13033469D02*
X11587839Y-13071565D01*
X11587839Y-13071565D02*
X11578315Y-13090612D01*
X11578315Y-13090612D02*
X11559267Y-13109660D01*
X11559267Y-13109660D02*
X11530696Y-13119184D01*
X11530696Y-13119184D02*
X11483077Y-13119184D01*
X11683077Y-13119184D02*
X11683077Y-12985850D01*
X11683077Y-13023946D02*
X11692601Y-13004898D01*
X11692601Y-13004898D02*
X11702124Y-12995374D01*
X11702124Y-12995374D02*
X11721172Y-12985850D01*
X11721172Y-12985850D02*
X11740220Y-12985850D01*
X11806886Y-13119184D02*
X11806886Y-12985850D01*
X11806886Y-12919184D02*
X11797362Y-12928708D01*
X11797362Y-12928708D02*
X11806886Y-12938231D01*
X11806886Y-12938231D02*
X11816410Y-12928708D01*
X11816410Y-12928708D02*
X11806886Y-12919184D01*
X11806886Y-12919184D02*
X11806886Y-12938231D01*
X11930696Y-13119184D02*
X11911648Y-13109660D01*
X11911648Y-13109660D02*
X11902124Y-13090612D01*
X11902124Y-13090612D02*
X11902124Y-12919184D01*
X12035458Y-13119184D02*
X12016410Y-13109660D01*
X12016410Y-13109660D02*
X12006886Y-13090612D01*
X12006886Y-13090612D02*
X12006886Y-12919184D01*
X12264029Y-13119184D02*
X12264029Y-12919184D01*
X12264029Y-12919184D02*
X12330696Y-13062041D01*
X12330696Y-13062041D02*
X12397362Y-12919184D01*
X12397362Y-12919184D02*
X12397362Y-13119184D01*
X12578315Y-13119184D02*
X12578315Y-13014422D01*
X12578315Y-13014422D02*
X12568791Y-12995374D01*
X12568791Y-12995374D02*
X12549743Y-12985850D01*
X12549743Y-12985850D02*
X12511648Y-12985850D01*
X12511648Y-12985850D02*
X12492601Y-12995374D01*
X12578315Y-13109660D02*
X12559267Y-13119184D01*
X12559267Y-13119184D02*
X12511648Y-13119184D01*
X12511648Y-13119184D02*
X12492601Y-13109660D01*
X12492601Y-13109660D02*
X12483077Y-13090612D01*
X12483077Y-13090612D02*
X12483077Y-13071565D01*
X12483077Y-13071565D02*
X12492601Y-13052517D01*
X12492601Y-13052517D02*
X12511648Y-13042993D01*
X12511648Y-13042993D02*
X12559267Y-13042993D01*
X12559267Y-13042993D02*
X12578315Y-13033469D01*
X12673553Y-12985850D02*
X12673553Y-13185850D01*
X12673553Y-12995374D02*
X12692601Y-12985850D01*
X12692601Y-12985850D02*
X12730696Y-12985850D01*
X12730696Y-12985850D02*
X12749743Y-12995374D01*
X12749743Y-12995374D02*
X12759267Y-13004898D01*
X12759267Y-13004898D02*
X12768791Y-13023946D01*
X12768791Y-13023946D02*
X12768791Y-13081088D01*
X12768791Y-13081088D02*
X12759267Y-13100136D01*
X12759267Y-13100136D02*
X12749743Y-13109660D01*
X12749743Y-13109660D02*
X12730696Y-13119184D01*
X12730696Y-13119184D02*
X12692601Y-13119184D01*
X12692601Y-13119184D02*
X12673553Y-13109660D01*
X12854505Y-13100136D02*
X12864029Y-13109660D01*
X12864029Y-13109660D02*
X12854505Y-13119184D01*
X12854505Y-13119184D02*
X12844982Y-13109660D01*
X12844982Y-13109660D02*
X12854505Y-13100136D01*
X12854505Y-13100136D02*
X12854505Y-13119184D01*
X12854505Y-12995374D02*
X12864029Y-13004898D01*
X12864029Y-13004898D02*
X12854505Y-13014422D01*
X12854505Y-13014422D02*
X12844982Y-13004898D01*
X12844982Y-13004898D02*
X12854505Y-12995374D01*
X12854505Y-12995374D02*
X12854505Y-13014422D01*
D12*
X11192300Y-13432700D02*
X11222300Y-13462700D01*
X11222300Y-13432700D02*
X11192300Y-13462700D01*
D11*
X11521172Y-13339184D02*
X11540220Y-13339184D01*
X11540220Y-13339184D02*
X11559267Y-13348708D01*
X11559267Y-13348708D02*
X11568791Y-13358231D01*
X11568791Y-13358231D02*
X11578315Y-13377279D01*
X11578315Y-13377279D02*
X11587839Y-13415374D01*
X11587839Y-13415374D02*
X11587839Y-13462993D01*
X11587839Y-13462993D02*
X11578315Y-13501088D01*
X11578315Y-13501088D02*
X11568791Y-13520136D01*
X11568791Y-13520136D02*
X11559267Y-13529660D01*
X11559267Y-13529660D02*
X11540220Y-13539184D01*
X11540220Y-13539184D02*
X11521172Y-13539184D01*
X11521172Y-13539184D02*
X11502124Y-13529660D01*
X11502124Y-13529660D02*
X11492601Y-13520136D01*
X11492601Y-13520136D02*
X11483077Y-13501088D01*
X11483077Y-13501088D02*
X11473553Y-13462993D01*
X11473553Y-13462993D02*
X11473553Y-13415374D01*
X11473553Y-13415374D02*
X11483077Y-13377279D01*
X11483077Y-13377279D02*
X11492601Y-13358231D01*
X11492601Y-13358231D02*
X11502124Y-13348708D01*
X11502124Y-13348708D02*
X11521172Y-13339184D01*
X11673553Y-13520136D02*
X11683077Y-13529660D01*
X11683077Y-13529660D02*
X11673553Y-13539184D01*
X11673553Y-13539184D02*
X11664029Y-13529660D01*
X11664029Y-13529660D02*
X11673553Y-13520136D01*
X11673553Y-13520136D02*
X11673553Y-13539184D01*
X11749743Y-13339184D02*
X11873553Y-13339184D01*
X11873553Y-13339184D02*
X11806886Y-13415374D01*
X11806886Y-13415374D02*
X11835458Y-13415374D01*
X11835458Y-13415374D02*
X11854505Y-13424898D01*
X11854505Y-13424898D02*
X11864029Y-13434422D01*
X11864029Y-13434422D02*
X11873553Y-13453469D01*
X11873553Y-13453469D02*
X11873553Y-13501088D01*
X11873553Y-13501088D02*
X11864029Y-13520136D01*
X11864029Y-13520136D02*
X11854505Y-13529660D01*
X11854505Y-13529660D02*
X11835458Y-13539184D01*
X11835458Y-13539184D02*
X11778315Y-13539184D01*
X11778315Y-13539184D02*
X11759267Y-13529660D01*
X11759267Y-13529660D02*
X11749743Y-13520136D01*
X11997362Y-13339184D02*
X12016410Y-13339184D01*
X12016410Y-13339184D02*
X12035458Y-13348708D01*
X12035458Y-13348708D02*
X12044982Y-13358231D01*
X12044982Y-13358231D02*
X12054505Y-13377279D01*
X12054505Y-13377279D02*
X12064029Y-13415374D01*
X12064029Y-13415374D02*
X12064029Y-13462993D01*
X12064029Y-13462993D02*
X12054505Y-13501088D01*
X12054505Y-13501088D02*
X12044982Y-13520136D01*
X12044982Y-13520136D02*
X12035458Y-13529660D01*
X12035458Y-13529660D02*
X12016410Y-13539184D01*
X12016410Y-13539184D02*
X11997362Y-13539184D01*
X11997362Y-13539184D02*
X11978315Y-13529660D01*
X11978315Y-13529660D02*
X11968791Y-13520136D01*
X11968791Y-13520136D02*
X11959267Y-13501088D01*
X11959267Y-13501088D02*
X11949743Y-13462993D01*
X11949743Y-13462993D02*
X11949743Y-13415374D01*
X11949743Y-13415374D02*
X11959267Y-13377279D01*
X11959267Y-13377279D02*
X11968791Y-13358231D01*
X11968791Y-13358231D02*
X11978315Y-13348708D01*
X11978315Y-13348708D02*
X11997362Y-13339184D01*
X12187839Y-13339184D02*
X12206886Y-13339184D01*
X12206886Y-13339184D02*
X12225934Y-13348708D01*
X12225934Y-13348708D02*
X12235458Y-13358231D01*
X12235458Y-13358231D02*
X12244982Y-13377279D01*
X12244982Y-13377279D02*
X12254505Y-13415374D01*
X12254505Y-13415374D02*
X12254505Y-13462993D01*
X12254505Y-13462993D02*
X12244982Y-13501088D01*
X12244982Y-13501088D02*
X12235458Y-13520136D01*
X12235458Y-13520136D02*
X12225934Y-13529660D01*
X12225934Y-13529660D02*
X12206886Y-13539184D01*
X12206886Y-13539184D02*
X12187839Y-13539184D01*
X12187839Y-13539184D02*
X12168791Y-13529660D01*
X12168791Y-13529660D02*
X12159267Y-13520136D01*
X12159267Y-13520136D02*
X12149743Y-13501088D01*
X12149743Y-13501088D02*
X12140220Y-13462993D01*
X12140220Y-13462993D02*
X12140220Y-13415374D01*
X12140220Y-13415374D02*
X12149743Y-13377279D01*
X12149743Y-13377279D02*
X12159267Y-13358231D01*
X12159267Y-13358231D02*
X12168791Y-13348708D01*
X12168791Y-13348708D02*
X12187839Y-13339184D01*
X12340220Y-13539184D02*
X12340220Y-13405850D01*
X12340220Y-13424898D02*
X12349743Y-13415374D01*
X12349743Y-13415374D02*
X12368791Y-13405850D01*
X12368791Y-13405850D02*
X12397363Y-13405850D01*
X12397363Y-13405850D02*
X12416410Y-13415374D01*
X12416410Y-13415374D02*
X12425934Y-13434422D01*
X12425934Y-13434422D02*
X12425934Y-13539184D01*
X12425934Y-13434422D02*
X12435458Y-13415374D01*
X12435458Y-13415374D02*
X12454505Y-13405850D01*
X12454505Y-13405850D02*
X12483077Y-13405850D01*
X12483077Y-13405850D02*
X12502124Y-13415374D01*
X12502124Y-13415374D02*
X12511648Y-13434422D01*
X12511648Y-13434422D02*
X12511648Y-13539184D01*
X12606886Y-13539184D02*
X12606886Y-13405850D01*
X12606886Y-13424898D02*
X12616410Y-13415374D01*
X12616410Y-13415374D02*
X12635458Y-13405850D01*
X12635458Y-13405850D02*
X12664029Y-13405850D01*
X12664029Y-13405850D02*
X12683077Y-13415374D01*
X12683077Y-13415374D02*
X12692601Y-13434422D01*
X12692601Y-13434422D02*
X12692601Y-13539184D01*
X12692601Y-13434422D02*
X12702124Y-13415374D01*
X12702124Y-13415374D02*
X12721172Y-13405850D01*
X12721172Y-13405850D02*
X12749743Y-13405850D01*
X12749743Y-13405850D02*
X12768791Y-13415374D01*
X12768791Y-13415374D02*
X12778315Y-13434422D01*
X12778315Y-13434422D02*
X12778315Y-13539184D01*
X13168791Y-13329660D02*
X12997363Y-13586803D01*
X13425934Y-13339184D02*
X13444982Y-13339184D01*
X13444982Y-13339184D02*
X13464029Y-13348708D01*
X13464029Y-13348708D02*
X13473553Y-13358231D01*
X13473553Y-13358231D02*
X13483077Y-13377279D01*
X13483077Y-13377279D02*
X13492601Y-13415374D01*
X13492601Y-13415374D02*
X13492601Y-13462993D01*
X13492601Y-13462993D02*
X13483077Y-13501088D01*
X13483077Y-13501088D02*
X13473553Y-13520136D01*
X13473553Y-13520136D02*
X13464029Y-13529660D01*
X13464029Y-13529660D02*
X13444982Y-13539184D01*
X13444982Y-13539184D02*
X13425934Y-13539184D01*
X13425934Y-13539184D02*
X13406886Y-13529660D01*
X13406886Y-13529660D02*
X13397363Y-13520136D01*
X13397363Y-13520136D02*
X13387839Y-13501088D01*
X13387839Y-13501088D02*
X13378315Y-13462993D01*
X13378315Y-13462993D02*
X13378315Y-13415374D01*
X13378315Y-13415374D02*
X13387839Y-13377279D01*
X13387839Y-13377279D02*
X13397363Y-13358231D01*
X13397363Y-13358231D02*
X13406886Y-13348708D01*
X13406886Y-13348708D02*
X13425934Y-13339184D01*
X13578315Y-13520136D02*
X13587839Y-13529660D01*
X13587839Y-13529660D02*
X13578315Y-13539184D01*
X13578315Y-13539184D02*
X13568791Y-13529660D01*
X13568791Y-13529660D02*
X13578315Y-13520136D01*
X13578315Y-13520136D02*
X13578315Y-13539184D01*
X13711648Y-13339184D02*
X13730696Y-13339184D01*
X13730696Y-13339184D02*
X13749744Y-13348708D01*
X13749744Y-13348708D02*
X13759267Y-13358231D01*
X13759267Y-13358231D02*
X13768791Y-13377279D01*
X13768791Y-13377279D02*
X13778315Y-13415374D01*
X13778315Y-13415374D02*
X13778315Y-13462993D01*
X13778315Y-13462993D02*
X13768791Y-13501088D01*
X13768791Y-13501088D02*
X13759267Y-13520136D01*
X13759267Y-13520136D02*
X13749744Y-13529660D01*
X13749744Y-13529660D02*
X13730696Y-13539184D01*
X13730696Y-13539184D02*
X13711648Y-13539184D01*
X13711648Y-13539184D02*
X13692601Y-13529660D01*
X13692601Y-13529660D02*
X13683077Y-13520136D01*
X13683077Y-13520136D02*
X13673553Y-13501088D01*
X13673553Y-13501088D02*
X13664029Y-13462993D01*
X13664029Y-13462993D02*
X13664029Y-13415374D01*
X13664029Y-13415374D02*
X13673553Y-13377279D01*
X13673553Y-13377279D02*
X13683077Y-13358231D01*
X13683077Y-13358231D02*
X13692601Y-13348708D01*
X13692601Y-13348708D02*
X13711648Y-13339184D01*
X13968791Y-13539184D02*
X13854506Y-13539184D01*
X13911648Y-13539184D02*
X13911648Y-13339184D01*
X13911648Y-13339184D02*
X13892601Y-13367755D01*
X13892601Y-13367755D02*
X13873553Y-13386803D01*
X13873553Y-13386803D02*
X13854506Y-13396327D01*
X14159267Y-13539184D02*
X14044982Y-13539184D01*
X14102125Y-13539184D02*
X14102125Y-13339184D01*
X14102125Y-13339184D02*
X14083077Y-13367755D01*
X14083077Y-13367755D02*
X14064029Y-13386803D01*
X14064029Y-13386803D02*
X14044982Y-13396327D01*
X14273553Y-13424898D02*
X14254506Y-13415374D01*
X14254506Y-13415374D02*
X14244982Y-13405850D01*
X14244982Y-13405850D02*
X14235458Y-13386803D01*
X14235458Y-13386803D02*
X14235458Y-13377279D01*
X14235458Y-13377279D02*
X14244982Y-13358231D01*
X14244982Y-13358231D02*
X14254506Y-13348708D01*
X14254506Y-13348708D02*
X14273553Y-13339184D01*
X14273553Y-13339184D02*
X14311648Y-13339184D01*
X14311648Y-13339184D02*
X14330696Y-13348708D01*
X14330696Y-13348708D02*
X14340220Y-13358231D01*
X14340220Y-13358231D02*
X14349744Y-13377279D01*
X14349744Y-13377279D02*
X14349744Y-13386803D01*
X14349744Y-13386803D02*
X14340220Y-13405850D01*
X14340220Y-13405850D02*
X14330696Y-13415374D01*
X14330696Y-13415374D02*
X14311648Y-13424898D01*
X14311648Y-13424898D02*
X14273553Y-13424898D01*
X14273553Y-13424898D02*
X14254506Y-13434422D01*
X14254506Y-13434422D02*
X14244982Y-13443946D01*
X14244982Y-13443946D02*
X14235458Y-13462993D01*
X14235458Y-13462993D02*
X14235458Y-13501088D01*
X14235458Y-13501088D02*
X14244982Y-13520136D01*
X14244982Y-13520136D02*
X14254506Y-13529660D01*
X14254506Y-13529660D02*
X14273553Y-13539184D01*
X14273553Y-13539184D02*
X14311648Y-13539184D01*
X14311648Y-13539184D02*
X14330696Y-13529660D01*
X14330696Y-13529660D02*
X14340220Y-13520136D01*
X14340220Y-13520136D02*
X14349744Y-13501088D01*
X14349744Y-13501088D02*
X14349744Y-13462993D01*
X14349744Y-13462993D02*
X14340220Y-13443946D01*
X14340220Y-13443946D02*
X14330696Y-13434422D01*
X14330696Y-13434422D02*
X14311648Y-13424898D01*
X14425934Y-13339184D02*
X14425934Y-13377279D01*
X14502125Y-13339184D02*
X14502125Y-13377279D01*
X14797363Y-13615374D02*
X14787839Y-13605850D01*
X14787839Y-13605850D02*
X14768791Y-13577279D01*
X14768791Y-13577279D02*
X14759268Y-13558231D01*
X14759268Y-13558231D02*
X14749744Y-13529660D01*
X14749744Y-13529660D02*
X14740220Y-13482041D01*
X14740220Y-13482041D02*
X14740220Y-13443946D01*
X14740220Y-13443946D02*
X14749744Y-13396327D01*
X14749744Y-13396327D02*
X14759268Y-13367755D01*
X14759268Y-13367755D02*
X14768791Y-13348708D01*
X14768791Y-13348708D02*
X14787839Y-13320136D01*
X14787839Y-13320136D02*
X14797363Y-13310612D01*
X14978315Y-13539184D02*
X14864029Y-13539184D01*
X14921172Y-13539184D02*
X14921172Y-13339184D01*
X14921172Y-13339184D02*
X14902125Y-13367755D01*
X14902125Y-13367755D02*
X14883077Y-13386803D01*
X14883077Y-13386803D02*
X14864029Y-13396327D01*
X15168791Y-13539184D02*
X15054506Y-13539184D01*
X15111648Y-13539184D02*
X15111648Y-13339184D01*
X15111648Y-13339184D02*
X15092601Y-13367755D01*
X15092601Y-13367755D02*
X15073553Y-13386803D01*
X15073553Y-13386803D02*
X15054506Y-13396327D01*
X15292601Y-13339184D02*
X15311649Y-13339184D01*
X15311649Y-13339184D02*
X15330696Y-13348708D01*
X15330696Y-13348708D02*
X15340220Y-13358231D01*
X15340220Y-13358231D02*
X15349744Y-13377279D01*
X15349744Y-13377279D02*
X15359268Y-13415374D01*
X15359268Y-13415374D02*
X15359268Y-13462993D01*
X15359268Y-13462993D02*
X15349744Y-13501088D01*
X15349744Y-13501088D02*
X15340220Y-13520136D01*
X15340220Y-13520136D02*
X15330696Y-13529660D01*
X15330696Y-13529660D02*
X15311649Y-13539184D01*
X15311649Y-13539184D02*
X15292601Y-13539184D01*
X15292601Y-13539184D02*
X15273553Y-13529660D01*
X15273553Y-13529660D02*
X15264029Y-13520136D01*
X15264029Y-13520136D02*
X15254506Y-13501088D01*
X15254506Y-13501088D02*
X15244982Y-13462993D01*
X15244982Y-13462993D02*
X15244982Y-13415374D01*
X15244982Y-13415374D02*
X15254506Y-13377279D01*
X15254506Y-13377279D02*
X15264029Y-13358231D01*
X15264029Y-13358231D02*
X15273553Y-13348708D01*
X15273553Y-13348708D02*
X15292601Y-13339184D01*
X15597363Y-13539184D02*
X15597363Y-13339184D01*
X15683077Y-13539184D02*
X15683077Y-13434422D01*
X15683077Y-13434422D02*
X15673553Y-13415374D01*
X15673553Y-13415374D02*
X15654506Y-13405850D01*
X15654506Y-13405850D02*
X15625934Y-13405850D01*
X15625934Y-13405850D02*
X15606887Y-13415374D01*
X15606887Y-13415374D02*
X15597363Y-13424898D01*
X15806887Y-13539184D02*
X15787839Y-13529660D01*
X15787839Y-13529660D02*
X15778315Y-13520136D01*
X15778315Y-13520136D02*
X15768791Y-13501088D01*
X15768791Y-13501088D02*
X15768791Y-13443946D01*
X15768791Y-13443946D02*
X15778315Y-13424898D01*
X15778315Y-13424898D02*
X15787839Y-13415374D01*
X15787839Y-13415374D02*
X15806887Y-13405850D01*
X15806887Y-13405850D02*
X15835458Y-13405850D01*
X15835458Y-13405850D02*
X15854506Y-13415374D01*
X15854506Y-13415374D02*
X15864030Y-13424898D01*
X15864030Y-13424898D02*
X15873553Y-13443946D01*
X15873553Y-13443946D02*
X15873553Y-13501088D01*
X15873553Y-13501088D02*
X15864030Y-13520136D01*
X15864030Y-13520136D02*
X15854506Y-13529660D01*
X15854506Y-13529660D02*
X15835458Y-13539184D01*
X15835458Y-13539184D02*
X15806887Y-13539184D01*
X15987839Y-13539184D02*
X15968791Y-13529660D01*
X15968791Y-13529660D02*
X15959268Y-13510612D01*
X15959268Y-13510612D02*
X15959268Y-13339184D01*
X16140220Y-13529660D02*
X16121172Y-13539184D01*
X16121172Y-13539184D02*
X16083077Y-13539184D01*
X16083077Y-13539184D02*
X16064030Y-13529660D01*
X16064030Y-13529660D02*
X16054506Y-13510612D01*
X16054506Y-13510612D02*
X16054506Y-13434422D01*
X16054506Y-13434422D02*
X16064030Y-13415374D01*
X16064030Y-13415374D02*
X16083077Y-13405850D01*
X16083077Y-13405850D02*
X16121172Y-13405850D01*
X16121172Y-13405850D02*
X16140220Y-13415374D01*
X16140220Y-13415374D02*
X16149744Y-13434422D01*
X16149744Y-13434422D02*
X16149744Y-13453469D01*
X16149744Y-13453469D02*
X16054506Y-13472517D01*
X16225934Y-13529660D02*
X16244982Y-13539184D01*
X16244982Y-13539184D02*
X16283077Y-13539184D01*
X16283077Y-13539184D02*
X16302125Y-13529660D01*
X16302125Y-13529660D02*
X16311649Y-13510612D01*
X16311649Y-13510612D02*
X16311649Y-13501088D01*
X16311649Y-13501088D02*
X16302125Y-13482041D01*
X16302125Y-13482041D02*
X16283077Y-13472517D01*
X16283077Y-13472517D02*
X16254506Y-13472517D01*
X16254506Y-13472517D02*
X16235458Y-13462993D01*
X16235458Y-13462993D02*
X16225934Y-13443946D01*
X16225934Y-13443946D02*
X16225934Y-13434422D01*
X16225934Y-13434422D02*
X16235458Y-13415374D01*
X16235458Y-13415374D02*
X16254506Y-13405850D01*
X16254506Y-13405850D02*
X16283077Y-13405850D01*
X16283077Y-13405850D02*
X16302125Y-13415374D01*
X16378315Y-13615374D02*
X16387839Y-13605850D01*
X16387839Y-13605850D02*
X16406887Y-13577279D01*
X16406887Y-13577279D02*
X16416411Y-13558231D01*
X16416411Y-13558231D02*
X16425934Y-13529660D01*
X16425934Y-13529660D02*
X16435458Y-13482041D01*
X16435458Y-13482041D02*
X16435458Y-13443946D01*
X16435458Y-13443946D02*
X16425934Y-13396327D01*
X16425934Y-13396327D02*
X16416411Y-13367755D01*
X16416411Y-13367755D02*
X16406887Y-13348708D01*
X16406887Y-13348708D02*
X16387839Y-13320136D01*
X16387839Y-13320136D02*
X16378315Y-13310612D01*
D12*
X11222300Y-13711700D02*
G75*
G02*
X11132300Y-13711700I-45000J0D01*
G01*
X11132300Y-13711700D02*
G75*
G02*
X11222300Y-13711700I45000J0D01*
G01*
D11*
X11521172Y-13603184D02*
X11540220Y-13603184D01*
X11540220Y-13603184D02*
X11559267Y-13612708D01*
X11559267Y-13612708D02*
X11568791Y-13622231D01*
X11568791Y-13622231D02*
X11578315Y-13641279D01*
X11578315Y-13641279D02*
X11587839Y-13679374D01*
X11587839Y-13679374D02*
X11587839Y-13726993D01*
X11587839Y-13726993D02*
X11578315Y-13765088D01*
X11578315Y-13765088D02*
X11568791Y-13784136D01*
X11568791Y-13784136D02*
X11559267Y-13793660D01*
X11559267Y-13793660D02*
X11540220Y-13803184D01*
X11540220Y-13803184D02*
X11521172Y-13803184D01*
X11521172Y-13803184D02*
X11502124Y-13793660D01*
X11502124Y-13793660D02*
X11492601Y-13784136D01*
X11492601Y-13784136D02*
X11483077Y-13765088D01*
X11483077Y-13765088D02*
X11473553Y-13726993D01*
X11473553Y-13726993D02*
X11473553Y-13679374D01*
X11473553Y-13679374D02*
X11483077Y-13641279D01*
X11483077Y-13641279D02*
X11492601Y-13622231D01*
X11492601Y-13622231D02*
X11502124Y-13612708D01*
X11502124Y-13612708D02*
X11521172Y-13603184D01*
X11673553Y-13784136D02*
X11683077Y-13793660D01*
X11683077Y-13793660D02*
X11673553Y-13803184D01*
X11673553Y-13803184D02*
X11664029Y-13793660D01*
X11664029Y-13793660D02*
X11673553Y-13784136D01*
X11673553Y-13784136D02*
X11673553Y-13803184D01*
X11778315Y-13803184D02*
X11816410Y-13803184D01*
X11816410Y-13803184D02*
X11835458Y-13793660D01*
X11835458Y-13793660D02*
X11844982Y-13784136D01*
X11844982Y-13784136D02*
X11864029Y-13755565D01*
X11864029Y-13755565D02*
X11873553Y-13717469D01*
X11873553Y-13717469D02*
X11873553Y-13641279D01*
X11873553Y-13641279D02*
X11864029Y-13622231D01*
X11864029Y-13622231D02*
X11854505Y-13612708D01*
X11854505Y-13612708D02*
X11835458Y-13603184D01*
X11835458Y-13603184D02*
X11797362Y-13603184D01*
X11797362Y-13603184D02*
X11778315Y-13612708D01*
X11778315Y-13612708D02*
X11768791Y-13622231D01*
X11768791Y-13622231D02*
X11759267Y-13641279D01*
X11759267Y-13641279D02*
X11759267Y-13688898D01*
X11759267Y-13688898D02*
X11768791Y-13707946D01*
X11768791Y-13707946D02*
X11778315Y-13717469D01*
X11778315Y-13717469D02*
X11797362Y-13726993D01*
X11797362Y-13726993D02*
X11835458Y-13726993D01*
X11835458Y-13726993D02*
X11854505Y-13717469D01*
X11854505Y-13717469D02*
X11864029Y-13707946D01*
X11864029Y-13707946D02*
X11873553Y-13688898D01*
X11997362Y-13603184D02*
X12016410Y-13603184D01*
X12016410Y-13603184D02*
X12035458Y-13612708D01*
X12035458Y-13612708D02*
X12044982Y-13622231D01*
X12044982Y-13622231D02*
X12054505Y-13641279D01*
X12054505Y-13641279D02*
X12064029Y-13679374D01*
X12064029Y-13679374D02*
X12064029Y-13726993D01*
X12064029Y-13726993D02*
X12054505Y-13765088D01*
X12054505Y-13765088D02*
X12044982Y-13784136D01*
X12044982Y-13784136D02*
X12035458Y-13793660D01*
X12035458Y-13793660D02*
X12016410Y-13803184D01*
X12016410Y-13803184D02*
X11997362Y-13803184D01*
X11997362Y-13803184D02*
X11978315Y-13793660D01*
X11978315Y-13793660D02*
X11968791Y-13784136D01*
X11968791Y-13784136D02*
X11959267Y-13765088D01*
X11959267Y-13765088D02*
X11949743Y-13726993D01*
X11949743Y-13726993D02*
X11949743Y-13679374D01*
X11949743Y-13679374D02*
X11959267Y-13641279D01*
X11959267Y-13641279D02*
X11968791Y-13622231D01*
X11968791Y-13622231D02*
X11978315Y-13612708D01*
X11978315Y-13612708D02*
X11997362Y-13603184D01*
X12187839Y-13603184D02*
X12206886Y-13603184D01*
X12206886Y-13603184D02*
X12225934Y-13612708D01*
X12225934Y-13612708D02*
X12235458Y-13622231D01*
X12235458Y-13622231D02*
X12244982Y-13641279D01*
X12244982Y-13641279D02*
X12254505Y-13679374D01*
X12254505Y-13679374D02*
X12254505Y-13726993D01*
X12254505Y-13726993D02*
X12244982Y-13765088D01*
X12244982Y-13765088D02*
X12235458Y-13784136D01*
X12235458Y-13784136D02*
X12225934Y-13793660D01*
X12225934Y-13793660D02*
X12206886Y-13803184D01*
X12206886Y-13803184D02*
X12187839Y-13803184D01*
X12187839Y-13803184D02*
X12168791Y-13793660D01*
X12168791Y-13793660D02*
X12159267Y-13784136D01*
X12159267Y-13784136D02*
X12149743Y-13765088D01*
X12149743Y-13765088D02*
X12140220Y-13726993D01*
X12140220Y-13726993D02*
X12140220Y-13679374D01*
X12140220Y-13679374D02*
X12149743Y-13641279D01*
X12149743Y-13641279D02*
X12159267Y-13622231D01*
X12159267Y-13622231D02*
X12168791Y-13612708D01*
X12168791Y-13612708D02*
X12187839Y-13603184D01*
X12340220Y-13803184D02*
X12340220Y-13669850D01*
X12340220Y-13688898D02*
X12349743Y-13679374D01*
X12349743Y-13679374D02*
X12368791Y-13669850D01*
X12368791Y-13669850D02*
X12397363Y-13669850D01*
X12397363Y-13669850D02*
X12416410Y-13679374D01*
X12416410Y-13679374D02*
X12425934Y-13698422D01*
X12425934Y-13698422D02*
X12425934Y-13803184D01*
X12425934Y-13698422D02*
X12435458Y-13679374D01*
X12435458Y-13679374D02*
X12454505Y-13669850D01*
X12454505Y-13669850D02*
X12483077Y-13669850D01*
X12483077Y-13669850D02*
X12502124Y-13679374D01*
X12502124Y-13679374D02*
X12511648Y-13698422D01*
X12511648Y-13698422D02*
X12511648Y-13803184D01*
X12606886Y-13803184D02*
X12606886Y-13669850D01*
X12606886Y-13688898D02*
X12616410Y-13679374D01*
X12616410Y-13679374D02*
X12635458Y-13669850D01*
X12635458Y-13669850D02*
X12664029Y-13669850D01*
X12664029Y-13669850D02*
X12683077Y-13679374D01*
X12683077Y-13679374D02*
X12692601Y-13698422D01*
X12692601Y-13698422D02*
X12692601Y-13803184D01*
X12692601Y-13698422D02*
X12702124Y-13679374D01*
X12702124Y-13679374D02*
X12721172Y-13669850D01*
X12721172Y-13669850D02*
X12749743Y-13669850D01*
X12749743Y-13669850D02*
X12768791Y-13679374D01*
X12768791Y-13679374D02*
X12778315Y-13698422D01*
X12778315Y-13698422D02*
X12778315Y-13803184D01*
X13168791Y-13593660D02*
X12997363Y-13850803D01*
X13425934Y-13603184D02*
X13444982Y-13603184D01*
X13444982Y-13603184D02*
X13464029Y-13612708D01*
X13464029Y-13612708D02*
X13473553Y-13622231D01*
X13473553Y-13622231D02*
X13483077Y-13641279D01*
X13483077Y-13641279D02*
X13492601Y-13679374D01*
X13492601Y-13679374D02*
X13492601Y-13726993D01*
X13492601Y-13726993D02*
X13483077Y-13765088D01*
X13483077Y-13765088D02*
X13473553Y-13784136D01*
X13473553Y-13784136D02*
X13464029Y-13793660D01*
X13464029Y-13793660D02*
X13444982Y-13803184D01*
X13444982Y-13803184D02*
X13425934Y-13803184D01*
X13425934Y-13803184D02*
X13406886Y-13793660D01*
X13406886Y-13793660D02*
X13397363Y-13784136D01*
X13397363Y-13784136D02*
X13387839Y-13765088D01*
X13387839Y-13765088D02*
X13378315Y-13726993D01*
X13378315Y-13726993D02*
X13378315Y-13679374D01*
X13378315Y-13679374D02*
X13387839Y-13641279D01*
X13387839Y-13641279D02*
X13397363Y-13622231D01*
X13397363Y-13622231D02*
X13406886Y-13612708D01*
X13406886Y-13612708D02*
X13425934Y-13603184D01*
X13578315Y-13784136D02*
X13587839Y-13793660D01*
X13587839Y-13793660D02*
X13578315Y-13803184D01*
X13578315Y-13803184D02*
X13568791Y-13793660D01*
X13568791Y-13793660D02*
X13578315Y-13784136D01*
X13578315Y-13784136D02*
X13578315Y-13803184D01*
X13711648Y-13603184D02*
X13730696Y-13603184D01*
X13730696Y-13603184D02*
X13749744Y-13612708D01*
X13749744Y-13612708D02*
X13759267Y-13622231D01*
X13759267Y-13622231D02*
X13768791Y-13641279D01*
X13768791Y-13641279D02*
X13778315Y-13679374D01*
X13778315Y-13679374D02*
X13778315Y-13726993D01*
X13778315Y-13726993D02*
X13768791Y-13765088D01*
X13768791Y-13765088D02*
X13759267Y-13784136D01*
X13759267Y-13784136D02*
X13749744Y-13793660D01*
X13749744Y-13793660D02*
X13730696Y-13803184D01*
X13730696Y-13803184D02*
X13711648Y-13803184D01*
X13711648Y-13803184D02*
X13692601Y-13793660D01*
X13692601Y-13793660D02*
X13683077Y-13784136D01*
X13683077Y-13784136D02*
X13673553Y-13765088D01*
X13673553Y-13765088D02*
X13664029Y-13726993D01*
X13664029Y-13726993D02*
X13664029Y-13679374D01*
X13664029Y-13679374D02*
X13673553Y-13641279D01*
X13673553Y-13641279D02*
X13683077Y-13622231D01*
X13683077Y-13622231D02*
X13692601Y-13612708D01*
X13692601Y-13612708D02*
X13711648Y-13603184D01*
X13844982Y-13603184D02*
X13968791Y-13603184D01*
X13968791Y-13603184D02*
X13902125Y-13679374D01*
X13902125Y-13679374D02*
X13930696Y-13679374D01*
X13930696Y-13679374D02*
X13949744Y-13688898D01*
X13949744Y-13688898D02*
X13959267Y-13698422D01*
X13959267Y-13698422D02*
X13968791Y-13717469D01*
X13968791Y-13717469D02*
X13968791Y-13765088D01*
X13968791Y-13765088D02*
X13959267Y-13784136D01*
X13959267Y-13784136D02*
X13949744Y-13793660D01*
X13949744Y-13793660D02*
X13930696Y-13803184D01*
X13930696Y-13803184D02*
X13873553Y-13803184D01*
X13873553Y-13803184D02*
X13854506Y-13793660D01*
X13854506Y-13793660D02*
X13844982Y-13784136D01*
X14149744Y-13603184D02*
X14054506Y-13603184D01*
X14054506Y-13603184D02*
X14044982Y-13698422D01*
X14044982Y-13698422D02*
X14054506Y-13688898D01*
X14054506Y-13688898D02*
X14073553Y-13679374D01*
X14073553Y-13679374D02*
X14121172Y-13679374D01*
X14121172Y-13679374D02*
X14140220Y-13688898D01*
X14140220Y-13688898D02*
X14149744Y-13698422D01*
X14149744Y-13698422D02*
X14159267Y-13717469D01*
X14159267Y-13717469D02*
X14159267Y-13765088D01*
X14159267Y-13765088D02*
X14149744Y-13784136D01*
X14149744Y-13784136D02*
X14140220Y-13793660D01*
X14140220Y-13793660D02*
X14121172Y-13803184D01*
X14121172Y-13803184D02*
X14073553Y-13803184D01*
X14073553Y-13803184D02*
X14054506Y-13793660D01*
X14054506Y-13793660D02*
X14044982Y-13784136D01*
X14330696Y-13669850D02*
X14330696Y-13803184D01*
X14283077Y-13593660D02*
X14235458Y-13736517D01*
X14235458Y-13736517D02*
X14359267Y-13736517D01*
X14425934Y-13603184D02*
X14425934Y-13641279D01*
X14502125Y-13603184D02*
X14502125Y-13641279D01*
X14797363Y-13879374D02*
X14787839Y-13869850D01*
X14787839Y-13869850D02*
X14768791Y-13841279D01*
X14768791Y-13841279D02*
X14759268Y-13822231D01*
X14759268Y-13822231D02*
X14749744Y-13793660D01*
X14749744Y-13793660D02*
X14740220Y-13746041D01*
X14740220Y-13746041D02*
X14740220Y-13707946D01*
X14740220Y-13707946D02*
X14749744Y-13660327D01*
X14749744Y-13660327D02*
X14759268Y-13631755D01*
X14759268Y-13631755D02*
X14768791Y-13612708D01*
X14768791Y-13612708D02*
X14787839Y-13584136D01*
X14787839Y-13584136D02*
X14797363Y-13574612D01*
X14978315Y-13803184D02*
X14864029Y-13803184D01*
X14921172Y-13803184D02*
X14921172Y-13603184D01*
X14921172Y-13603184D02*
X14902125Y-13631755D01*
X14902125Y-13631755D02*
X14883077Y-13650803D01*
X14883077Y-13650803D02*
X14864029Y-13660327D01*
X15216410Y-13803184D02*
X15216410Y-13603184D01*
X15302125Y-13803184D02*
X15302125Y-13698422D01*
X15302125Y-13698422D02*
X15292601Y-13679374D01*
X15292601Y-13679374D02*
X15273553Y-13669850D01*
X15273553Y-13669850D02*
X15244982Y-13669850D01*
X15244982Y-13669850D02*
X15225934Y-13679374D01*
X15225934Y-13679374D02*
X15216410Y-13688898D01*
X15425934Y-13803184D02*
X15406887Y-13793660D01*
X15406887Y-13793660D02*
X15397363Y-13784136D01*
X15397363Y-13784136D02*
X15387839Y-13765088D01*
X15387839Y-13765088D02*
X15387839Y-13707946D01*
X15387839Y-13707946D02*
X15397363Y-13688898D01*
X15397363Y-13688898D02*
X15406887Y-13679374D01*
X15406887Y-13679374D02*
X15425934Y-13669850D01*
X15425934Y-13669850D02*
X15454506Y-13669850D01*
X15454506Y-13669850D02*
X15473553Y-13679374D01*
X15473553Y-13679374D02*
X15483077Y-13688898D01*
X15483077Y-13688898D02*
X15492601Y-13707946D01*
X15492601Y-13707946D02*
X15492601Y-13765088D01*
X15492601Y-13765088D02*
X15483077Y-13784136D01*
X15483077Y-13784136D02*
X15473553Y-13793660D01*
X15473553Y-13793660D02*
X15454506Y-13803184D01*
X15454506Y-13803184D02*
X15425934Y-13803184D01*
X15606887Y-13803184D02*
X15587839Y-13793660D01*
X15587839Y-13793660D02*
X15578315Y-13774612D01*
X15578315Y-13774612D02*
X15578315Y-13603184D01*
X15759268Y-13793660D02*
X15740220Y-13803184D01*
X15740220Y-13803184D02*
X15702125Y-13803184D01*
X15702125Y-13803184D02*
X15683077Y-13793660D01*
X15683077Y-13793660D02*
X15673553Y-13774612D01*
X15673553Y-13774612D02*
X15673553Y-13698422D01*
X15673553Y-13698422D02*
X15683077Y-13679374D01*
X15683077Y-13679374D02*
X15702125Y-13669850D01*
X15702125Y-13669850D02*
X15740220Y-13669850D01*
X15740220Y-13669850D02*
X15759268Y-13679374D01*
X15759268Y-13679374D02*
X15768791Y-13698422D01*
X15768791Y-13698422D02*
X15768791Y-13717469D01*
X15768791Y-13717469D02*
X15673553Y-13736517D01*
X15835458Y-13879374D02*
X15844982Y-13869850D01*
X15844982Y-13869850D02*
X15864030Y-13841279D01*
X15864030Y-13841279D02*
X15873553Y-13822231D01*
X15873553Y-13822231D02*
X15883077Y-13793660D01*
X15883077Y-13793660D02*
X15892601Y-13746041D01*
X15892601Y-13746041D02*
X15892601Y-13707946D01*
X15892601Y-13707946D02*
X15883077Y-13660327D01*
X15883077Y-13660327D02*
X15873553Y-13631755D01*
X15873553Y-13631755D02*
X15864030Y-13612708D01*
X15864030Y-13612708D02*
X15844982Y-13584136D01*
X15844982Y-13584136D02*
X15835458Y-13574612D01*
D12*
X11172300Y-13925700D02*
X11172300Y-14025700D01*
X11122300Y-13975700D02*
X11222300Y-13975700D01*
D11*
X11587839Y-14067184D02*
X11473553Y-14067184D01*
X11530696Y-14067184D02*
X11530696Y-13867184D01*
X11530696Y-13867184D02*
X11511648Y-13895755D01*
X11511648Y-13895755D02*
X11492601Y-13914803D01*
X11492601Y-13914803D02*
X11473553Y-13924327D01*
X11673553Y-14048136D02*
X11683077Y-14057660D01*
X11683077Y-14057660D02*
X11673553Y-14067184D01*
X11673553Y-14067184D02*
X11664029Y-14057660D01*
X11664029Y-14057660D02*
X11673553Y-14048136D01*
X11673553Y-14048136D02*
X11673553Y-14067184D01*
X11806886Y-13867184D02*
X11825934Y-13867184D01*
X11825934Y-13867184D02*
X11844982Y-13876708D01*
X11844982Y-13876708D02*
X11854505Y-13886231D01*
X11854505Y-13886231D02*
X11864029Y-13905279D01*
X11864029Y-13905279D02*
X11873553Y-13943374D01*
X11873553Y-13943374D02*
X11873553Y-13990993D01*
X11873553Y-13990993D02*
X11864029Y-14029088D01*
X11864029Y-14029088D02*
X11854505Y-14048136D01*
X11854505Y-14048136D02*
X11844982Y-14057660D01*
X11844982Y-14057660D02*
X11825934Y-14067184D01*
X11825934Y-14067184D02*
X11806886Y-14067184D01*
X11806886Y-14067184D02*
X11787839Y-14057660D01*
X11787839Y-14057660D02*
X11778315Y-14048136D01*
X11778315Y-14048136D02*
X11768791Y-14029088D01*
X11768791Y-14029088D02*
X11759267Y-13990993D01*
X11759267Y-13990993D02*
X11759267Y-13943374D01*
X11759267Y-13943374D02*
X11768791Y-13905279D01*
X11768791Y-13905279D02*
X11778315Y-13886231D01*
X11778315Y-13886231D02*
X11787839Y-13876708D01*
X11787839Y-13876708D02*
X11806886Y-13867184D01*
X11997362Y-13867184D02*
X12016410Y-13867184D01*
X12016410Y-13867184D02*
X12035458Y-13876708D01*
X12035458Y-13876708D02*
X12044982Y-13886231D01*
X12044982Y-13886231D02*
X12054505Y-13905279D01*
X12054505Y-13905279D02*
X12064029Y-13943374D01*
X12064029Y-13943374D02*
X12064029Y-13990993D01*
X12064029Y-13990993D02*
X12054505Y-14029088D01*
X12054505Y-14029088D02*
X12044982Y-14048136D01*
X12044982Y-14048136D02*
X12035458Y-14057660D01*
X12035458Y-14057660D02*
X12016410Y-14067184D01*
X12016410Y-14067184D02*
X11997362Y-14067184D01*
X11997362Y-14067184D02*
X11978315Y-14057660D01*
X11978315Y-14057660D02*
X11968791Y-14048136D01*
X11968791Y-14048136D02*
X11959267Y-14029088D01*
X11959267Y-14029088D02*
X11949743Y-13990993D01*
X11949743Y-13990993D02*
X11949743Y-13943374D01*
X11949743Y-13943374D02*
X11959267Y-13905279D01*
X11959267Y-13905279D02*
X11968791Y-13886231D01*
X11968791Y-13886231D02*
X11978315Y-13876708D01*
X11978315Y-13876708D02*
X11997362Y-13867184D01*
X12187839Y-13867184D02*
X12206886Y-13867184D01*
X12206886Y-13867184D02*
X12225934Y-13876708D01*
X12225934Y-13876708D02*
X12235458Y-13886231D01*
X12235458Y-13886231D02*
X12244982Y-13905279D01*
X12244982Y-13905279D02*
X12254505Y-13943374D01*
X12254505Y-13943374D02*
X12254505Y-13990993D01*
X12254505Y-13990993D02*
X12244982Y-14029088D01*
X12244982Y-14029088D02*
X12235458Y-14048136D01*
X12235458Y-14048136D02*
X12225934Y-14057660D01*
X12225934Y-14057660D02*
X12206886Y-14067184D01*
X12206886Y-14067184D02*
X12187839Y-14067184D01*
X12187839Y-14067184D02*
X12168791Y-14057660D01*
X12168791Y-14057660D02*
X12159267Y-14048136D01*
X12159267Y-14048136D02*
X12149743Y-14029088D01*
X12149743Y-14029088D02*
X12140220Y-13990993D01*
X12140220Y-13990993D02*
X12140220Y-13943374D01*
X12140220Y-13943374D02*
X12149743Y-13905279D01*
X12149743Y-13905279D02*
X12159267Y-13886231D01*
X12159267Y-13886231D02*
X12168791Y-13876708D01*
X12168791Y-13876708D02*
X12187839Y-13867184D01*
X12340220Y-14067184D02*
X12340220Y-13933850D01*
X12340220Y-13952898D02*
X12349743Y-13943374D01*
X12349743Y-13943374D02*
X12368791Y-13933850D01*
X12368791Y-13933850D02*
X12397363Y-13933850D01*
X12397363Y-13933850D02*
X12416410Y-13943374D01*
X12416410Y-13943374D02*
X12425934Y-13962422D01*
X12425934Y-13962422D02*
X12425934Y-14067184D01*
X12425934Y-13962422D02*
X12435458Y-13943374D01*
X12435458Y-13943374D02*
X12454505Y-13933850D01*
X12454505Y-13933850D02*
X12483077Y-13933850D01*
X12483077Y-13933850D02*
X12502124Y-13943374D01*
X12502124Y-13943374D02*
X12511648Y-13962422D01*
X12511648Y-13962422D02*
X12511648Y-14067184D01*
X12606886Y-14067184D02*
X12606886Y-13933850D01*
X12606886Y-13952898D02*
X12616410Y-13943374D01*
X12616410Y-13943374D02*
X12635458Y-13933850D01*
X12635458Y-13933850D02*
X12664029Y-13933850D01*
X12664029Y-13933850D02*
X12683077Y-13943374D01*
X12683077Y-13943374D02*
X12692601Y-13962422D01*
X12692601Y-13962422D02*
X12692601Y-14067184D01*
X12692601Y-13962422D02*
X12702124Y-13943374D01*
X12702124Y-13943374D02*
X12721172Y-13933850D01*
X12721172Y-13933850D02*
X12749743Y-13933850D01*
X12749743Y-13933850D02*
X12768791Y-13943374D01*
X12768791Y-13943374D02*
X12778315Y-13962422D01*
X12778315Y-13962422D02*
X12778315Y-14067184D01*
X13168791Y-13857660D02*
X12997363Y-14114803D01*
X13425934Y-13867184D02*
X13444982Y-13867184D01*
X13444982Y-13867184D02*
X13464029Y-13876708D01*
X13464029Y-13876708D02*
X13473553Y-13886231D01*
X13473553Y-13886231D02*
X13483077Y-13905279D01*
X13483077Y-13905279D02*
X13492601Y-13943374D01*
X13492601Y-13943374D02*
X13492601Y-13990993D01*
X13492601Y-13990993D02*
X13483077Y-14029088D01*
X13483077Y-14029088D02*
X13473553Y-14048136D01*
X13473553Y-14048136D02*
X13464029Y-14057660D01*
X13464029Y-14057660D02*
X13444982Y-14067184D01*
X13444982Y-14067184D02*
X13425934Y-14067184D01*
X13425934Y-14067184D02*
X13406886Y-14057660D01*
X13406886Y-14057660D02*
X13397363Y-14048136D01*
X13397363Y-14048136D02*
X13387839Y-14029088D01*
X13387839Y-14029088D02*
X13378315Y-13990993D01*
X13378315Y-13990993D02*
X13378315Y-13943374D01*
X13378315Y-13943374D02*
X13387839Y-13905279D01*
X13387839Y-13905279D02*
X13397363Y-13886231D01*
X13397363Y-13886231D02*
X13406886Y-13876708D01*
X13406886Y-13876708D02*
X13425934Y-13867184D01*
X13578315Y-14048136D02*
X13587839Y-14057660D01*
X13587839Y-14057660D02*
X13578315Y-14067184D01*
X13578315Y-14067184D02*
X13568791Y-14057660D01*
X13568791Y-14057660D02*
X13578315Y-14048136D01*
X13578315Y-14048136D02*
X13578315Y-14067184D01*
X13711648Y-13867184D02*
X13730696Y-13867184D01*
X13730696Y-13867184D02*
X13749744Y-13876708D01*
X13749744Y-13876708D02*
X13759267Y-13886231D01*
X13759267Y-13886231D02*
X13768791Y-13905279D01*
X13768791Y-13905279D02*
X13778315Y-13943374D01*
X13778315Y-13943374D02*
X13778315Y-13990993D01*
X13778315Y-13990993D02*
X13768791Y-14029088D01*
X13768791Y-14029088D02*
X13759267Y-14048136D01*
X13759267Y-14048136D02*
X13749744Y-14057660D01*
X13749744Y-14057660D02*
X13730696Y-14067184D01*
X13730696Y-14067184D02*
X13711648Y-14067184D01*
X13711648Y-14067184D02*
X13692601Y-14057660D01*
X13692601Y-14057660D02*
X13683077Y-14048136D01*
X13683077Y-14048136D02*
X13673553Y-14029088D01*
X13673553Y-14029088D02*
X13664029Y-13990993D01*
X13664029Y-13990993D02*
X13664029Y-13943374D01*
X13664029Y-13943374D02*
X13673553Y-13905279D01*
X13673553Y-13905279D02*
X13683077Y-13886231D01*
X13683077Y-13886231D02*
X13692601Y-13876708D01*
X13692601Y-13876708D02*
X13711648Y-13867184D01*
X13844982Y-13867184D02*
X13968791Y-13867184D01*
X13968791Y-13867184D02*
X13902125Y-13943374D01*
X13902125Y-13943374D02*
X13930696Y-13943374D01*
X13930696Y-13943374D02*
X13949744Y-13952898D01*
X13949744Y-13952898D02*
X13959267Y-13962422D01*
X13959267Y-13962422D02*
X13968791Y-13981469D01*
X13968791Y-13981469D02*
X13968791Y-14029088D01*
X13968791Y-14029088D02*
X13959267Y-14048136D01*
X13959267Y-14048136D02*
X13949744Y-14057660D01*
X13949744Y-14057660D02*
X13930696Y-14067184D01*
X13930696Y-14067184D02*
X13873553Y-14067184D01*
X13873553Y-14067184D02*
X13854506Y-14057660D01*
X13854506Y-14057660D02*
X13844982Y-14048136D01*
X14064029Y-14067184D02*
X14102125Y-14067184D01*
X14102125Y-14067184D02*
X14121172Y-14057660D01*
X14121172Y-14057660D02*
X14130696Y-14048136D01*
X14130696Y-14048136D02*
X14149744Y-14019565D01*
X14149744Y-14019565D02*
X14159267Y-13981469D01*
X14159267Y-13981469D02*
X14159267Y-13905279D01*
X14159267Y-13905279D02*
X14149744Y-13886231D01*
X14149744Y-13886231D02*
X14140220Y-13876708D01*
X14140220Y-13876708D02*
X14121172Y-13867184D01*
X14121172Y-13867184D02*
X14083077Y-13867184D01*
X14083077Y-13867184D02*
X14064029Y-13876708D01*
X14064029Y-13876708D02*
X14054506Y-13886231D01*
X14054506Y-13886231D02*
X14044982Y-13905279D01*
X14044982Y-13905279D02*
X14044982Y-13952898D01*
X14044982Y-13952898D02*
X14054506Y-13971946D01*
X14054506Y-13971946D02*
X14064029Y-13981469D01*
X14064029Y-13981469D02*
X14083077Y-13990993D01*
X14083077Y-13990993D02*
X14121172Y-13990993D01*
X14121172Y-13990993D02*
X14140220Y-13981469D01*
X14140220Y-13981469D02*
X14149744Y-13971946D01*
X14149744Y-13971946D02*
X14159267Y-13952898D01*
X14330696Y-13933850D02*
X14330696Y-14067184D01*
X14283077Y-13857660D02*
X14235458Y-14000517D01*
X14235458Y-14000517D02*
X14359267Y-14000517D01*
X14425934Y-13867184D02*
X14425934Y-13905279D01*
X14502125Y-13867184D02*
X14502125Y-13905279D01*
X14797363Y-14143374D02*
X14787839Y-14133850D01*
X14787839Y-14133850D02*
X14768791Y-14105279D01*
X14768791Y-14105279D02*
X14759268Y-14086231D01*
X14759268Y-14086231D02*
X14749744Y-14057660D01*
X14749744Y-14057660D02*
X14740220Y-14010041D01*
X14740220Y-14010041D02*
X14740220Y-13971946D01*
X14740220Y-13971946D02*
X14749744Y-13924327D01*
X14749744Y-13924327D02*
X14759268Y-13895755D01*
X14759268Y-13895755D02*
X14768791Y-13876708D01*
X14768791Y-13876708D02*
X14787839Y-13848136D01*
X14787839Y-13848136D02*
X14797363Y-13838612D01*
X14959268Y-13867184D02*
X14921172Y-13867184D01*
X14921172Y-13867184D02*
X14902125Y-13876708D01*
X14902125Y-13876708D02*
X14892601Y-13886231D01*
X14892601Y-13886231D02*
X14873553Y-13914803D01*
X14873553Y-13914803D02*
X14864029Y-13952898D01*
X14864029Y-13952898D02*
X14864029Y-14029088D01*
X14864029Y-14029088D02*
X14873553Y-14048136D01*
X14873553Y-14048136D02*
X14883077Y-14057660D01*
X14883077Y-14057660D02*
X14902125Y-14067184D01*
X14902125Y-14067184D02*
X14940220Y-14067184D01*
X14940220Y-14067184D02*
X14959268Y-14057660D01*
X14959268Y-14057660D02*
X14968791Y-14048136D01*
X14968791Y-14048136D02*
X14978315Y-14029088D01*
X14978315Y-14029088D02*
X14978315Y-13981469D01*
X14978315Y-13981469D02*
X14968791Y-13962422D01*
X14968791Y-13962422D02*
X14959268Y-13952898D01*
X14959268Y-13952898D02*
X14940220Y-13943374D01*
X14940220Y-13943374D02*
X14902125Y-13943374D01*
X14902125Y-13943374D02*
X14883077Y-13952898D01*
X14883077Y-13952898D02*
X14873553Y-13962422D01*
X14873553Y-13962422D02*
X14864029Y-13981469D01*
X15216410Y-14067184D02*
X15216410Y-13867184D01*
X15302125Y-14067184D02*
X15302125Y-13962422D01*
X15302125Y-13962422D02*
X15292601Y-13943374D01*
X15292601Y-13943374D02*
X15273553Y-13933850D01*
X15273553Y-13933850D02*
X15244982Y-13933850D01*
X15244982Y-13933850D02*
X15225934Y-13943374D01*
X15225934Y-13943374D02*
X15216410Y-13952898D01*
X15425934Y-14067184D02*
X15406887Y-14057660D01*
X15406887Y-14057660D02*
X15397363Y-14048136D01*
X15397363Y-14048136D02*
X15387839Y-14029088D01*
X15387839Y-14029088D02*
X15387839Y-13971946D01*
X15387839Y-13971946D02*
X15397363Y-13952898D01*
X15397363Y-13952898D02*
X15406887Y-13943374D01*
X15406887Y-13943374D02*
X15425934Y-13933850D01*
X15425934Y-13933850D02*
X15454506Y-13933850D01*
X15454506Y-13933850D02*
X15473553Y-13943374D01*
X15473553Y-13943374D02*
X15483077Y-13952898D01*
X15483077Y-13952898D02*
X15492601Y-13971946D01*
X15492601Y-13971946D02*
X15492601Y-14029088D01*
X15492601Y-14029088D02*
X15483077Y-14048136D01*
X15483077Y-14048136D02*
X15473553Y-14057660D01*
X15473553Y-14057660D02*
X15454506Y-14067184D01*
X15454506Y-14067184D02*
X15425934Y-14067184D01*
X15606887Y-14067184D02*
X15587839Y-14057660D01*
X15587839Y-14057660D02*
X15578315Y-14038612D01*
X15578315Y-14038612D02*
X15578315Y-13867184D01*
X15759268Y-14057660D02*
X15740220Y-14067184D01*
X15740220Y-14067184D02*
X15702125Y-14067184D01*
X15702125Y-14067184D02*
X15683077Y-14057660D01*
X15683077Y-14057660D02*
X15673553Y-14038612D01*
X15673553Y-14038612D02*
X15673553Y-13962422D01*
X15673553Y-13962422D02*
X15683077Y-13943374D01*
X15683077Y-13943374D02*
X15702125Y-13933850D01*
X15702125Y-13933850D02*
X15740220Y-13933850D01*
X15740220Y-13933850D02*
X15759268Y-13943374D01*
X15759268Y-13943374D02*
X15768791Y-13962422D01*
X15768791Y-13962422D02*
X15768791Y-13981469D01*
X15768791Y-13981469D02*
X15673553Y-14000517D01*
X15844982Y-14057660D02*
X15864030Y-14067184D01*
X15864030Y-14067184D02*
X15902125Y-14067184D01*
X15902125Y-14067184D02*
X15921172Y-14057660D01*
X15921172Y-14057660D02*
X15930696Y-14038612D01*
X15930696Y-14038612D02*
X15930696Y-14029088D01*
X15930696Y-14029088D02*
X15921172Y-14010041D01*
X15921172Y-14010041D02*
X15902125Y-14000517D01*
X15902125Y-14000517D02*
X15873553Y-14000517D01*
X15873553Y-14000517D02*
X15854506Y-13990993D01*
X15854506Y-13990993D02*
X15844982Y-13971946D01*
X15844982Y-13971946D02*
X15844982Y-13962422D01*
X15844982Y-13962422D02*
X15854506Y-13943374D01*
X15854506Y-13943374D02*
X15873553Y-13933850D01*
X15873553Y-13933850D02*
X15902125Y-13933850D01*
X15902125Y-13933850D02*
X15921172Y-13943374D01*
X15997363Y-14143374D02*
X16006887Y-14133850D01*
X16006887Y-14133850D02*
X16025934Y-14105279D01*
X16025934Y-14105279D02*
X16035458Y-14086231D01*
X16035458Y-14086231D02*
X16044982Y-14057660D01*
X16044982Y-14057660D02*
X16054506Y-14010041D01*
X16054506Y-14010041D02*
X16054506Y-13971946D01*
X16054506Y-13971946D02*
X16044982Y-13924327D01*
X16044982Y-13924327D02*
X16035458Y-13895755D01*
X16035458Y-13895755D02*
X16025934Y-13876708D01*
X16025934Y-13876708D02*
X16006887Y-13848136D01*
X16006887Y-13848136D02*
X15997363Y-13838612D01*
D13*
X11206191Y-14278591D02*
X11206191Y-14200809D01*
X11128409Y-14200809D01*
X11128409Y-14278591D01*
X11206191Y-14278591D01*
D11*
X11587839Y-14331184D02*
X11473553Y-14331184D01*
X11530696Y-14331184D02*
X11530696Y-14131184D01*
X11530696Y-14131184D02*
X11511648Y-14159755D01*
X11511648Y-14159755D02*
X11492601Y-14178803D01*
X11492601Y-14178803D02*
X11473553Y-14188327D01*
X11673553Y-14312136D02*
X11683077Y-14321660D01*
X11683077Y-14321660D02*
X11673553Y-14331184D01*
X11673553Y-14331184D02*
X11664029Y-14321660D01*
X11664029Y-14321660D02*
X11673553Y-14312136D01*
X11673553Y-14312136D02*
X11673553Y-14331184D01*
X11873553Y-14331184D02*
X11759267Y-14331184D01*
X11816410Y-14331184D02*
X11816410Y-14131184D01*
X11816410Y-14131184D02*
X11797362Y-14159755D01*
X11797362Y-14159755D02*
X11778315Y-14178803D01*
X11778315Y-14178803D02*
X11759267Y-14188327D01*
X11997362Y-14131184D02*
X12016410Y-14131184D01*
X12016410Y-14131184D02*
X12035458Y-14140708D01*
X12035458Y-14140708D02*
X12044982Y-14150231D01*
X12044982Y-14150231D02*
X12054505Y-14169279D01*
X12054505Y-14169279D02*
X12064029Y-14207374D01*
X12064029Y-14207374D02*
X12064029Y-14254993D01*
X12064029Y-14254993D02*
X12054505Y-14293088D01*
X12054505Y-14293088D02*
X12044982Y-14312136D01*
X12044982Y-14312136D02*
X12035458Y-14321660D01*
X12035458Y-14321660D02*
X12016410Y-14331184D01*
X12016410Y-14331184D02*
X11997362Y-14331184D01*
X11997362Y-14331184D02*
X11978315Y-14321660D01*
X11978315Y-14321660D02*
X11968791Y-14312136D01*
X11968791Y-14312136D02*
X11959267Y-14293088D01*
X11959267Y-14293088D02*
X11949743Y-14254993D01*
X11949743Y-14254993D02*
X11949743Y-14207374D01*
X11949743Y-14207374D02*
X11959267Y-14169279D01*
X11959267Y-14169279D02*
X11968791Y-14150231D01*
X11968791Y-14150231D02*
X11978315Y-14140708D01*
X11978315Y-14140708D02*
X11997362Y-14131184D01*
X12187839Y-14131184D02*
X12206886Y-14131184D01*
X12206886Y-14131184D02*
X12225934Y-14140708D01*
X12225934Y-14140708D02*
X12235458Y-14150231D01*
X12235458Y-14150231D02*
X12244982Y-14169279D01*
X12244982Y-14169279D02*
X12254505Y-14207374D01*
X12254505Y-14207374D02*
X12254505Y-14254993D01*
X12254505Y-14254993D02*
X12244982Y-14293088D01*
X12244982Y-14293088D02*
X12235458Y-14312136D01*
X12235458Y-14312136D02*
X12225934Y-14321660D01*
X12225934Y-14321660D02*
X12206886Y-14331184D01*
X12206886Y-14331184D02*
X12187839Y-14331184D01*
X12187839Y-14331184D02*
X12168791Y-14321660D01*
X12168791Y-14321660D02*
X12159267Y-14312136D01*
X12159267Y-14312136D02*
X12149743Y-14293088D01*
X12149743Y-14293088D02*
X12140220Y-14254993D01*
X12140220Y-14254993D02*
X12140220Y-14207374D01*
X12140220Y-14207374D02*
X12149743Y-14169279D01*
X12149743Y-14169279D02*
X12159267Y-14150231D01*
X12159267Y-14150231D02*
X12168791Y-14140708D01*
X12168791Y-14140708D02*
X12187839Y-14131184D01*
X12340220Y-14331184D02*
X12340220Y-14197850D01*
X12340220Y-14216898D02*
X12349743Y-14207374D01*
X12349743Y-14207374D02*
X12368791Y-14197850D01*
X12368791Y-14197850D02*
X12397363Y-14197850D01*
X12397363Y-14197850D02*
X12416410Y-14207374D01*
X12416410Y-14207374D02*
X12425934Y-14226422D01*
X12425934Y-14226422D02*
X12425934Y-14331184D01*
X12425934Y-14226422D02*
X12435458Y-14207374D01*
X12435458Y-14207374D02*
X12454505Y-14197850D01*
X12454505Y-14197850D02*
X12483077Y-14197850D01*
X12483077Y-14197850D02*
X12502124Y-14207374D01*
X12502124Y-14207374D02*
X12511648Y-14226422D01*
X12511648Y-14226422D02*
X12511648Y-14331184D01*
X12606886Y-14331184D02*
X12606886Y-14197850D01*
X12606886Y-14216898D02*
X12616410Y-14207374D01*
X12616410Y-14207374D02*
X12635458Y-14197850D01*
X12635458Y-14197850D02*
X12664029Y-14197850D01*
X12664029Y-14197850D02*
X12683077Y-14207374D01*
X12683077Y-14207374D02*
X12692601Y-14226422D01*
X12692601Y-14226422D02*
X12692601Y-14331184D01*
X12692601Y-14226422D02*
X12702124Y-14207374D01*
X12702124Y-14207374D02*
X12721172Y-14197850D01*
X12721172Y-14197850D02*
X12749743Y-14197850D01*
X12749743Y-14197850D02*
X12768791Y-14207374D01*
X12768791Y-14207374D02*
X12778315Y-14226422D01*
X12778315Y-14226422D02*
X12778315Y-14331184D01*
X13168791Y-14121660D02*
X12997363Y-14378803D01*
X13425934Y-14131184D02*
X13444982Y-14131184D01*
X13444982Y-14131184D02*
X13464029Y-14140708D01*
X13464029Y-14140708D02*
X13473553Y-14150231D01*
X13473553Y-14150231D02*
X13483077Y-14169279D01*
X13483077Y-14169279D02*
X13492601Y-14207374D01*
X13492601Y-14207374D02*
X13492601Y-14254993D01*
X13492601Y-14254993D02*
X13483077Y-14293088D01*
X13483077Y-14293088D02*
X13473553Y-14312136D01*
X13473553Y-14312136D02*
X13464029Y-14321660D01*
X13464029Y-14321660D02*
X13444982Y-14331184D01*
X13444982Y-14331184D02*
X13425934Y-14331184D01*
X13425934Y-14331184D02*
X13406886Y-14321660D01*
X13406886Y-14321660D02*
X13397363Y-14312136D01*
X13397363Y-14312136D02*
X13387839Y-14293088D01*
X13387839Y-14293088D02*
X13378315Y-14254993D01*
X13378315Y-14254993D02*
X13378315Y-14207374D01*
X13378315Y-14207374D02*
X13387839Y-14169279D01*
X13387839Y-14169279D02*
X13397363Y-14150231D01*
X13397363Y-14150231D02*
X13406886Y-14140708D01*
X13406886Y-14140708D02*
X13425934Y-14131184D01*
X13578315Y-14312136D02*
X13587839Y-14321660D01*
X13587839Y-14321660D02*
X13578315Y-14331184D01*
X13578315Y-14331184D02*
X13568791Y-14321660D01*
X13568791Y-14321660D02*
X13578315Y-14312136D01*
X13578315Y-14312136D02*
X13578315Y-14331184D01*
X13711648Y-14131184D02*
X13730696Y-14131184D01*
X13730696Y-14131184D02*
X13749744Y-14140708D01*
X13749744Y-14140708D02*
X13759267Y-14150231D01*
X13759267Y-14150231D02*
X13768791Y-14169279D01*
X13768791Y-14169279D02*
X13778315Y-14207374D01*
X13778315Y-14207374D02*
X13778315Y-14254993D01*
X13778315Y-14254993D02*
X13768791Y-14293088D01*
X13768791Y-14293088D02*
X13759267Y-14312136D01*
X13759267Y-14312136D02*
X13749744Y-14321660D01*
X13749744Y-14321660D02*
X13730696Y-14331184D01*
X13730696Y-14331184D02*
X13711648Y-14331184D01*
X13711648Y-14331184D02*
X13692601Y-14321660D01*
X13692601Y-14321660D02*
X13683077Y-14312136D01*
X13683077Y-14312136D02*
X13673553Y-14293088D01*
X13673553Y-14293088D02*
X13664029Y-14254993D01*
X13664029Y-14254993D02*
X13664029Y-14207374D01*
X13664029Y-14207374D02*
X13673553Y-14169279D01*
X13673553Y-14169279D02*
X13683077Y-14150231D01*
X13683077Y-14150231D02*
X13692601Y-14140708D01*
X13692601Y-14140708D02*
X13711648Y-14131184D01*
X13949744Y-14197850D02*
X13949744Y-14331184D01*
X13902125Y-14121660D02*
X13854506Y-14264517D01*
X13854506Y-14264517D02*
X13978315Y-14264517D01*
X14035458Y-14131184D02*
X14159267Y-14131184D01*
X14159267Y-14131184D02*
X14092601Y-14207374D01*
X14092601Y-14207374D02*
X14121172Y-14207374D01*
X14121172Y-14207374D02*
X14140220Y-14216898D01*
X14140220Y-14216898D02*
X14149744Y-14226422D01*
X14149744Y-14226422D02*
X14159267Y-14245469D01*
X14159267Y-14245469D02*
X14159267Y-14293088D01*
X14159267Y-14293088D02*
X14149744Y-14312136D01*
X14149744Y-14312136D02*
X14140220Y-14321660D01*
X14140220Y-14321660D02*
X14121172Y-14331184D01*
X14121172Y-14331184D02*
X14064029Y-14331184D01*
X14064029Y-14331184D02*
X14044982Y-14321660D01*
X14044982Y-14321660D02*
X14035458Y-14312136D01*
X14225934Y-14131184D02*
X14349744Y-14131184D01*
X14349744Y-14131184D02*
X14283077Y-14207374D01*
X14283077Y-14207374D02*
X14311648Y-14207374D01*
X14311648Y-14207374D02*
X14330696Y-14216898D01*
X14330696Y-14216898D02*
X14340220Y-14226422D01*
X14340220Y-14226422D02*
X14349744Y-14245469D01*
X14349744Y-14245469D02*
X14349744Y-14293088D01*
X14349744Y-14293088D02*
X14340220Y-14312136D01*
X14340220Y-14312136D02*
X14330696Y-14321660D01*
X14330696Y-14321660D02*
X14311648Y-14331184D01*
X14311648Y-14331184D02*
X14254506Y-14331184D01*
X14254506Y-14331184D02*
X14235458Y-14321660D01*
X14235458Y-14321660D02*
X14225934Y-14312136D01*
X14425934Y-14131184D02*
X14425934Y-14169279D01*
X14502125Y-14131184D02*
X14502125Y-14169279D01*
X14797363Y-14407374D02*
X14787839Y-14397850D01*
X14787839Y-14397850D02*
X14768791Y-14369279D01*
X14768791Y-14369279D02*
X14759268Y-14350231D01*
X14759268Y-14350231D02*
X14749744Y-14321660D01*
X14749744Y-14321660D02*
X14740220Y-14274041D01*
X14740220Y-14274041D02*
X14740220Y-14235946D01*
X14740220Y-14235946D02*
X14749744Y-14188327D01*
X14749744Y-14188327D02*
X14759268Y-14159755D01*
X14759268Y-14159755D02*
X14768791Y-14140708D01*
X14768791Y-14140708D02*
X14787839Y-14112136D01*
X14787839Y-14112136D02*
X14797363Y-14102612D01*
X14959268Y-14197850D02*
X14959268Y-14331184D01*
X14911648Y-14121660D02*
X14864029Y-14264517D01*
X14864029Y-14264517D02*
X14987839Y-14264517D01*
X15216410Y-14331184D02*
X15216410Y-14131184D01*
X15302125Y-14331184D02*
X15302125Y-14226422D01*
X15302125Y-14226422D02*
X15292601Y-14207374D01*
X15292601Y-14207374D02*
X15273553Y-14197850D01*
X15273553Y-14197850D02*
X15244982Y-14197850D01*
X15244982Y-14197850D02*
X15225934Y-14207374D01*
X15225934Y-14207374D02*
X15216410Y-14216898D01*
X15425934Y-14331184D02*
X15406887Y-14321660D01*
X15406887Y-14321660D02*
X15397363Y-14312136D01*
X15397363Y-14312136D02*
X15387839Y-14293088D01*
X15387839Y-14293088D02*
X15387839Y-14235946D01*
X15387839Y-14235946D02*
X15397363Y-14216898D01*
X15397363Y-14216898D02*
X15406887Y-14207374D01*
X15406887Y-14207374D02*
X15425934Y-14197850D01*
X15425934Y-14197850D02*
X15454506Y-14197850D01*
X15454506Y-14197850D02*
X15473553Y-14207374D01*
X15473553Y-14207374D02*
X15483077Y-14216898D01*
X15483077Y-14216898D02*
X15492601Y-14235946D01*
X15492601Y-14235946D02*
X15492601Y-14293088D01*
X15492601Y-14293088D02*
X15483077Y-14312136D01*
X15483077Y-14312136D02*
X15473553Y-14321660D01*
X15473553Y-14321660D02*
X15454506Y-14331184D01*
X15454506Y-14331184D02*
X15425934Y-14331184D01*
X15606887Y-14331184D02*
X15587839Y-14321660D01*
X15587839Y-14321660D02*
X15578315Y-14302612D01*
X15578315Y-14302612D02*
X15578315Y-14131184D01*
X15759268Y-14321660D02*
X15740220Y-14331184D01*
X15740220Y-14331184D02*
X15702125Y-14331184D01*
X15702125Y-14331184D02*
X15683077Y-14321660D01*
X15683077Y-14321660D02*
X15673553Y-14302612D01*
X15673553Y-14302612D02*
X15673553Y-14226422D01*
X15673553Y-14226422D02*
X15683077Y-14207374D01*
X15683077Y-14207374D02*
X15702125Y-14197850D01*
X15702125Y-14197850D02*
X15740220Y-14197850D01*
X15740220Y-14197850D02*
X15759268Y-14207374D01*
X15759268Y-14207374D02*
X15768791Y-14226422D01*
X15768791Y-14226422D02*
X15768791Y-14245469D01*
X15768791Y-14245469D02*
X15673553Y-14264517D01*
X15844982Y-14321660D02*
X15864030Y-14331184D01*
X15864030Y-14331184D02*
X15902125Y-14331184D01*
X15902125Y-14331184D02*
X15921172Y-14321660D01*
X15921172Y-14321660D02*
X15930696Y-14302612D01*
X15930696Y-14302612D02*
X15930696Y-14293088D01*
X15930696Y-14293088D02*
X15921172Y-14274041D01*
X15921172Y-14274041D02*
X15902125Y-14264517D01*
X15902125Y-14264517D02*
X15873553Y-14264517D01*
X15873553Y-14264517D02*
X15854506Y-14254993D01*
X15854506Y-14254993D02*
X15844982Y-14235946D01*
X15844982Y-14235946D02*
X15844982Y-14226422D01*
X15844982Y-14226422D02*
X15854506Y-14207374D01*
X15854506Y-14207374D02*
X15873553Y-14197850D01*
X15873553Y-14197850D02*
X15902125Y-14197850D01*
X15902125Y-14197850D02*
X15921172Y-14207374D01*
X15997363Y-14407374D02*
X16006887Y-14397850D01*
X16006887Y-14397850D02*
X16025934Y-14369279D01*
X16025934Y-14369279D02*
X16035458Y-14350231D01*
X16035458Y-14350231D02*
X16044982Y-14321660D01*
X16044982Y-14321660D02*
X16054506Y-14274041D01*
X16054506Y-14274041D02*
X16054506Y-14235946D01*
X16054506Y-14235946D02*
X16044982Y-14188327D01*
X16044982Y-14188327D02*
X16035458Y-14159755D01*
X16035458Y-14159755D02*
X16025934Y-14140708D01*
X16025934Y-14140708D02*
X16006887Y-14112136D01*
X16006887Y-14112136D02*
X15997363Y-14102612D01*
M02*
