%TF.GenerationSoftware,KiCad,Pcbnew,9.0.3*%
%TF.CreationDate,2025-12-18T09:50:51-08:00*%
%TF.ProjectId,stm_temp_v0,73746d5f-7465-46d7-905f-76302e6b6963,rev?*%
%TF.SameCoordinates,Original*%
%TF.FileFunction,Copper,L2,Bot*%
%TF.FilePolarity,Positive*%
%FSLAX46Y46*%
G04 Gerber Fmt 4.6, Leading zero omitted, Abs format (unit mm)*
G04 Created by KiCad (PCBNEW 9.0.3) date 2025-12-18 09:50:51*
%MOMM*%
%LPD*%
G01*
G04 APERTURE LIST*
%TA.AperFunction,SMDPad,CuDef*%
%ADD10R,3.000000X1.200000*%
%TD*%
%TA.AperFunction,ComponentPad*%
%ADD11R,1.650000X1.650000*%
%TD*%
%TA.AperFunction,ComponentPad*%
%ADD12C,1.650000*%
%TD*%
%TA.AperFunction,ComponentPad*%
%ADD13R,1.700000X1.700000*%
%TD*%
%TA.AperFunction,ComponentPad*%
%ADD14C,1.700000*%
%TD*%
%TA.AperFunction,ComponentPad*%
%ADD15C,1.300000*%
%TD*%
%TA.AperFunction,ViaPad*%
%ADD16C,0.600000*%
%TD*%
%TA.AperFunction,Conductor*%
%ADD17C,0.127000*%
%TD*%
G04 APERTURE END LIST*
D10*
%TO.P,U2,16,DIO2*%
%TO.N,unconnected-(U2-DIO2-Pad16)*%
X166650000Y-114850000D03*
%TO.P,U2,15,DIO1*%
%TO.N,unconnected-(U2-DIO1-Pad15)*%
X166650000Y-112850000D03*
%TO.P,U2,14,DIO0*%
%TO.N,/D2*%
X166650000Y-110850000D03*
%TO.P,U2,13,3.3V*%
%TO.N,+3V3*%
X166650000Y-108850000D03*
%TO.P,U2,12,DIO4*%
%TO.N,unconnected-(U2-DIO4-Pad12)*%
X166650000Y-106850000D03*
%TO.P,U2,11,DIO3*%
%TO.N,unconnected-(U2-DIO3-Pad11)*%
X166650000Y-104850000D03*
%TO.P,U2,10,GND*%
%TO.N,GND*%
X166650000Y-102850000D03*
%TO.P,U2,9,ANT*%
%TO.N,Net-(AE2-A)*%
X166650000Y-100850000D03*
%TO.P,U2,8,GND*%
%TO.N,GND*%
X151650000Y-100850000D03*
%TO.P,U2,7,DIO5*%
%TO.N,unconnected-(U2-DIO5-Pad7)*%
X151650000Y-102850000D03*
%TO.P,U2,6,RESET*%
%TO.N,unconnected-(U2-RESET-Pad6)*%
X151650000Y-104850000D03*
%TO.P,U2,5,NSS*%
%TO.N,/SS*%
X151650000Y-106850000D03*
%TO.P,U2,4,SCK*%
%TO.N,/SCK*%
X151650000Y-108850000D03*
%TO.P,U2,3,MOSI*%
%TO.N,/MOSI*%
X151650000Y-110850000D03*
%TO.P,U2,2,MISO*%
%TO.N,/MISO*%
X151650000Y-112850000D03*
%TO.P,U2,1,GND*%
%TO.N,GND*%
X151650000Y-114850000D03*
%TD*%
D11*
%TO.P,P1,1,1*%
%TO.N,Net-(FB1-Pad1)*%
X126120000Y-123550000D03*
D12*
%TO.P,P1,2,2*%
%TO.N,Net-(FB2-Pad1)*%
X131200000Y-123550000D03*
%TD*%
D13*
%TO.P,J5,1,Pin_1*%
%TO.N,GND*%
X114650000Y-110330000D03*
D14*
%TO.P,J5,2,Pin_2*%
%TO.N,unconnected-(J5-Pin_2-Pad2)*%
X114650000Y-112870000D03*
%TO.P,J5,3,Pin_3*%
%TO.N,/VIN*%
X114650000Y-115410000D03*
%TO.P,J5,4,Pin_4*%
%TO.N,/D0_RX*%
X114650000Y-117950000D03*
%TO.P,J5,5,Pin_5*%
%TO.N,/D1_TX*%
X114650000Y-120490000D03*
%TO.P,J5,6,Pin_6*%
%TO.N,Net-(J5-Pin_6)*%
X114650000Y-123030000D03*
%TD*%
D15*
%TO.P,AE2,1,A*%
%TO.N,Net-(AE2-A)*%
X169950000Y-102350000D03*
%TD*%
D11*
%TO.P,P2,1,1*%
%TO.N,Net-(FB3-Pad1)*%
X155925000Y-123525000D03*
D12*
%TO.P,P2,2,2*%
%TO.N,Net-(FB4-Pad1)*%
X161005000Y-123525000D03*
%TD*%
D16*
%TO.N,GND*%
X120150000Y-112400000D03*
%TO.N,+3V3*%
X164300000Y-107800000D03*
%TO.N,/SS*%
X155600000Y-106150000D03*
%TO.N,/T_BEFORE*%
X125550000Y-108100000D03*
X138025000Y-113275000D03*
%TO.N,/SCK*%
X144550000Y-107700000D03*
X142800000Y-110500000D03*
X146400000Y-111000000D03*
%TO.N,+3V3*%
X120750000Y-124350000D03*
X143950000Y-105900000D03*
X121250000Y-122100000D03*
X161600000Y-105450000D03*
%TO.N,GND*%
X149600000Y-123600000D03*
X155500000Y-103100000D03*
X169350000Y-104850000D03*
X165550000Y-119800000D03*
X149600000Y-120750000D03*
X119400000Y-119850000D03*
X142500000Y-102300000D03*
X149600000Y-126100000D03*
X140000000Y-126100000D03*
X146200000Y-123600000D03*
X120150000Y-113500000D03*
X118350000Y-117500000D03*
X126650000Y-100000000D03*
X140000000Y-123600000D03*
X168250000Y-124400000D03*
X165600000Y-121050000D03*
X169800000Y-109300000D03*
X140000000Y-124800000D03*
X146200000Y-126100000D03*
X165600000Y-124300000D03*
X149600000Y-124800000D03*
X145500000Y-101200000D03*
X129100000Y-102450000D03*
X118350000Y-118650000D03*
X125400000Y-114700000D03*
X165650000Y-125550000D03*
X154400000Y-114650000D03*
X142500000Y-101100000D03*
X149600000Y-119550000D03*
X168150000Y-118700000D03*
X169150000Y-100050000D03*
X145500000Y-103700000D03*
X169800000Y-114800000D03*
X170550000Y-104850000D03*
X129750000Y-103600000D03*
X168250000Y-125700000D03*
X129100000Y-101250000D03*
X136650000Y-123600000D03*
X133100000Y-101250000D03*
X169800000Y-106900000D03*
X119400000Y-117450000D03*
X169750000Y-108050000D03*
X143200000Y-120700000D03*
X131000000Y-102400000D03*
X143100000Y-123600000D03*
X135000000Y-101250000D03*
X131000000Y-101250000D03*
X165600000Y-118650000D03*
X145500000Y-102400000D03*
X154850000Y-107150000D03*
X125337500Y-105662500D03*
X168150000Y-119850000D03*
X143100000Y-124800000D03*
X148800000Y-115050000D03*
X149600000Y-122050000D03*
X146200000Y-120800000D03*
X146200000Y-119600000D03*
X170350000Y-100050000D03*
X168150000Y-121150000D03*
X154350000Y-103050000D03*
X139600000Y-115000000D03*
X120150000Y-114750000D03*
X142500000Y-103600000D03*
X141100000Y-114950000D03*
X137550000Y-102500000D03*
X156000000Y-107200000D03*
X139450000Y-102450000D03*
X156750000Y-103050000D03*
X139450000Y-101300000D03*
X157250000Y-107150000D03*
X136650000Y-124800000D03*
X119350000Y-118600000D03*
X168250000Y-123200000D03*
X165650000Y-123150000D03*
X169800000Y-112400000D03*
X135000000Y-102400000D03*
X169750000Y-113550000D03*
X146200000Y-122100000D03*
X137550000Y-101300000D03*
X136650000Y-126100000D03*
X118400000Y-119900000D03*
X129900000Y-106000000D03*
X146200000Y-124800000D03*
X133100000Y-102450000D03*
X143100000Y-126100000D03*
%TO.N,/MOSI*%
X149550000Y-111000000D03*
%TO.N,/D2*%
X137950000Y-114900000D03*
%TO.N,/MISO*%
X135000000Y-107700000D03*
X151650000Y-112850000D03*
X146750000Y-108550000D03*
%TO.N,/PW_GPIO*%
X160100000Y-116084500D03*
X138600000Y-118300000D03*
%TO.N,/RESET*%
X143000000Y-112500000D03*
X135450000Y-118500000D03*
X146350000Y-111750000D03*
%TO.N,/SS*%
X148650000Y-106900000D03*
%TO.N,/D0_RX*%
X134600000Y-113500000D03*
%TO.N,/D1_TX*%
X134700000Y-115550000D03*
%TD*%
D17*
%TO.N,+3V3*%
X165350000Y-108850000D02*
X164300000Y-107800000D01*
X166650000Y-108850000D02*
X165350000Y-108850000D01*
%TO.N,/SS*%
X152350000Y-106150000D02*
X155600000Y-106150000D01*
X151650000Y-106850000D02*
X152350000Y-106150000D01*
%TO.N,+3V3*%
X145658500Y-104191500D02*
X143950000Y-105900000D01*
X145991500Y-103903586D02*
X145703586Y-104191500D01*
X145703586Y-104191500D02*
X145658500Y-104191500D01*
X145991500Y-103900000D02*
X145991500Y-103903586D01*
X160050000Y-103900000D02*
X145991500Y-103900000D01*
X161600000Y-105450000D02*
X160050000Y-103900000D01*
%TO.N,/T_BEFORE*%
X125550000Y-108100000D02*
X130663500Y-113213500D01*
X130663500Y-113213500D02*
X134191414Y-113213500D01*
X137758500Y-113008500D02*
X138025000Y-113275000D01*
X134191414Y-113213500D02*
X134396414Y-113008500D01*
X138150000Y-113400000D02*
X138025000Y-113275000D01*
X134396414Y-113008500D02*
X137758500Y-113008500D01*
%TO.N,/SCK*%
X143300000Y-111000000D02*
X146400000Y-111000000D01*
X146650000Y-109800000D02*
X144550000Y-107700000D01*
X150700000Y-109800000D02*
X146650000Y-109800000D01*
X151650000Y-108850000D02*
X151150000Y-109350000D01*
X151150000Y-109350000D02*
X150700000Y-109800000D01*
X142800000Y-110500000D02*
X143300000Y-111000000D01*
%TO.N,+3V3*%
X121250000Y-122100000D02*
X121250000Y-123700000D01*
X161600000Y-105250000D02*
X161600000Y-105450000D01*
X121250000Y-123700000D02*
X120750000Y-124200000D01*
X120750000Y-124200000D02*
X120750000Y-124350000D01*
%TO.N,GND*%
X148800000Y-115050000D02*
X149750000Y-115050000D01*
X149950000Y-114850000D02*
X151650000Y-114850000D01*
X149750000Y-115050000D02*
X149950000Y-114850000D01*
%TO.N,/MOSI*%
X149700000Y-110850000D02*
X149550000Y-111000000D01*
X151650000Y-110850000D02*
X149700000Y-110850000D01*
%TO.N,/D2*%
X146433487Y-114250000D02*
X146613487Y-114430000D01*
X146613487Y-114430000D02*
X147284513Y-114430000D01*
X147464513Y-114250000D02*
X148465487Y-114250000D01*
X148465487Y-114250000D02*
X148645487Y-114430000D01*
X138600000Y-114250000D02*
X146433487Y-114250000D01*
X163375500Y-113641500D02*
X166167000Y-110850000D01*
X166167000Y-110850000D02*
X166650000Y-110850000D01*
X147284513Y-114430000D02*
X147464513Y-114250000D01*
X137950000Y-114900000D02*
X138600000Y-114250000D01*
X149316513Y-114430000D02*
X150105013Y-113641500D01*
X150105013Y-113641500D02*
X163375500Y-113641500D01*
X148645487Y-114430000D02*
X149316513Y-114430000D01*
%TO.N,/MISO*%
X146750000Y-108300000D02*
X146750000Y-108550000D01*
X147450000Y-107600000D02*
X146750000Y-108300000D01*
X153341500Y-112058500D02*
X153341500Y-108058500D01*
X152924500Y-107641500D02*
X149958500Y-107641500D01*
X149958500Y-107600000D02*
X147450000Y-107600000D01*
X135000000Y-107700000D02*
X135491500Y-107208500D01*
X145408500Y-107208500D02*
X146750000Y-108550000D01*
X152550000Y-112850000D02*
X153341500Y-112058500D01*
X149958500Y-107641500D02*
X149958500Y-107600000D01*
X151650000Y-112850000D02*
X152550000Y-112850000D01*
X135491500Y-107208500D02*
X145408500Y-107208500D01*
X153341500Y-108058500D02*
X152924500Y-107641500D01*
%TO.N,/PW_GPIO*%
X138600000Y-118300000D02*
X157884500Y-118300000D01*
X157884500Y-118300000D02*
X160100000Y-116084500D01*
%TO.N,/RESET*%
X135450000Y-118500000D02*
X135450000Y-116704914D01*
X143000000Y-112500000D02*
X143750000Y-111750000D01*
X139654914Y-112500000D02*
X143000000Y-112500000D01*
X143750000Y-111750000D02*
X146350000Y-111750000D01*
X135450000Y-116704914D02*
X139654914Y-112500000D01*
%TO.N,/SS*%
X148950000Y-106900000D02*
X149000000Y-106850000D01*
X148650000Y-106900000D02*
X148950000Y-106900000D01*
X149000000Y-106850000D02*
X151650000Y-106850000D01*
%TO.N,/D0_RX*%
X116541500Y-116058500D02*
X132041500Y-116058500D01*
X132041500Y-116058500D02*
X134600000Y-113500000D01*
X114650000Y-117950000D02*
X116541500Y-116058500D01*
%TO.N,/D1_TX*%
X130760000Y-120490000D02*
X114650000Y-120490000D01*
X134700000Y-115550000D02*
X134700000Y-116550000D01*
X134700000Y-116550000D02*
X130760000Y-120490000D01*
%TO.N,Net-(AE2-A)*%
X168450000Y-100850000D02*
X169950000Y-102350000D01*
X166650000Y-100850000D02*
X168450000Y-100850000D01*
%TD*%
%TA.AperFunction,Conductor*%
%TO.N,GND*%
G36*
X133867361Y-115132767D02*
G01*
X133923294Y-115174639D01*
X133947711Y-115240103D01*
X133938590Y-115296397D01*
X133930264Y-115316499D01*
X133930261Y-115316510D01*
X133899500Y-115471153D01*
X133899500Y-115628846D01*
X133930261Y-115783489D01*
X133930264Y-115783501D01*
X133990602Y-115929172D01*
X133990609Y-115929185D01*
X134078209Y-116060287D01*
X134078210Y-116060288D01*
X134078211Y-116060289D01*
X134099681Y-116081759D01*
X134114387Y-116108691D01*
X134130977Y-116134505D01*
X134131868Y-116140703D01*
X134133166Y-116143080D01*
X134135999Y-116169434D01*
X134136000Y-116169440D01*
X134136000Y-116265022D01*
X134116315Y-116332061D01*
X134099681Y-116352703D01*
X130562703Y-119889681D01*
X130501380Y-119923166D01*
X130475022Y-119926000D01*
X115954316Y-119926000D01*
X115887277Y-119906315D01*
X115843831Y-119858294D01*
X115805050Y-119782182D01*
X115680109Y-119610213D01*
X115529786Y-119459890D01*
X115357820Y-119334951D01*
X115357115Y-119334591D01*
X115349054Y-119330485D01*
X115298259Y-119282512D01*
X115281463Y-119214692D01*
X115303999Y-119148556D01*
X115349054Y-119109515D01*
X115357816Y-119105051D01*
X115406425Y-119069735D01*
X115529786Y-118980109D01*
X115529788Y-118980106D01*
X115529792Y-118980104D01*
X115680104Y-118829792D01*
X115680106Y-118829788D01*
X115680109Y-118829786D01*
X115805048Y-118657820D01*
X115805047Y-118657820D01*
X115805051Y-118657816D01*
X115901557Y-118468412D01*
X115967246Y-118266243D01*
X116000500Y-118056287D01*
X116000500Y-117843713D01*
X115967246Y-117633757D01*
X115940847Y-117552513D01*
X115938853Y-117482675D01*
X115971096Y-117426518D01*
X116738797Y-116658819D01*
X116800120Y-116625334D01*
X116826478Y-116622500D01*
X132115751Y-116622500D01*
X132115753Y-116622500D01*
X132259196Y-116584065D01*
X132266158Y-116580045D01*
X132292128Y-116565052D01*
X132292129Y-116565051D01*
X132292131Y-116565050D01*
X132387804Y-116509813D01*
X132492813Y-116404804D01*
X132492813Y-116404802D01*
X132503017Y-116394599D01*
X132503020Y-116394594D01*
X133736349Y-115161266D01*
X133797669Y-115127783D01*
X133867361Y-115132767D01*
G37*
%TD.AperFunction*%
%TA.AperFunction,Conductor*%
G36*
X170992539Y-99520185D02*
G01*
X171038294Y-99572989D01*
X171049500Y-99624500D01*
X171049500Y-101524349D01*
X171029815Y-101591388D01*
X170977011Y-101637143D01*
X170907853Y-101647087D01*
X170844297Y-101618062D01*
X170831206Y-101603800D01*
X170830725Y-101604212D01*
X170827554Y-101600500D01*
X170699499Y-101472445D01*
X170699494Y-101472441D01*
X170552997Y-101366006D01*
X170552996Y-101366005D01*
X170552994Y-101366004D01*
X170501300Y-101339664D01*
X170391639Y-101283788D01*
X170391636Y-101283787D01*
X170219410Y-101227829D01*
X170040551Y-101199500D01*
X170040546Y-101199500D01*
X169859454Y-101199500D01*
X169859449Y-101199500D01*
X169695388Y-101225485D01*
X169626095Y-101216531D01*
X169588309Y-101190693D01*
X168908383Y-100510767D01*
X168908381Y-100510764D01*
X168796306Y-100398689D01*
X168796304Y-100398687D01*
X168751154Y-100372620D01*
X168712498Y-100350301D01*
X168664283Y-100299733D01*
X168650499Y-100242914D01*
X168650499Y-100202129D01*
X168650498Y-100202123D01*
X168650497Y-100202116D01*
X168644091Y-100142517D01*
X168593884Y-100007906D01*
X168593797Y-100007671D01*
X168593793Y-100007664D01*
X168507547Y-99892455D01*
X168507544Y-99892452D01*
X168392335Y-99806206D01*
X168392328Y-99806202D01*
X168257482Y-99755908D01*
X168257483Y-99755908D01*
X168197883Y-99749501D01*
X168197881Y-99749500D01*
X168197873Y-99749500D01*
X168197864Y-99749500D01*
X165102129Y-99749500D01*
X165102123Y-99749501D01*
X165042516Y-99755908D01*
X164907671Y-99806202D01*
X164907664Y-99806206D01*
X164792455Y-99892452D01*
X164792452Y-99892455D01*
X164706206Y-100007664D01*
X164706202Y-100007671D01*
X164655908Y-100142517D01*
X164649501Y-100202116D01*
X164649501Y-100202123D01*
X164649500Y-100202135D01*
X164649500Y-101497870D01*
X164649501Y-101497876D01*
X164655908Y-101557483D01*
X164706202Y-101692328D01*
X164706204Y-101692331D01*
X164749001Y-101749501D01*
X164768917Y-101776104D01*
X164793335Y-101841569D01*
X164778484Y-101909842D01*
X164768918Y-101924727D01*
X164706647Y-102007910D01*
X164706645Y-102007913D01*
X164656403Y-102142620D01*
X164656401Y-102142627D01*
X164650000Y-102202155D01*
X164650000Y-102600000D01*
X168661325Y-102600000D01*
X168697695Y-102580139D01*
X168767387Y-102585122D01*
X168823321Y-102626992D01*
X168841987Y-102662987D01*
X168883787Y-102791636D01*
X168883788Y-102791639D01*
X168966006Y-102952997D01*
X169072441Y-103099494D01*
X169072445Y-103099499D01*
X169200500Y-103227554D01*
X169200505Y-103227558D01*
X169322670Y-103316315D01*
X169347006Y-103333996D01*
X169452484Y-103387740D01*
X169508360Y-103416211D01*
X169508363Y-103416212D01*
X169594476Y-103444191D01*
X169680591Y-103472171D01*
X169763429Y-103485291D01*
X169859449Y-103500500D01*
X169859454Y-103500500D01*
X170040551Y-103500500D01*
X170127259Y-103486765D01*
X170219409Y-103472171D01*
X170391639Y-103416211D01*
X170552994Y-103333996D01*
X170699501Y-103227553D01*
X170827553Y-103099501D01*
X170827558Y-103099494D01*
X170830725Y-103095788D01*
X170832398Y-103097217D01*
X170880445Y-103060125D01*
X170950055Y-103054106D01*
X171011869Y-103086676D01*
X171046261Y-103147495D01*
X171049500Y-103175650D01*
X171049500Y-127325500D01*
X171029815Y-127392539D01*
X170977011Y-127438294D01*
X170925500Y-127449500D01*
X112974500Y-127449500D01*
X112907461Y-127429815D01*
X112861706Y-127377011D01*
X112850500Y-127325500D01*
X112850500Y-112763713D01*
X113299500Y-112763713D01*
X113299500Y-112976287D01*
X113304885Y-113010288D01*
X113329407Y-113165115D01*
X113332754Y-113186243D01*
X113394668Y-113376795D01*
X113398444Y-113388414D01*
X113494951Y-113577820D01*
X113619890Y-113749786D01*
X113770213Y-113900109D01*
X113942182Y-114025050D01*
X113950946Y-114029516D01*
X114001742Y-114077491D01*
X114018536Y-114145312D01*
X113995998Y-114211447D01*
X113950946Y-114250484D01*
X113942182Y-114254949D01*
X113770213Y-114379890D01*
X113619890Y-114530213D01*
X113494951Y-114702179D01*
X113398444Y-114891585D01*
X113332753Y-115093760D01*
X113326459Y-115133501D01*
X113299500Y-115303713D01*
X113299500Y-115516287D01*
X113302137Y-115532935D01*
X113328676Y-115700500D01*
X113332754Y-115726243D01*
X113373293Y-115851010D01*
X113398444Y-115928414D01*
X113494951Y-116117820D01*
X113619890Y-116289786D01*
X113770213Y-116440109D01*
X113942182Y-116565050D01*
X113950946Y-116569516D01*
X114001742Y-116617491D01*
X114018536Y-116685312D01*
X113995998Y-116751447D01*
X113950946Y-116790484D01*
X113942182Y-116794949D01*
X113770213Y-116919890D01*
X113619890Y-117070213D01*
X113494951Y-117242179D01*
X113398444Y-117431585D01*
X113332753Y-117633760D01*
X113319678Y-117716315D01*
X113299500Y-117843713D01*
X113299500Y-118056287D01*
X113332754Y-118266243D01*
X113383089Y-118421158D01*
X113398444Y-118468414D01*
X113494951Y-118657820D01*
X113619890Y-118829786D01*
X113770213Y-118980109D01*
X113942182Y-119105050D01*
X113950946Y-119109516D01*
X114001742Y-119157491D01*
X114018536Y-119225312D01*
X113995998Y-119291447D01*
X113950946Y-119330484D01*
X113942182Y-119334949D01*
X113770213Y-119459890D01*
X113619890Y-119610213D01*
X113494951Y-119782179D01*
X113398444Y-119971585D01*
X113332753Y-120173760D01*
X113299500Y-120383713D01*
X113299500Y-120596287D01*
X113332754Y-120806243D01*
X113376641Y-120941313D01*
X113398443Y-121008412D01*
X113494951Y-121197820D01*
X113619890Y-121369786D01*
X113770213Y-121520109D01*
X113942182Y-121645050D01*
X113950946Y-121649516D01*
X114001742Y-121697491D01*
X114018536Y-121765312D01*
X113995998Y-121831447D01*
X113950946Y-121870484D01*
X113942182Y-121874949D01*
X113770213Y-121999890D01*
X113619890Y-122150213D01*
X113494951Y-122322179D01*
X113398444Y-122511585D01*
X113332753Y-122713760D01*
X113314297Y-122830286D01*
X113299500Y-122923713D01*
X113299500Y-123136287D01*
X113332754Y-123346243D01*
X113376039Y-123479461D01*
X113398444Y-123548414D01*
X113494951Y-123737820D01*
X113619890Y-123909786D01*
X113770213Y-124060109D01*
X113942179Y-124185048D01*
X113942181Y-124185049D01*
X113942184Y-124185051D01*
X114131588Y-124281557D01*
X114333757Y-124347246D01*
X114543713Y-124380500D01*
X114543714Y-124380500D01*
X114756286Y-124380500D01*
X114756287Y-124380500D01*
X114966243Y-124347246D01*
X115168412Y-124281557D01*
X115188831Y-124271153D01*
X119949500Y-124271153D01*
X119949500Y-124428846D01*
X119980261Y-124583489D01*
X119980264Y-124583501D01*
X120040602Y-124729172D01*
X120040609Y-124729185D01*
X120128210Y-124860288D01*
X120128213Y-124860292D01*
X120239707Y-124971786D01*
X120239711Y-124971789D01*
X120370814Y-125059390D01*
X120370827Y-125059397D01*
X120516498Y-125119735D01*
X120516503Y-125119737D01*
X120671153Y-125150499D01*
X120671156Y-125150500D01*
X120671158Y-125150500D01*
X120828844Y-125150500D01*
X120828845Y-125150499D01*
X120983497Y-125119737D01*
X121129179Y-125059394D01*
X121260289Y-124971789D01*
X121371789Y-124860289D01*
X121459394Y-124729179D01*
X121519737Y-124583497D01*
X121550500Y-124428842D01*
X121550500Y-124271158D01*
X121550500Y-124271155D01*
X121549903Y-124265093D01*
X121551279Y-124264957D01*
X121549079Y-124259059D01*
X121554920Y-124232204D01*
X121557367Y-124204828D01*
X121562620Y-124196810D01*
X121563931Y-124190786D01*
X121585079Y-124162535D01*
X121586094Y-124161521D01*
X121586099Y-124161517D01*
X121596302Y-124151313D01*
X121596304Y-124151313D01*
X121701313Y-124046304D01*
X121775565Y-123917696D01*
X121790921Y-123860389D01*
X121791985Y-123856419D01*
X121800043Y-123826343D01*
X121814001Y-123774252D01*
X121814001Y-123625747D01*
X121814001Y-123618152D01*
X121814000Y-123618134D01*
X121814000Y-122719440D01*
X121821640Y-122693418D01*
X121824176Y-122677135D01*
X124794500Y-122677135D01*
X124794501Y-124422868D01*
X124794501Y-124422876D01*
X124800908Y-124482483D01*
X124851202Y-124617328D01*
X124851206Y-124617335D01*
X124937452Y-124732544D01*
X124937455Y-124732547D01*
X125052664Y-124818793D01*
X125052671Y-124818797D01*
X125187517Y-124869091D01*
X125187516Y-124869091D01*
X125194444Y-124869835D01*
X125247127Y-124875500D01*
X126992872Y-124875499D01*
X127052483Y-124869091D01*
X127187331Y-124818796D01*
X127302546Y-124732546D01*
X127388796Y-124617331D01*
X127439091Y-124482483D01*
X127445500Y-124422873D01*
X127445499Y-123445675D01*
X129874500Y-123445675D01*
X129874500Y-123654324D01*
X129907137Y-123860389D01*
X129971612Y-124058820D01*
X130041922Y-124196810D01*
X130066330Y-124244714D01*
X130188965Y-124413505D01*
X130336495Y-124561035D01*
X130505286Y-124683670D01*
X130552142Y-124707544D01*
X130691179Y-124778387D01*
X130691181Y-124778387D01*
X130691184Y-124778389D01*
X130738593Y-124793793D01*
X130889610Y-124842862D01*
X131095676Y-124875500D01*
X131095681Y-124875500D01*
X131304324Y-124875500D01*
X131510389Y-124842862D01*
X131708816Y-124778389D01*
X131894714Y-124683670D01*
X132063505Y-124561035D01*
X132211035Y-124413505D01*
X132333670Y-124244714D01*
X132428389Y-124058816D01*
X132492862Y-123860389D01*
X132512275Y-123737820D01*
X132525500Y-123654324D01*
X132525500Y-123445675D01*
X132492862Y-123239610D01*
X132428387Y-123041179D01*
X132333669Y-122855285D01*
X132315506Y-122830286D01*
X132236606Y-122721691D01*
X132236606Y-122721689D01*
X132211039Y-122686501D01*
X132211035Y-122686495D01*
X132176675Y-122652135D01*
X154599500Y-122652135D01*
X154599500Y-124397870D01*
X154599501Y-124397876D01*
X154605908Y-124457483D01*
X154656202Y-124592328D01*
X154656206Y-124592335D01*
X154742452Y-124707544D01*
X154742455Y-124707547D01*
X154857664Y-124793793D01*
X154857671Y-124793797D01*
X154992517Y-124844091D01*
X154992516Y-124844091D01*
X154999444Y-124844835D01*
X155052127Y-124850500D01*
X156797872Y-124850499D01*
X156857483Y-124844091D01*
X156992331Y-124793796D01*
X157107546Y-124707546D01*
X157193796Y-124592331D01*
X157244091Y-124457483D01*
X157250500Y-124397873D01*
X157250499Y-123420675D01*
X159679500Y-123420675D01*
X159679500Y-123629324D01*
X159712137Y-123835389D01*
X159776612Y-124033820D01*
X159859660Y-124196810D01*
X159871330Y-124219714D01*
X159993965Y-124388505D01*
X160141495Y-124536035D01*
X160310286Y-124658670D01*
X160359350Y-124683669D01*
X160496179Y-124753387D01*
X160496181Y-124753387D01*
X160496184Y-124753389D01*
X160573120Y-124778387D01*
X160694610Y-124817862D01*
X160900676Y-124850500D01*
X160900681Y-124850500D01*
X161109324Y-124850500D01*
X161315389Y-124817862D01*
X161513816Y-124753389D01*
X161699714Y-124658670D01*
X161868505Y-124536035D01*
X162016035Y-124388505D01*
X162138670Y-124219714D01*
X162233389Y-124033816D01*
X162297862Y-123835389D01*
X162307545Y-123774251D01*
X162330500Y-123629324D01*
X162330500Y-123420675D01*
X162297862Y-123214610D01*
X162233387Y-123016179D01*
X162151408Y-122855286D01*
X162138670Y-122830286D01*
X162016035Y-122661495D01*
X161868505Y-122513965D01*
X161699714Y-122391330D01*
X161513820Y-122296612D01*
X161315389Y-122232137D01*
X161109324Y-122199500D01*
X161109319Y-122199500D01*
X160900681Y-122199500D01*
X160900676Y-122199500D01*
X160694610Y-122232137D01*
X160496179Y-122296612D01*
X160310285Y-122391330D01*
X160141493Y-122513966D01*
X159993966Y-122661493D01*
X159871330Y-122830285D01*
X159776612Y-123016179D01*
X159712137Y-123214610D01*
X159679500Y-123420675D01*
X157250499Y-123420675D01*
X157250499Y-122652128D01*
X157244091Y-122592517D01*
X157224117Y-122538965D01*
X157193797Y-122457671D01*
X157193793Y-122457664D01*
X157107547Y-122342455D01*
X157107544Y-122342452D01*
X156992335Y-122256206D01*
X156992328Y-122256202D01*
X156857482Y-122205908D01*
X156857483Y-122205908D01*
X156797883Y-122199501D01*
X156797881Y-122199500D01*
X156797873Y-122199500D01*
X156797864Y-122199500D01*
X155052129Y-122199500D01*
X155052123Y-122199501D01*
X154992516Y-122205908D01*
X154857671Y-122256202D01*
X154857664Y-122256206D01*
X154742455Y-122342452D01*
X154742452Y-122342455D01*
X154656206Y-122457664D01*
X154656202Y-122457671D01*
X154605908Y-122592517D01*
X154601690Y-122631757D01*
X154599501Y-122652123D01*
X154599500Y-122652135D01*
X132176675Y-122652135D01*
X132063505Y-122538965D01*
X131894714Y-122416330D01*
X131708820Y-122321612D01*
X131510389Y-122257137D01*
X131304324Y-122224500D01*
X131304319Y-122224500D01*
X131095681Y-122224500D01*
X131095676Y-122224500D01*
X130889610Y-122257137D01*
X130691179Y-122321612D01*
X130505285Y-122416330D01*
X130336493Y-122538966D01*
X130188966Y-122686493D01*
X130066330Y-122855285D01*
X129971612Y-123041179D01*
X129907137Y-123239610D01*
X129874500Y-123445675D01*
X127445499Y-123445675D01*
X127445499Y-122677128D01*
X127439091Y-122617517D01*
X127436394Y-122610287D01*
X127388797Y-122482671D01*
X127388793Y-122482664D01*
X127302547Y-122367455D01*
X127302544Y-122367452D01*
X127187335Y-122281206D01*
X127187328Y-122281202D01*
X127052482Y-122230908D01*
X127052483Y-122230908D01*
X126992883Y-122224501D01*
X126992881Y-122224500D01*
X126992873Y-122224500D01*
X126992864Y-122224500D01*
X125247129Y-122224500D01*
X125247123Y-122224501D01*
X125187516Y-122230908D01*
X125052671Y-122281202D01*
X125052664Y-122281206D01*
X124937455Y-122367452D01*
X124937452Y-122367455D01*
X124851206Y-122482664D01*
X124851202Y-122482671D01*
X124800908Y-122617517D01*
X124795473Y-122668078D01*
X124794501Y-122677123D01*
X124794500Y-122677135D01*
X121824176Y-122677135D01*
X121825813Y-122666619D01*
X121832162Y-122657587D01*
X121833685Y-122652401D01*
X121845239Y-122637152D01*
X121847698Y-122634379D01*
X121871789Y-122610289D01*
X121959394Y-122479179D01*
X122019737Y-122333497D01*
X122050500Y-122178842D01*
X122050500Y-122021158D01*
X122050500Y-122021155D01*
X122050499Y-122021153D01*
X122046271Y-121999896D01*
X122019737Y-121866503D01*
X122019735Y-121866498D01*
X121959397Y-121720827D01*
X121959390Y-121720814D01*
X121871789Y-121589711D01*
X121871786Y-121589707D01*
X121760292Y-121478213D01*
X121760288Y-121478210D01*
X121629185Y-121390609D01*
X121629172Y-121390602D01*
X121483501Y-121330264D01*
X121483491Y-121330261D01*
X121341413Y-121302000D01*
X121341410Y-121302000D01*
X121328842Y-121299500D01*
X121171158Y-121299500D01*
X121158590Y-121302000D01*
X121158587Y-121302000D01*
X121016508Y-121330261D01*
X121016498Y-121330264D01*
X120870827Y-121390602D01*
X120870814Y-121390609D01*
X120739711Y-121478210D01*
X120739707Y-121478213D01*
X120628213Y-121589707D01*
X120628210Y-121589711D01*
X120540609Y-121720814D01*
X120540602Y-121720827D01*
X120480264Y-121866498D01*
X120480261Y-121866510D01*
X120449500Y-122021153D01*
X120449500Y-122178846D01*
X120480261Y-122333489D01*
X120480264Y-122333501D01*
X120540602Y-122479172D01*
X120540609Y-122479185D01*
X120628209Y-122610287D01*
X120628210Y-122610288D01*
X120628211Y-122610289D01*
X120649681Y-122631759D01*
X120683166Y-122693080D01*
X120686000Y-122719440D01*
X120686000Y-123415020D01*
X120677354Y-123444464D01*
X120670831Y-123474448D01*
X120667077Y-123479461D01*
X120666315Y-123482059D01*
X120649680Y-123502702D01*
X120612526Y-123539855D01*
X120551202Y-123573340D01*
X120549040Y-123573790D01*
X120516505Y-123580262D01*
X120516500Y-123580263D01*
X120370827Y-123640602D01*
X120370814Y-123640609D01*
X120239711Y-123728210D01*
X120239707Y-123728213D01*
X120128213Y-123839707D01*
X120128210Y-123839711D01*
X120040609Y-123970814D01*
X120040602Y-123970827D01*
X119980264Y-124116498D01*
X119980261Y-124116510D01*
X119949500Y-124271153D01*
X115188831Y-124271153D01*
X115357816Y-124185051D01*
X115404253Y-124151313D01*
X115529786Y-124060109D01*
X115529788Y-124060106D01*
X115529792Y-124060104D01*
X115680104Y-123909792D01*
X115680106Y-123909788D01*
X115680109Y-123909786D01*
X115805048Y-123737820D01*
X115805047Y-123737820D01*
X115805051Y-123737816D01*
X115901557Y-123548412D01*
X115967246Y-123346243D01*
X116000500Y-123136287D01*
X116000500Y-122923713D01*
X115967246Y-122713757D01*
X115901557Y-122511588D01*
X115805051Y-122322184D01*
X115805049Y-122322181D01*
X115805048Y-122322179D01*
X115680109Y-122150213D01*
X115529786Y-121999890D01*
X115357820Y-121874951D01*
X115357115Y-121874591D01*
X115349054Y-121870485D01*
X115298259Y-121822512D01*
X115281463Y-121754692D01*
X115303999Y-121688556D01*
X115349054Y-121649515D01*
X115357816Y-121645051D01*
X115433991Y-121589707D01*
X115529786Y-121520109D01*
X115529788Y-121520106D01*
X115529792Y-121520104D01*
X115680104Y-121369792D01*
X115680106Y-121369788D01*
X115680109Y-121369786D01*
X115805050Y-121197817D01*
X115843831Y-121121706D01*
X115891805Y-121070909D01*
X115954316Y-121054000D01*
X130834251Y-121054000D01*
X130834253Y-121054000D01*
X130977696Y-121015565D01*
X130990085Y-121008412D01*
X131106304Y-120941313D01*
X131211313Y-120836304D01*
X131211313Y-120836302D01*
X131221517Y-120826099D01*
X131221520Y-120826094D01*
X134674321Y-117373294D01*
X134735642Y-117339811D01*
X134805334Y-117344795D01*
X134861267Y-117386667D01*
X134885684Y-117452131D01*
X134886000Y-117460977D01*
X134886000Y-117880559D01*
X134866315Y-117947598D01*
X134849681Y-117968240D01*
X134828213Y-117989707D01*
X134828210Y-117989711D01*
X134740609Y-118120814D01*
X134740602Y-118120827D01*
X134680264Y-118266498D01*
X134680261Y-118266510D01*
X134649500Y-118421153D01*
X134649500Y-118578846D01*
X134680261Y-118733489D01*
X134680264Y-118733501D01*
X134740602Y-118879172D01*
X134740609Y-118879185D01*
X134828210Y-119010288D01*
X134828213Y-119010292D01*
X134939707Y-119121786D01*
X134939711Y-119121789D01*
X135070814Y-119209390D01*
X135070827Y-119209397D01*
X135216498Y-119269735D01*
X135216503Y-119269737D01*
X135325646Y-119291447D01*
X135371153Y-119300499D01*
X135371156Y-119300500D01*
X135371158Y-119300500D01*
X135528844Y-119300500D01*
X135528845Y-119300499D01*
X135683497Y-119269737D01*
X135803574Y-119220000D01*
X135829172Y-119209397D01*
X135829172Y-119209396D01*
X135829179Y-119209394D01*
X135960289Y-119121789D01*
X136071789Y-119010289D01*
X136159394Y-118879179D01*
X136219737Y-118733497D01*
X136250500Y-118578842D01*
X136250500Y-118421158D01*
X136250500Y-118421155D01*
X136250499Y-118421153D01*
X136219737Y-118266503D01*
X136200953Y-118221153D01*
X137799500Y-118221153D01*
X137799500Y-118378846D01*
X137830261Y-118533489D01*
X137830264Y-118533501D01*
X137890602Y-118679172D01*
X137890609Y-118679185D01*
X137978210Y-118810288D01*
X137978213Y-118810292D01*
X138089707Y-118921786D01*
X138089711Y-118921789D01*
X138220814Y-119009390D01*
X138220827Y-119009397D01*
X138366498Y-119069735D01*
X138366503Y-119069737D01*
X138521153Y-119100499D01*
X138521156Y-119100500D01*
X138521158Y-119100500D01*
X138678844Y-119100500D01*
X138678845Y-119100499D01*
X138833497Y-119069737D01*
X138979179Y-119009394D01*
X139110289Y-118921789D01*
X139110292Y-118921786D01*
X139131760Y-118900319D01*
X139193083Y-118866834D01*
X139219441Y-118864000D01*
X157958751Y-118864000D01*
X157958753Y-118864000D01*
X158102196Y-118825565D01*
X158230804Y-118751313D01*
X158335813Y-118646304D01*
X158335813Y-118646302D01*
X158346017Y-118636099D01*
X158346020Y-118636094D01*
X160060797Y-116921319D01*
X160122120Y-116887834D01*
X160148478Y-116885000D01*
X160178844Y-116885000D01*
X160178845Y-116884999D01*
X160333497Y-116854237D01*
X160479179Y-116793894D01*
X160610289Y-116706289D01*
X160721789Y-116594789D01*
X160809394Y-116463679D01*
X160869737Y-116317997D01*
X160900500Y-116163342D01*
X160900500Y-116005658D01*
X160900500Y-116005655D01*
X160900499Y-116005653D01*
X160878249Y-115893796D01*
X160869737Y-115851003D01*
X160841777Y-115783501D01*
X160809397Y-115705327D01*
X160809390Y-115705314D01*
X160721789Y-115574211D01*
X160721786Y-115574207D01*
X160610292Y-115462713D01*
X160610288Y-115462710D01*
X160479185Y-115375109D01*
X160479172Y-115375102D01*
X160333501Y-115314764D01*
X160333489Y-115314761D01*
X160178845Y-115284000D01*
X160178842Y-115284000D01*
X160021158Y-115284000D01*
X160021155Y-115284000D01*
X159866510Y-115314761D01*
X159866498Y-115314764D01*
X159720827Y-115375102D01*
X159720814Y-115375109D01*
X159589711Y-115462710D01*
X159589707Y-115462713D01*
X159478213Y-115574207D01*
X159478210Y-115574211D01*
X159390609Y-115705314D01*
X159390602Y-115705327D01*
X159330264Y-115850998D01*
X159330261Y-115851010D01*
X159299500Y-116005653D01*
X159299500Y-116036022D01*
X159279815Y-116103061D01*
X159263181Y-116123703D01*
X157687203Y-117699681D01*
X157625880Y-117733166D01*
X157599522Y-117736000D01*
X139219441Y-117736000D01*
X139152402Y-117716315D01*
X139131760Y-117699681D01*
X139110292Y-117678213D01*
X139110288Y-117678210D01*
X138979185Y-117590609D01*
X138979172Y-117590602D01*
X138833501Y-117530264D01*
X138833489Y-117530261D01*
X138678845Y-117499500D01*
X138678842Y-117499500D01*
X138521158Y-117499500D01*
X138521155Y-117499500D01*
X138366510Y-117530261D01*
X138366498Y-117530264D01*
X138220827Y-117590602D01*
X138220814Y-117590609D01*
X138089711Y-117678210D01*
X138089707Y-117678213D01*
X137978213Y-117789707D01*
X137978210Y-117789711D01*
X137890609Y-117920814D01*
X137890602Y-117920827D01*
X137830264Y-118066498D01*
X137830261Y-118066510D01*
X137799500Y-118221153D01*
X136200953Y-118221153D01*
X136159397Y-118120827D01*
X136159390Y-118120814D01*
X136071789Y-117989711D01*
X136071786Y-117989707D01*
X136050319Y-117968240D01*
X136016834Y-117906917D01*
X136014000Y-117880559D01*
X136014000Y-116989892D01*
X136033685Y-116922853D01*
X136050319Y-116902211D01*
X136687508Y-116265022D01*
X137362377Y-115590152D01*
X137423698Y-115556669D01*
X137493390Y-115561653D01*
X137518947Y-115574733D01*
X137570821Y-115609394D01*
X137570823Y-115609395D01*
X137570827Y-115609397D01*
X137624781Y-115631745D01*
X137716503Y-115669737D01*
X137871153Y-115700499D01*
X137871156Y-115700500D01*
X137871158Y-115700500D01*
X138028844Y-115700500D01*
X138028845Y-115700499D01*
X138183497Y-115669737D01*
X138329179Y-115609394D01*
X138460289Y-115521789D01*
X138571789Y-115410289D01*
X138659394Y-115279179D01*
X138719737Y-115133497D01*
X138750500Y-114978842D01*
X138750500Y-114948478D01*
X138759144Y-114919037D01*
X138765668Y-114889051D01*
X138769422Y-114884035D01*
X138770185Y-114881439D01*
X138786819Y-114860797D01*
X138797297Y-114850319D01*
X138858620Y-114816834D01*
X138884978Y-114814000D01*
X146148508Y-114814000D01*
X146215547Y-114833685D01*
X146236189Y-114850319D01*
X146267183Y-114881313D01*
X146341983Y-114924499D01*
X146395786Y-114955563D01*
X146395790Y-114955565D01*
X146539234Y-114994000D01*
X146539235Y-114994000D01*
X146539236Y-114994000D01*
X147358764Y-114994000D01*
X147358766Y-114994000D01*
X147502209Y-114955565D01*
X147630817Y-114881313D01*
X147661811Y-114850319D01*
X147723134Y-114816834D01*
X147749492Y-114814000D01*
X148180508Y-114814000D01*
X148247547Y-114833685D01*
X148252569Y-114837088D01*
X148260924Y-114843054D01*
X148299183Y-114881313D01*
X148373983Y-114924499D01*
X148379174Y-114927496D01*
X148427786Y-114955563D01*
X148427790Y-114955565D01*
X148571234Y-114994000D01*
X148571235Y-114994000D01*
X148571236Y-114994000D01*
X149390763Y-114994000D01*
X149390766Y-114994000D01*
X149493909Y-114966363D01*
X149563756Y-114968026D01*
X149621619Y-115007188D01*
X149649123Y-115071417D01*
X149650000Y-115086138D01*
X149650000Y-115497844D01*
X149656401Y-115557372D01*
X149656403Y-115557379D01*
X149706645Y-115692086D01*
X149706649Y-115692093D01*
X149792809Y-115807187D01*
X149792812Y-115807190D01*
X149907906Y-115893350D01*
X149907913Y-115893354D01*
X150042620Y-115943596D01*
X150042627Y-115943598D01*
X150102155Y-115949999D01*
X150102172Y-115950000D01*
X151400000Y-115950000D01*
X151900000Y-115950000D01*
X153197828Y-115950000D01*
X153197844Y-115949999D01*
X153257372Y-115943598D01*
X153257379Y-115943596D01*
X153392086Y-115893354D01*
X153392093Y-115893350D01*
X153507187Y-115807190D01*
X153507190Y-115807187D01*
X153593350Y-115692093D01*
X153593354Y-115692086D01*
X153643596Y-115557379D01*
X153643598Y-115557372D01*
X153649999Y-115497844D01*
X153650000Y-115497827D01*
X153650000Y-115100000D01*
X151900000Y-115100000D01*
X151900000Y-115950000D01*
X151400000Y-115950000D01*
X151400000Y-114974000D01*
X151419685Y-114906961D01*
X151472489Y-114861206D01*
X151524000Y-114850000D01*
X151650000Y-114850000D01*
X151650000Y-114724000D01*
X151669685Y-114656961D01*
X151722489Y-114611206D01*
X151774000Y-114600000D01*
X153650000Y-114600000D01*
X153650000Y-114329500D01*
X153669685Y-114262461D01*
X153722489Y-114216706D01*
X153774000Y-114205500D01*
X163449751Y-114205500D01*
X163449753Y-114205500D01*
X163593196Y-114167065D01*
X163608130Y-114158443D01*
X163635713Y-114142518D01*
X163635714Y-114142517D01*
X163635716Y-114142516D01*
X163721804Y-114092813D01*
X163826813Y-113987804D01*
X163826813Y-113987802D01*
X163837017Y-113977599D01*
X163837021Y-113977594D01*
X164437821Y-113376793D01*
X164499142Y-113343310D01*
X164568834Y-113348294D01*
X164624767Y-113390166D01*
X164649184Y-113455630D01*
X164649500Y-113464473D01*
X164649500Y-113497868D01*
X164649501Y-113497876D01*
X164655908Y-113557483D01*
X164706202Y-113692328D01*
X164706203Y-113692330D01*
X164768606Y-113775689D01*
X164793023Y-113841153D01*
X164778172Y-113909426D01*
X164768606Y-113924311D01*
X164706203Y-114007669D01*
X164706202Y-114007671D01*
X164655908Y-114142517D01*
X164649501Y-114202116D01*
X164649501Y-114202123D01*
X164649500Y-114202135D01*
X164649500Y-115497870D01*
X164649501Y-115497876D01*
X164655908Y-115557483D01*
X164706202Y-115692328D01*
X164706206Y-115692335D01*
X164792452Y-115807544D01*
X164792455Y-115807547D01*
X164907664Y-115893793D01*
X164907671Y-115893797D01*
X165042517Y-115944091D01*
X165042516Y-115944091D01*
X165049444Y-115944835D01*
X165102127Y-115950500D01*
X168197872Y-115950499D01*
X168257483Y-115944091D01*
X168392331Y-115893796D01*
X168507546Y-115807546D01*
X168593796Y-115692331D01*
X168644091Y-115557483D01*
X168650500Y-115497873D01*
X168650499Y-114202128D01*
X168645299Y-114153757D01*
X168644091Y-114142516D01*
X168593797Y-114007671D01*
X168593796Y-114007669D01*
X168531394Y-113924311D01*
X168506977Y-113858847D01*
X168521828Y-113790574D01*
X168531394Y-113775689D01*
X168593796Y-113692331D01*
X168644091Y-113557483D01*
X168650500Y-113497873D01*
X168650499Y-112202128D01*
X168644091Y-112142517D01*
X168640449Y-112132753D01*
X168593797Y-112007671D01*
X168593796Y-112007669D01*
X168544746Y-111942147D01*
X168531393Y-111924310D01*
X168506977Y-111858847D01*
X168521828Y-111790574D01*
X168531394Y-111775689D01*
X168535851Y-111769735D01*
X168593796Y-111692331D01*
X168644091Y-111557483D01*
X168650500Y-111497873D01*
X168650499Y-110202128D01*
X168644091Y-110142517D01*
X168638058Y-110126343D01*
X168593797Y-110007671D01*
X168593796Y-110007669D01*
X168531394Y-109924311D01*
X168506977Y-109858847D01*
X168521828Y-109790574D01*
X168531394Y-109775689D01*
X168565400Y-109730263D01*
X168593796Y-109692331D01*
X168644091Y-109557483D01*
X168650500Y-109497873D01*
X168650499Y-108202128D01*
X168644091Y-108142517D01*
X168620467Y-108079179D01*
X168593797Y-108007671D01*
X168593796Y-108007669D01*
X168550999Y-107950500D01*
X168531393Y-107924310D01*
X168506977Y-107858847D01*
X168521828Y-107790574D01*
X168531394Y-107775689D01*
X168572216Y-107721158D01*
X168593796Y-107692331D01*
X168644091Y-107557483D01*
X168650500Y-107497873D01*
X168650499Y-106202128D01*
X168644091Y-106142517D01*
X168640728Y-106133501D01*
X168593797Y-106007671D01*
X168593796Y-106007669D01*
X168572216Y-105978842D01*
X168531393Y-105924310D01*
X168506977Y-105858847D01*
X168521828Y-105790574D01*
X168531394Y-105775689D01*
X168535038Y-105770821D01*
X168593796Y-105692331D01*
X168644091Y-105557483D01*
X168650500Y-105497873D01*
X168650499Y-104202128D01*
X168644091Y-104142517D01*
X168593796Y-104007669D01*
X168531081Y-103923893D01*
X168506664Y-103858431D01*
X168521515Y-103790158D01*
X168531082Y-103775271D01*
X168593352Y-103692089D01*
X168593354Y-103692086D01*
X168643596Y-103557379D01*
X168643598Y-103557372D01*
X168649999Y-103497844D01*
X168650000Y-103497827D01*
X168650000Y-103100000D01*
X164650000Y-103100000D01*
X164650000Y-103497844D01*
X164656401Y-103557372D01*
X164656403Y-103557379D01*
X164706645Y-103692086D01*
X164706646Y-103692088D01*
X164768918Y-103775272D01*
X164793335Y-103840736D01*
X164778484Y-103909009D01*
X164768918Y-103923894D01*
X164706204Y-104007669D01*
X164706202Y-104007671D01*
X164655908Y-104142517D01*
X164649501Y-104202116D01*
X164649501Y-104202123D01*
X164649500Y-104202135D01*
X164649500Y-105497870D01*
X164649501Y-105497876D01*
X164655908Y-105557483D01*
X164706202Y-105692328D01*
X164706203Y-105692330D01*
X164706204Y-105692331D01*
X164764956Y-105770814D01*
X164768606Y-105775689D01*
X164793023Y-105841153D01*
X164778172Y-105909426D01*
X164768606Y-105924311D01*
X164706203Y-106007669D01*
X164706202Y-106007671D01*
X164655908Y-106142517D01*
X164650738Y-106190609D01*
X164649501Y-106202123D01*
X164649500Y-106202135D01*
X164649500Y-106902242D01*
X164629815Y-106969281D01*
X164577011Y-107015036D01*
X164507853Y-107024980D01*
X164501309Y-107023859D01*
X164378846Y-106999500D01*
X164378842Y-106999500D01*
X164221158Y-106999500D01*
X164221155Y-106999500D01*
X164066510Y-107030261D01*
X164066498Y-107030264D01*
X163920827Y-107090602D01*
X163920814Y-107090609D01*
X163789711Y-107178210D01*
X163789707Y-107178213D01*
X163678213Y-107289707D01*
X163678210Y-107289711D01*
X163590609Y-107420814D01*
X163590602Y-107420827D01*
X163530264Y-107566498D01*
X163530261Y-107566510D01*
X163499500Y-107721153D01*
X163499500Y-107878846D01*
X163530261Y-108033489D01*
X163530264Y-108033501D01*
X163590602Y-108179172D01*
X163590609Y-108179185D01*
X163678210Y-108310288D01*
X163678213Y-108310292D01*
X163789707Y-108421786D01*
X163789711Y-108421789D01*
X163920814Y-108509390D01*
X163920827Y-108509397D01*
X163987031Y-108536819D01*
X164066503Y-108569737D01*
X164221153Y-108600499D01*
X164221156Y-108600500D01*
X164221158Y-108600500D01*
X164251522Y-108600500D01*
X164318561Y-108620185D01*
X164339203Y-108636819D01*
X164613181Y-108910797D01*
X164646666Y-108972120D01*
X164649500Y-108998478D01*
X164649500Y-109497870D01*
X164649501Y-109497876D01*
X164655908Y-109557483D01*
X164706202Y-109692328D01*
X164706203Y-109692330D01*
X164768606Y-109775689D01*
X164793023Y-109841153D01*
X164778172Y-109909426D01*
X164768606Y-109924311D01*
X164706203Y-110007669D01*
X164706202Y-110007671D01*
X164655908Y-110142517D01*
X164650155Y-110196035D01*
X164649501Y-110202123D01*
X164649500Y-110202135D01*
X164649500Y-111497870D01*
X164649501Y-111497880D01*
X164650150Y-111503917D01*
X164637738Y-111572675D01*
X164614540Y-111604842D01*
X163178203Y-113041181D01*
X163116880Y-113074666D01*
X163090522Y-113077500D01*
X153774500Y-113077500D01*
X153707461Y-113057815D01*
X153661706Y-113005011D01*
X153650500Y-112953500D01*
X153650499Y-112598479D01*
X153670183Y-112531440D01*
X153686818Y-112510797D01*
X153687801Y-112509814D01*
X153687804Y-112509813D01*
X153792813Y-112404804D01*
X153867065Y-112276196D01*
X153886911Y-112202128D01*
X153905500Y-112132753D01*
X153905500Y-111984247D01*
X153905500Y-107984248D01*
X153896457Y-107950500D01*
X153867065Y-107840804D01*
X153853724Y-107817697D01*
X153792813Y-107712196D01*
X153687804Y-107607187D01*
X153687803Y-107607186D01*
X153685458Y-107604841D01*
X153651974Y-107543518D01*
X153649851Y-107503905D01*
X153650500Y-107497873D01*
X153650499Y-106837999D01*
X153670183Y-106770961D01*
X153722987Y-106725206D01*
X153774499Y-106714000D01*
X154980559Y-106714000D01*
X155047598Y-106733685D01*
X155068240Y-106750319D01*
X155089707Y-106771786D01*
X155089711Y-106771789D01*
X155220814Y-106859390D01*
X155220827Y-106859397D01*
X155317646Y-106899500D01*
X155366503Y-106919737D01*
X155521153Y-106950499D01*
X155521156Y-106950500D01*
X155521158Y-106950500D01*
X155678844Y-106950500D01*
X155678845Y-106950499D01*
X155833497Y-106919737D01*
X155972306Y-106862241D01*
X155979172Y-106859397D01*
X155979172Y-106859396D01*
X155979179Y-106859394D01*
X156110289Y-106771789D01*
X156221789Y-106660289D01*
X156309394Y-106529179D01*
X156312854Y-106520827D01*
X156367163Y-106389711D01*
X156369737Y-106383497D01*
X156400500Y-106228842D01*
X156400500Y-106071158D01*
X156400500Y-106071155D01*
X156400499Y-106071153D01*
X156369737Y-105916503D01*
X156346663Y-105860796D01*
X156309397Y-105770827D01*
X156309390Y-105770814D01*
X156221789Y-105639711D01*
X156221786Y-105639707D01*
X156110292Y-105528213D01*
X156110288Y-105528210D01*
X155979185Y-105440609D01*
X155979172Y-105440602D01*
X155833501Y-105380264D01*
X155833489Y-105380261D01*
X155678845Y-105349500D01*
X155678842Y-105349500D01*
X155521158Y-105349500D01*
X155521155Y-105349500D01*
X155366510Y-105380261D01*
X155366498Y-105380264D01*
X155220827Y-105440602D01*
X155220814Y-105440609D01*
X155089711Y-105528210D01*
X155089707Y-105528213D01*
X155068240Y-105549681D01*
X155006917Y-105583166D01*
X154980559Y-105586000D01*
X153774500Y-105586000D01*
X153707461Y-105566315D01*
X153661706Y-105513511D01*
X153650500Y-105462000D01*
X153650499Y-104588000D01*
X153670183Y-104520961D01*
X153722987Y-104475206D01*
X153774499Y-104464000D01*
X159765022Y-104464000D01*
X159832061Y-104483685D01*
X159852703Y-104500319D01*
X160763181Y-105410797D01*
X160796666Y-105472120D01*
X160799500Y-105498478D01*
X160799500Y-105528846D01*
X160830261Y-105683489D01*
X160830264Y-105683501D01*
X160890602Y-105829172D01*
X160890609Y-105829185D01*
X160978210Y-105960288D01*
X160978213Y-105960292D01*
X161089707Y-106071786D01*
X161089711Y-106071789D01*
X161220814Y-106159390D01*
X161220827Y-106159397D01*
X161366498Y-106219735D01*
X161366503Y-106219737D01*
X161521153Y-106250499D01*
X161521156Y-106250500D01*
X161521158Y-106250500D01*
X161678844Y-106250500D01*
X161678845Y-106250499D01*
X161833497Y-106219737D01*
X161979179Y-106159394D01*
X162110289Y-106071789D01*
X162221789Y-105960289D01*
X162309394Y-105829179D01*
X162312719Y-105821153D01*
X162369735Y-105683501D01*
X162369737Y-105683497D01*
X162400500Y-105528842D01*
X162400500Y-105371158D01*
X162400500Y-105371155D01*
X162400499Y-105371153D01*
X162382012Y-105278213D01*
X162369737Y-105216503D01*
X162369735Y-105216498D01*
X162309397Y-105070827D01*
X162309390Y-105070814D01*
X162221789Y-104939711D01*
X162221786Y-104939707D01*
X162110292Y-104828213D01*
X162110288Y-104828210D01*
X161979185Y-104740609D01*
X161979172Y-104740602D01*
X161833501Y-104680264D01*
X161833489Y-104680261D01*
X161678845Y-104649500D01*
X161678842Y-104649500D01*
X161648478Y-104649500D01*
X161581439Y-104629815D01*
X161560797Y-104613181D01*
X160508383Y-103560767D01*
X160508381Y-103560764D01*
X160396306Y-103448689D01*
X160396304Y-103448687D01*
X160267696Y-103374435D01*
X160124253Y-103336000D01*
X160124252Y-103336000D01*
X153774500Y-103336000D01*
X153707461Y-103316315D01*
X153661706Y-103263511D01*
X153650500Y-103212000D01*
X153650499Y-102202129D01*
X153650498Y-102202123D01*
X153650497Y-102202116D01*
X153644091Y-102142517D01*
X153594969Y-102010815D01*
X153593797Y-102007671D01*
X153593795Y-102007668D01*
X153550999Y-101950500D01*
X153531081Y-101923893D01*
X153506664Y-101858431D01*
X153521515Y-101790158D01*
X153531082Y-101775271D01*
X153593352Y-101692089D01*
X153593354Y-101692086D01*
X153643596Y-101557379D01*
X153643598Y-101557372D01*
X153649999Y-101497844D01*
X153650000Y-101497827D01*
X153650000Y-101100000D01*
X149650000Y-101100000D01*
X149650000Y-101497844D01*
X149656401Y-101557372D01*
X149656403Y-101557379D01*
X149706645Y-101692086D01*
X149706646Y-101692088D01*
X149768918Y-101775272D01*
X149793335Y-101840736D01*
X149778484Y-101909009D01*
X149768918Y-101923894D01*
X149706204Y-102007669D01*
X149706202Y-102007671D01*
X149655908Y-102142517D01*
X149649501Y-102202116D01*
X149649501Y-102202123D01*
X149649500Y-102202135D01*
X149649501Y-103212000D01*
X149629817Y-103279039D01*
X149577013Y-103324794D01*
X149525501Y-103336000D01*
X145917248Y-103336000D01*
X145773804Y-103374435D01*
X145773801Y-103374436D01*
X145645199Y-103448685D01*
X145645193Y-103448689D01*
X145540186Y-103553696D01*
X145535236Y-103560147D01*
X145534563Y-103559630D01*
X145523743Y-103573725D01*
X145430417Y-103667051D01*
X145404738Y-103686756D01*
X145312199Y-103740185D01*
X145312193Y-103740189D01*
X145246179Y-103806204D01*
X145207187Y-103845196D01*
X145207185Y-103845198D01*
X144585551Y-104466833D01*
X143989203Y-105063181D01*
X143927880Y-105096666D01*
X143901522Y-105099500D01*
X143871155Y-105099500D01*
X143716510Y-105130261D01*
X143716498Y-105130264D01*
X143570827Y-105190602D01*
X143570814Y-105190609D01*
X143439711Y-105278210D01*
X143439707Y-105278213D01*
X143328213Y-105389707D01*
X143328210Y-105389711D01*
X143240609Y-105520814D01*
X143240602Y-105520827D01*
X143180264Y-105666498D01*
X143180261Y-105666510D01*
X143149500Y-105821153D01*
X143149500Y-105978846D01*
X143180261Y-106133489D01*
X143180264Y-106133501D01*
X143240602Y-106279172D01*
X143240609Y-106279185D01*
X143328210Y-106410288D01*
X143328213Y-106410292D01*
X143350740Y-106432819D01*
X143384225Y-106494142D01*
X143379241Y-106563834D01*
X143337369Y-106619767D01*
X143271905Y-106644184D01*
X143263059Y-106644500D01*
X135417247Y-106644500D01*
X135301310Y-106675565D01*
X135301309Y-106675565D01*
X135273805Y-106682933D01*
X135273805Y-106682934D01*
X135145199Y-106757185D01*
X135145193Y-106757189D01*
X135081230Y-106821153D01*
X135040187Y-106862196D01*
X135040185Y-106862198D01*
X135039183Y-106863199D01*
X135039157Y-106863226D01*
X135018982Y-106874228D01*
X135021289Y-106877689D01*
X135021286Y-106877691D01*
X135018979Y-106874230D01*
X135007218Y-106880644D01*
X134977878Y-106896666D01*
X134977833Y-106896670D01*
X134977817Y-106896680D01*
X134977775Y-106896677D01*
X134951520Y-106899500D01*
X134921155Y-106899500D01*
X134766510Y-106930261D01*
X134766498Y-106930264D01*
X134620827Y-106990602D01*
X134620814Y-106990609D01*
X134489711Y-107078210D01*
X134489707Y-107078213D01*
X134378213Y-107189707D01*
X134378210Y-107189711D01*
X134290609Y-107320814D01*
X134290602Y-107320827D01*
X134230264Y-107466498D01*
X134230261Y-107466510D01*
X134199500Y-107621153D01*
X134199500Y-107778846D01*
X134230261Y-107933489D01*
X134230264Y-107933501D01*
X134290602Y-108079172D01*
X134290609Y-108079185D01*
X134378210Y-108210288D01*
X134378213Y-108210292D01*
X134489707Y-108321786D01*
X134489711Y-108321789D01*
X134620814Y-108409390D01*
X134620827Y-108409397D01*
X134758736Y-108466520D01*
X134766503Y-108469737D01*
X134921153Y-108500499D01*
X134921156Y-108500500D01*
X134921158Y-108500500D01*
X135078844Y-108500500D01*
X135078845Y-108500499D01*
X135233497Y-108469737D01*
X135379179Y-108409394D01*
X135510289Y-108321789D01*
X135621789Y-108210289D01*
X135709394Y-108079179D01*
X135769737Y-107933497D01*
X135780609Y-107878842D01*
X135781909Y-107872308D01*
X135814294Y-107810397D01*
X135875010Y-107775823D01*
X135903526Y-107772500D01*
X143646474Y-107772500D01*
X143713513Y-107792185D01*
X143759268Y-107844989D01*
X143768091Y-107872308D01*
X143780261Y-107933491D01*
X143780264Y-107933501D01*
X143840602Y-108079172D01*
X143840609Y-108079185D01*
X143928210Y-108210288D01*
X143928213Y-108210292D01*
X144039707Y-108321786D01*
X144039711Y-108321789D01*
X144170814Y-108409390D01*
X144170827Y-108409397D01*
X144308736Y-108466520D01*
X144316503Y-108469737D01*
X144471153Y-108500499D01*
X144471156Y-108500500D01*
X144471158Y-108500500D01*
X144501522Y-108500500D01*
X144568561Y-108520185D01*
X144589203Y-108536819D01*
X146117404Y-110065020D01*
X146150889Y-110126343D01*
X146145905Y-110196035D01*
X146104033Y-110251968D01*
X146077177Y-110267262D01*
X146020821Y-110290606D01*
X146020814Y-110290609D01*
X145889711Y-110378210D01*
X145889707Y-110378213D01*
X145868240Y-110399681D01*
X145806917Y-110433166D01*
X145780559Y-110436000D01*
X143705216Y-110436000D01*
X143638177Y-110416315D01*
X143592422Y-110363511D01*
X143583599Y-110336191D01*
X143569738Y-110266510D01*
X143569737Y-110266503D01*
X143568772Y-110264174D01*
X143509397Y-110120827D01*
X143509390Y-110120814D01*
X143421789Y-109989711D01*
X143421786Y-109989707D01*
X143310292Y-109878213D01*
X143310288Y-109878210D01*
X143179185Y-109790609D01*
X143179172Y-109790602D01*
X143033501Y-109730264D01*
X143033489Y-109730261D01*
X142878845Y-109699500D01*
X142878842Y-109699500D01*
X142721158Y-109699500D01*
X142721155Y-109699500D01*
X142566510Y-109730261D01*
X142566498Y-109730264D01*
X142420827Y-109790602D01*
X142420814Y-109790609D01*
X142289711Y-109878210D01*
X142289707Y-109878213D01*
X142178213Y-109989707D01*
X142178210Y-109989711D01*
X142090609Y-110120814D01*
X142090602Y-110120827D01*
X142030264Y-110266498D01*
X142030261Y-110266510D01*
X141999500Y-110421153D01*
X141999500Y-110578846D01*
X142030261Y-110733489D01*
X142030264Y-110733501D01*
X142090602Y-110879172D01*
X142090609Y-110879185D01*
X142178210Y-111010288D01*
X142178213Y-111010292D01*
X142289707Y-111121786D01*
X142289711Y-111121789D01*
X142420814Y-111209390D01*
X142420827Y-111209397D01*
X142566498Y-111269735D01*
X142566503Y-111269737D01*
X142721153Y-111300499D01*
X142721156Y-111300500D01*
X142721158Y-111300500D01*
X142751522Y-111300500D01*
X142780962Y-111309144D01*
X142810949Y-111315668D01*
X142815964Y-111319422D01*
X142818561Y-111320185D01*
X142839203Y-111336819D01*
X142844346Y-111341962D01*
X142844356Y-111341973D01*
X142848686Y-111346303D01*
X142848687Y-111346304D01*
X142953696Y-111451313D01*
X142982795Y-111468113D01*
X143031010Y-111518681D01*
X143044232Y-111587288D01*
X143018264Y-111652152D01*
X142961350Y-111692680D01*
X142927171Y-111698427D01*
X142927218Y-111698903D01*
X142921153Y-111699500D01*
X142766510Y-111730261D01*
X142766498Y-111730264D01*
X142620827Y-111790602D01*
X142620814Y-111790609D01*
X142489711Y-111878210D01*
X142489707Y-111878213D01*
X142468240Y-111899681D01*
X142406917Y-111933166D01*
X142380559Y-111936000D01*
X139580661Y-111936000D01*
X139437215Y-111974435D01*
X139421519Y-111983497D01*
X139421520Y-111983498D01*
X139308610Y-112048687D01*
X139308607Y-112048689D01*
X138707369Y-112649928D01*
X138646046Y-112683413D01*
X138576354Y-112678429D01*
X138541079Y-112655758D01*
X138539999Y-112657076D01*
X138535288Y-112653210D01*
X138404185Y-112565609D01*
X138404172Y-112565602D01*
X138258501Y-112505264D01*
X138258489Y-112505261D01*
X138103845Y-112474500D01*
X138103842Y-112474500D01*
X137961040Y-112474500D01*
X137928947Y-112470275D01*
X137832753Y-112444500D01*
X137832752Y-112444500D01*
X134478279Y-112444500D01*
X134478263Y-112444499D01*
X134470667Y-112444499D01*
X134322162Y-112444499D01*
X134210197Y-112474500D01*
X134210196Y-112474499D01*
X134178719Y-112482934D01*
X134178714Y-112482936D01*
X134050113Y-112557184D01*
X134050107Y-112557189D01*
X133994116Y-112613181D01*
X133932793Y-112646666D01*
X133906435Y-112649500D01*
X130948478Y-112649500D01*
X130881439Y-112629815D01*
X130860797Y-112613181D01*
X126386819Y-108139203D01*
X126353334Y-108077880D01*
X126350500Y-108051522D01*
X126350500Y-108021155D01*
X126350499Y-108021153D01*
X126322191Y-107878842D01*
X126319737Y-107866503D01*
X126309092Y-107840804D01*
X126259397Y-107720827D01*
X126259390Y-107720814D01*
X126171789Y-107589711D01*
X126171786Y-107589707D01*
X126060292Y-107478213D01*
X126060288Y-107478210D01*
X125929185Y-107390609D01*
X125929172Y-107390602D01*
X125783501Y-107330264D01*
X125783489Y-107330261D01*
X125628845Y-107299500D01*
X125628842Y-107299500D01*
X125471158Y-107299500D01*
X125471155Y-107299500D01*
X125316510Y-107330261D01*
X125316498Y-107330264D01*
X125170827Y-107390602D01*
X125170814Y-107390609D01*
X125039711Y-107478210D01*
X125039707Y-107478213D01*
X124928213Y-107589707D01*
X124928210Y-107589711D01*
X124840609Y-107720814D01*
X124840602Y-107720827D01*
X124780264Y-107866498D01*
X124780261Y-107866510D01*
X124749500Y-108021153D01*
X124749500Y-108178846D01*
X124780261Y-108333489D01*
X124780264Y-108333501D01*
X124840602Y-108479172D01*
X124840609Y-108479185D01*
X124928210Y-108610288D01*
X124928213Y-108610292D01*
X125039707Y-108721786D01*
X125039711Y-108721789D01*
X125170814Y-108809390D01*
X125170827Y-108809397D01*
X125316498Y-108869735D01*
X125316503Y-108869737D01*
X125471153Y-108900499D01*
X125471156Y-108900500D01*
X125471158Y-108900500D01*
X125501522Y-108900500D01*
X125568561Y-108920185D01*
X125589203Y-108936819D01*
X130207846Y-113555462D01*
X130207856Y-113555473D01*
X130212186Y-113559803D01*
X130212187Y-113559804D01*
X130317196Y-113664813D01*
X130364857Y-113692330D01*
X130405425Y-113715752D01*
X130405426Y-113715753D01*
X130445798Y-113739062D01*
X130445799Y-113739062D01*
X130445804Y-113739065D01*
X130589247Y-113777500D01*
X130589248Y-113777500D01*
X133225522Y-113777500D01*
X133292561Y-113797185D01*
X133338316Y-113849989D01*
X133348260Y-113919147D01*
X133319235Y-113982703D01*
X133313203Y-113989181D01*
X131844203Y-115458181D01*
X131782880Y-115491666D01*
X131756522Y-115494500D01*
X116467247Y-115494500D01*
X116323804Y-115532935D01*
X116323801Y-115532936D01*
X116188157Y-115611251D01*
X116186664Y-115608665D01*
X116134796Y-115628707D01*
X116066353Y-115614656D01*
X116016372Y-115565834D01*
X116000500Y-115505135D01*
X116000500Y-115303713D01*
X115990425Y-115240103D01*
X115967246Y-115093757D01*
X115901557Y-114891588D01*
X115805051Y-114702184D01*
X115805049Y-114702181D01*
X115805048Y-114702179D01*
X115680109Y-114530213D01*
X115529786Y-114379890D01*
X115357820Y-114254951D01*
X115357115Y-114254591D01*
X115349054Y-114250485D01*
X115298259Y-114202512D01*
X115281463Y-114134692D01*
X115303999Y-114068556D01*
X115349054Y-114029515D01*
X115357816Y-114025051D01*
X115407187Y-113989181D01*
X115529786Y-113900109D01*
X115529788Y-113900106D01*
X115529792Y-113900104D01*
X115680104Y-113749792D01*
X115680106Y-113749788D01*
X115680109Y-113749786D01*
X115804302Y-113578847D01*
X115805051Y-113577816D01*
X115901557Y-113388412D01*
X115967246Y-113186243D01*
X116000500Y-112976287D01*
X116000500Y-112763713D01*
X115967246Y-112553757D01*
X115901557Y-112351588D01*
X115805051Y-112162184D01*
X115805049Y-112162181D01*
X115805048Y-112162179D01*
X115680109Y-111990213D01*
X115566181Y-111876285D01*
X115532696Y-111814962D01*
X115537680Y-111745270D01*
X115579552Y-111689337D01*
X115610529Y-111672422D01*
X115742086Y-111623354D01*
X115742093Y-111623350D01*
X115857187Y-111537190D01*
X115857190Y-111537187D01*
X115943350Y-111422093D01*
X115943354Y-111422086D01*
X115993596Y-111287379D01*
X115993598Y-111287372D01*
X115999999Y-111227844D01*
X116000000Y-111227827D01*
X116000000Y-110580000D01*
X115083012Y-110580000D01*
X115115925Y-110522993D01*
X115150000Y-110395826D01*
X115150000Y-110264174D01*
X115115925Y-110137007D01*
X115083012Y-110080000D01*
X116000000Y-110080000D01*
X116000000Y-109432172D01*
X115999999Y-109432155D01*
X115993598Y-109372627D01*
X115993596Y-109372620D01*
X115943354Y-109237913D01*
X115943350Y-109237906D01*
X115857190Y-109122812D01*
X115857187Y-109122809D01*
X115742093Y-109036649D01*
X115742086Y-109036645D01*
X115607379Y-108986403D01*
X115607372Y-108986401D01*
X115547844Y-108980000D01*
X114900000Y-108980000D01*
X114900000Y-109896988D01*
X114842993Y-109864075D01*
X114715826Y-109830000D01*
X114584174Y-109830000D01*
X114457007Y-109864075D01*
X114400000Y-109896988D01*
X114400000Y-108980000D01*
X113752155Y-108980000D01*
X113692627Y-108986401D01*
X113692620Y-108986403D01*
X113557913Y-109036645D01*
X113557906Y-109036649D01*
X113442812Y-109122809D01*
X113442809Y-109122812D01*
X113356649Y-109237906D01*
X113356645Y-109237913D01*
X113306403Y-109372620D01*
X113306401Y-109372627D01*
X113300000Y-109432155D01*
X113300000Y-110080000D01*
X114216988Y-110080000D01*
X114184075Y-110137007D01*
X114150000Y-110264174D01*
X114150000Y-110395826D01*
X114184075Y-110522993D01*
X114216988Y-110580000D01*
X113300000Y-110580000D01*
X113300000Y-111227844D01*
X113306401Y-111287372D01*
X113306403Y-111287379D01*
X113356645Y-111422086D01*
X113356649Y-111422093D01*
X113442809Y-111537187D01*
X113442812Y-111537190D01*
X113557906Y-111623350D01*
X113557913Y-111623354D01*
X113689470Y-111672422D01*
X113745404Y-111714293D01*
X113769821Y-111779758D01*
X113754969Y-111848031D01*
X113733819Y-111876285D01*
X113619889Y-111990215D01*
X113494951Y-112162179D01*
X113398444Y-112351585D01*
X113332753Y-112553760D01*
X113313008Y-112678429D01*
X113299500Y-112763713D01*
X112850500Y-112763713D01*
X112850500Y-100202155D01*
X149650000Y-100202155D01*
X149650000Y-100600000D01*
X151400000Y-100600000D01*
X151900000Y-100600000D01*
X153650000Y-100600000D01*
X153650000Y-100202172D01*
X153649999Y-100202155D01*
X153643598Y-100142627D01*
X153643596Y-100142620D01*
X153593354Y-100007913D01*
X153593350Y-100007906D01*
X153507190Y-99892812D01*
X153507187Y-99892809D01*
X153392093Y-99806649D01*
X153392086Y-99806645D01*
X153257379Y-99756403D01*
X153257372Y-99756401D01*
X153197844Y-99750000D01*
X151900000Y-99750000D01*
X151900000Y-100600000D01*
X151400000Y-100600000D01*
X151400000Y-99750000D01*
X150102155Y-99750000D01*
X150042627Y-99756401D01*
X150042620Y-99756403D01*
X149907913Y-99806645D01*
X149907906Y-99806649D01*
X149792812Y-99892809D01*
X149792809Y-99892812D01*
X149706649Y-100007906D01*
X149706645Y-100007913D01*
X149656403Y-100142620D01*
X149656401Y-100142627D01*
X149650000Y-100202155D01*
X112850500Y-100202155D01*
X112850500Y-99624500D01*
X112870185Y-99557461D01*
X112922989Y-99511706D01*
X112974500Y-99500500D01*
X170925500Y-99500500D01*
X170992539Y-99520185D01*
G37*
%TD.AperFunction*%
%TD*%
M02*
