M48
; DRILL file {KiCad 9.0.3} date 2025-12-18T09:51:01-0800
; FORMAT={-:-/ absolute / metric / decimal}
; #@! TF.CreationDate,2025-12-18T09:51:01-08:00
; #@! TF.GenerationSoftware,Kicad,Pcbnew,9.0.3
; #@! TF.FileFunction,Plated,1,2,PTH
FMAT,2
METRIC
; #@! TA.AperFunction,Plated,PTH,ViaDrill
T1C0.300
; #@! TA.AperFunction,Plated,PTH,ComponentDrill
T2C0.900
; #@! TA.AperFunction,Plated,PTH,ComponentDrill
T3C1.000
; #@! TA.AperFunction,Plated,PTH,ComponentDrill
T4C1.100
%
G90
G05
T1
X118.35Y-117.5
X118.35Y-118.65
X118.4Y-119.9
X119.35Y-118.6
X119.4Y-117.45
X119.4Y-119.85
X120.15Y-112.4
X120.15Y-113.5
X120.15Y-114.75
X120.75Y-124.35
X121.25Y-122.1
X125.337Y-105.662
X125.4Y-114.7
X125.55Y-108.1
X126.65Y-100.0
X129.1Y-101.25
X129.1Y-102.45
X129.75Y-103.6
X129.9Y-106.0
X131.0Y-101.25
X131.0Y-102.4
X133.1Y-101.25
X133.1Y-102.45
X134.6Y-113.5
X134.7Y-115.55
X135.0Y-101.25
X135.0Y-102.4
X135.0Y-107.7
X135.45Y-118.5
X136.65Y-123.6
X136.65Y-124.8
X136.65Y-126.1
X137.55Y-101.3
X137.55Y-102.5
X137.95Y-114.9
X138.025Y-113.275
X138.6Y-118.3
X139.45Y-101.3
X139.45Y-102.45
X139.6Y-115.0
X140.0Y-123.6
X140.0Y-124.8
X140.0Y-126.1
X141.1Y-114.95
X142.5Y-101.1
X142.5Y-102.3
X142.5Y-103.6
X142.8Y-110.5
X143.0Y-112.5
X143.1Y-123.6
X143.1Y-124.8
X143.1Y-126.1
X143.2Y-120.7
X143.95Y-105.9
X144.55Y-107.7
X145.5Y-101.2
X145.5Y-102.4
X145.5Y-103.7
X146.2Y-119.6
X146.2Y-120.8
X146.2Y-122.1
X146.2Y-123.6
X146.2Y-124.8
X146.2Y-126.1
X146.35Y-111.75
X146.4Y-111.0
X146.75Y-108.55
X148.65Y-106.9
X148.8Y-115.05
X149.55Y-111.0
X149.6Y-119.55
X149.6Y-120.75
X149.6Y-122.05
X149.6Y-123.6
X149.6Y-124.8
X149.6Y-126.1
X151.65Y-112.85
X154.35Y-103.05
X154.4Y-114.65
X154.85Y-107.15
X155.5Y-103.1
X155.6Y-106.15
X156.0Y-107.2
X156.75Y-103.05
X157.25Y-107.15
X160.1Y-116.084
X161.6Y-105.45
X164.3Y-107.8
X165.55Y-119.8
X165.6Y-118.65
X165.6Y-121.05
X165.6Y-124.3
X165.65Y-123.15
X165.65Y-125.55
X168.15Y-118.7
X168.15Y-119.85
X168.15Y-121.15
X168.25Y-123.2
X168.25Y-124.4
X168.25Y-125.7
X169.15Y-100.05
X169.35Y-104.85
X169.75Y-108.05
X169.75Y-113.55
X169.8Y-106.9
X169.8Y-109.3
X169.8Y-112.4
X169.8Y-114.8
X170.35Y-100.05
X170.55Y-104.85
T2
X169.95Y-102.35
T3
X114.65Y-110.33
X114.65Y-112.87
X114.65Y-115.41
X114.65Y-117.95
X114.65Y-120.49
X114.65Y-123.03
T4
X126.12Y-123.55
X131.2Y-123.55
X155.925Y-123.525
X161.005Y-123.525
M30
