%TF.GenerationSoftware,KiCad,Pcbnew,9.0.3*%
%TF.CreationDate,2025-12-18T09:51:01-08:00*%
%TF.ProjectId,stm_temp_v0,73746d5f-7465-46d7-905f-76302e6b6963,rev?*%
%TF.SameCoordinates,Original*%
%TF.FileFunction,Drillmap*%
%TF.FilePolarity,Positive*%
%FSLAX45Y45*%
G04 Gerber Fmt 4.5, Leading zero omitted, Abs format (unit mm)*
G04 Created by KiCad (PCBNEW 9.0.3) date 2025-12-18 09:51:01*
%MOMM*%
%LPD*%
G01*
G04 APERTURE LIST*
%ADD10C,0.254000*%
%ADD11C,0.200000*%
%ADD12C,0.100000*%
G04 APERTURE END LIST*
D10*
X11235000Y-9900000D02*
X17155000Y-9900000D01*
X17155000Y-12795000D01*
X11235000Y-12795000D01*
X11235000Y-9900000D01*
D11*
D12*
X14645350Y-11312450D02*
X14744450Y-11411550D01*
X14744450Y-11312450D02*
X14645350Y-11411550D01*
X14746950Y-10804450D02*
X14846050Y-10903550D01*
X14846050Y-10804450D02*
X14746950Y-10903550D01*
X14848550Y-11312450D02*
X14947650Y-11411550D01*
X14947650Y-11312450D02*
X14848550Y-11411550D01*
D11*
X11483077Y-13119184D02*
X11483077Y-12919184D01*
X11483077Y-12919184D02*
X11530696Y-12919184D01*
X11530696Y-12919184D02*
X11559267Y-12928708D01*
X11559267Y-12928708D02*
X11578315Y-12947755D01*
X11578315Y-12947755D02*
X11587839Y-12966803D01*
X11587839Y-12966803D02*
X11597362Y-13004898D01*
X11597362Y-13004898D02*
X11597362Y-13033469D01*
X11597362Y-13033469D02*
X11587839Y-13071565D01*
X11587839Y-13071565D02*
X11578315Y-13090612D01*
X11578315Y-13090612D02*
X11559267Y-13109660D01*
X11559267Y-13109660D02*
X11530696Y-13119184D01*
X11530696Y-13119184D02*
X11483077Y-13119184D01*
X11683077Y-13119184D02*
X11683077Y-12985850D01*
X11683077Y-13023946D02*
X11692601Y-13004898D01*
X11692601Y-13004898D02*
X11702124Y-12995374D01*
X11702124Y-12995374D02*
X11721172Y-12985850D01*
X11721172Y-12985850D02*
X11740220Y-12985850D01*
X11806886Y-13119184D02*
X11806886Y-12985850D01*
X11806886Y-12919184D02*
X11797362Y-12928708D01*
X11797362Y-12928708D02*
X11806886Y-12938231D01*
X11806886Y-12938231D02*
X11816410Y-12928708D01*
X11816410Y-12928708D02*
X11806886Y-12919184D01*
X11806886Y-12919184D02*
X11806886Y-12938231D01*
X11930696Y-13119184D02*
X11911648Y-13109660D01*
X11911648Y-13109660D02*
X11902124Y-13090612D01*
X11902124Y-13090612D02*
X11902124Y-12919184D01*
X12035458Y-13119184D02*
X12016410Y-13109660D01*
X12016410Y-13109660D02*
X12006886Y-13090612D01*
X12006886Y-13090612D02*
X12006886Y-12919184D01*
X12264029Y-13119184D02*
X12264029Y-12919184D01*
X12264029Y-12919184D02*
X12330696Y-13062041D01*
X12330696Y-13062041D02*
X12397362Y-12919184D01*
X12397362Y-12919184D02*
X12397362Y-13119184D01*
X12578315Y-13119184D02*
X12578315Y-13014422D01*
X12578315Y-13014422D02*
X12568791Y-12995374D01*
X12568791Y-12995374D02*
X12549743Y-12985850D01*
X12549743Y-12985850D02*
X12511648Y-12985850D01*
X12511648Y-12985850D02*
X12492601Y-12995374D01*
X12578315Y-13109660D02*
X12559267Y-13119184D01*
X12559267Y-13119184D02*
X12511648Y-13119184D01*
X12511648Y-13119184D02*
X12492601Y-13109660D01*
X12492601Y-13109660D02*
X12483077Y-13090612D01*
X12483077Y-13090612D02*
X12483077Y-13071565D01*
X12483077Y-13071565D02*
X12492601Y-13052517D01*
X12492601Y-13052517D02*
X12511648Y-13042993D01*
X12511648Y-13042993D02*
X12559267Y-13042993D01*
X12559267Y-13042993D02*
X12578315Y-13033469D01*
X12673553Y-12985850D02*
X12673553Y-13185850D01*
X12673553Y-12995374D02*
X12692601Y-12985850D01*
X12692601Y-12985850D02*
X12730696Y-12985850D01*
X12730696Y-12985850D02*
X12749743Y-12995374D01*
X12749743Y-12995374D02*
X12759267Y-13004898D01*
X12759267Y-13004898D02*
X12768791Y-13023946D01*
X12768791Y-13023946D02*
X12768791Y-13081088D01*
X12768791Y-13081088D02*
X12759267Y-13100136D01*
X12759267Y-13100136D02*
X12749743Y-13109660D01*
X12749743Y-13109660D02*
X12730696Y-13119184D01*
X12730696Y-13119184D02*
X12692601Y-13119184D01*
X12692601Y-13119184D02*
X12673553Y-13109660D01*
X12854505Y-13100136D02*
X12864029Y-13109660D01*
X12864029Y-13109660D02*
X12854505Y-13119184D01*
X12854505Y-13119184D02*
X12844982Y-13109660D01*
X12844982Y-13109660D02*
X12854505Y-13100136D01*
X12854505Y-13100136D02*
X12854505Y-13119184D01*
X12854505Y-12995374D02*
X12864029Y-13004898D01*
X12864029Y-13004898D02*
X12854505Y-13014422D01*
X12854505Y-13014422D02*
X12844982Y-13004898D01*
X12844982Y-13004898D02*
X12854505Y-12995374D01*
X12854505Y-12995374D02*
X12854505Y-13014422D01*
D12*
X11123200Y-13398150D02*
X11222300Y-13497250D01*
X11222300Y-13398150D02*
X11123200Y-13497250D01*
D11*
X11521172Y-13339184D02*
X11540220Y-13339184D01*
X11540220Y-13339184D02*
X11559267Y-13348708D01*
X11559267Y-13348708D02*
X11568791Y-13358231D01*
X11568791Y-13358231D02*
X11578315Y-13377279D01*
X11578315Y-13377279D02*
X11587839Y-13415374D01*
X11587839Y-13415374D02*
X11587839Y-13462993D01*
X11587839Y-13462993D02*
X11578315Y-13501088D01*
X11578315Y-13501088D02*
X11568791Y-13520136D01*
X11568791Y-13520136D02*
X11559267Y-13529660D01*
X11559267Y-13529660D02*
X11540220Y-13539184D01*
X11540220Y-13539184D02*
X11521172Y-13539184D01*
X11521172Y-13539184D02*
X11502124Y-13529660D01*
X11502124Y-13529660D02*
X11492601Y-13520136D01*
X11492601Y-13520136D02*
X11483077Y-13501088D01*
X11483077Y-13501088D02*
X11473553Y-13462993D01*
X11473553Y-13462993D02*
X11473553Y-13415374D01*
X11473553Y-13415374D02*
X11483077Y-13377279D01*
X11483077Y-13377279D02*
X11492601Y-13358231D01*
X11492601Y-13358231D02*
X11502124Y-13348708D01*
X11502124Y-13348708D02*
X11521172Y-13339184D01*
X11673553Y-13520136D02*
X11683077Y-13529660D01*
X11683077Y-13529660D02*
X11673553Y-13539184D01*
X11673553Y-13539184D02*
X11664029Y-13529660D01*
X11664029Y-13529660D02*
X11673553Y-13520136D01*
X11673553Y-13520136D02*
X11673553Y-13539184D01*
X11778315Y-13539184D02*
X11816410Y-13539184D01*
X11816410Y-13539184D02*
X11835458Y-13529660D01*
X11835458Y-13529660D02*
X11844982Y-13520136D01*
X11844982Y-13520136D02*
X11864029Y-13491565D01*
X11864029Y-13491565D02*
X11873553Y-13453469D01*
X11873553Y-13453469D02*
X11873553Y-13377279D01*
X11873553Y-13377279D02*
X11864029Y-13358231D01*
X11864029Y-13358231D02*
X11854505Y-13348708D01*
X11854505Y-13348708D02*
X11835458Y-13339184D01*
X11835458Y-13339184D02*
X11797362Y-13339184D01*
X11797362Y-13339184D02*
X11778315Y-13348708D01*
X11778315Y-13348708D02*
X11768791Y-13358231D01*
X11768791Y-13358231D02*
X11759267Y-13377279D01*
X11759267Y-13377279D02*
X11759267Y-13424898D01*
X11759267Y-13424898D02*
X11768791Y-13443946D01*
X11768791Y-13443946D02*
X11778315Y-13453469D01*
X11778315Y-13453469D02*
X11797362Y-13462993D01*
X11797362Y-13462993D02*
X11835458Y-13462993D01*
X11835458Y-13462993D02*
X11854505Y-13453469D01*
X11854505Y-13453469D02*
X11864029Y-13443946D01*
X11864029Y-13443946D02*
X11873553Y-13424898D01*
X11968791Y-13539184D02*
X12006886Y-13539184D01*
X12006886Y-13539184D02*
X12025934Y-13529660D01*
X12025934Y-13529660D02*
X12035458Y-13520136D01*
X12035458Y-13520136D02*
X12054505Y-13491565D01*
X12054505Y-13491565D02*
X12064029Y-13453469D01*
X12064029Y-13453469D02*
X12064029Y-13377279D01*
X12064029Y-13377279D02*
X12054505Y-13358231D01*
X12054505Y-13358231D02*
X12044982Y-13348708D01*
X12044982Y-13348708D02*
X12025934Y-13339184D01*
X12025934Y-13339184D02*
X11987839Y-13339184D01*
X11987839Y-13339184D02*
X11968791Y-13348708D01*
X11968791Y-13348708D02*
X11959267Y-13358231D01*
X11959267Y-13358231D02*
X11949743Y-13377279D01*
X11949743Y-13377279D02*
X11949743Y-13424898D01*
X11949743Y-13424898D02*
X11959267Y-13443946D01*
X11959267Y-13443946D02*
X11968791Y-13453469D01*
X11968791Y-13453469D02*
X11987839Y-13462993D01*
X11987839Y-13462993D02*
X12025934Y-13462993D01*
X12025934Y-13462993D02*
X12044982Y-13453469D01*
X12044982Y-13453469D02*
X12054505Y-13443946D01*
X12054505Y-13443946D02*
X12064029Y-13424898D01*
X12254505Y-13539184D02*
X12140220Y-13539184D01*
X12197362Y-13539184D02*
X12197362Y-13339184D01*
X12197362Y-13339184D02*
X12178315Y-13367755D01*
X12178315Y-13367755D02*
X12159267Y-13386803D01*
X12159267Y-13386803D02*
X12140220Y-13396327D01*
X12340220Y-13539184D02*
X12340220Y-13405850D01*
X12340220Y-13424898D02*
X12349743Y-13415374D01*
X12349743Y-13415374D02*
X12368791Y-13405850D01*
X12368791Y-13405850D02*
X12397363Y-13405850D01*
X12397363Y-13405850D02*
X12416410Y-13415374D01*
X12416410Y-13415374D02*
X12425934Y-13434422D01*
X12425934Y-13434422D02*
X12425934Y-13539184D01*
X12425934Y-13434422D02*
X12435458Y-13415374D01*
X12435458Y-13415374D02*
X12454505Y-13405850D01*
X12454505Y-13405850D02*
X12483077Y-13405850D01*
X12483077Y-13405850D02*
X12502124Y-13415374D01*
X12502124Y-13415374D02*
X12511648Y-13434422D01*
X12511648Y-13434422D02*
X12511648Y-13539184D01*
X12606886Y-13539184D02*
X12606886Y-13405850D01*
X12606886Y-13424898D02*
X12616410Y-13415374D01*
X12616410Y-13415374D02*
X12635458Y-13405850D01*
X12635458Y-13405850D02*
X12664029Y-13405850D01*
X12664029Y-13405850D02*
X12683077Y-13415374D01*
X12683077Y-13415374D02*
X12692601Y-13434422D01*
X12692601Y-13434422D02*
X12692601Y-13539184D01*
X12692601Y-13434422D02*
X12702124Y-13415374D01*
X12702124Y-13415374D02*
X12721172Y-13405850D01*
X12721172Y-13405850D02*
X12749743Y-13405850D01*
X12749743Y-13405850D02*
X12768791Y-13415374D01*
X12768791Y-13415374D02*
X12778315Y-13434422D01*
X12778315Y-13434422D02*
X12778315Y-13539184D01*
X13168791Y-13329660D02*
X12997363Y-13586803D01*
X13425934Y-13339184D02*
X13444982Y-13339184D01*
X13444982Y-13339184D02*
X13464029Y-13348708D01*
X13464029Y-13348708D02*
X13473553Y-13358231D01*
X13473553Y-13358231D02*
X13483077Y-13377279D01*
X13483077Y-13377279D02*
X13492601Y-13415374D01*
X13492601Y-13415374D02*
X13492601Y-13462993D01*
X13492601Y-13462993D02*
X13483077Y-13501088D01*
X13483077Y-13501088D02*
X13473553Y-13520136D01*
X13473553Y-13520136D02*
X13464029Y-13529660D01*
X13464029Y-13529660D02*
X13444982Y-13539184D01*
X13444982Y-13539184D02*
X13425934Y-13539184D01*
X13425934Y-13539184D02*
X13406886Y-13529660D01*
X13406886Y-13529660D02*
X13397363Y-13520136D01*
X13397363Y-13520136D02*
X13387839Y-13501088D01*
X13387839Y-13501088D02*
X13378315Y-13462993D01*
X13378315Y-13462993D02*
X13378315Y-13415374D01*
X13378315Y-13415374D02*
X13387839Y-13377279D01*
X13387839Y-13377279D02*
X13397363Y-13358231D01*
X13397363Y-13358231D02*
X13406886Y-13348708D01*
X13406886Y-13348708D02*
X13425934Y-13339184D01*
X13578315Y-13520136D02*
X13587839Y-13529660D01*
X13587839Y-13529660D02*
X13578315Y-13539184D01*
X13578315Y-13539184D02*
X13568791Y-13529660D01*
X13568791Y-13529660D02*
X13578315Y-13520136D01*
X13578315Y-13520136D02*
X13578315Y-13539184D01*
X13711648Y-13339184D02*
X13730696Y-13339184D01*
X13730696Y-13339184D02*
X13749744Y-13348708D01*
X13749744Y-13348708D02*
X13759267Y-13358231D01*
X13759267Y-13358231D02*
X13768791Y-13377279D01*
X13768791Y-13377279D02*
X13778315Y-13415374D01*
X13778315Y-13415374D02*
X13778315Y-13462993D01*
X13778315Y-13462993D02*
X13768791Y-13501088D01*
X13768791Y-13501088D02*
X13759267Y-13520136D01*
X13759267Y-13520136D02*
X13749744Y-13529660D01*
X13749744Y-13529660D02*
X13730696Y-13539184D01*
X13730696Y-13539184D02*
X13711648Y-13539184D01*
X13711648Y-13539184D02*
X13692601Y-13529660D01*
X13692601Y-13529660D02*
X13683077Y-13520136D01*
X13683077Y-13520136D02*
X13673553Y-13501088D01*
X13673553Y-13501088D02*
X13664029Y-13462993D01*
X13664029Y-13462993D02*
X13664029Y-13415374D01*
X13664029Y-13415374D02*
X13673553Y-13377279D01*
X13673553Y-13377279D02*
X13683077Y-13358231D01*
X13683077Y-13358231D02*
X13692601Y-13348708D01*
X13692601Y-13348708D02*
X13711648Y-13339184D01*
X13844982Y-13339184D02*
X13968791Y-13339184D01*
X13968791Y-13339184D02*
X13902125Y-13415374D01*
X13902125Y-13415374D02*
X13930696Y-13415374D01*
X13930696Y-13415374D02*
X13949744Y-13424898D01*
X13949744Y-13424898D02*
X13959267Y-13434422D01*
X13959267Y-13434422D02*
X13968791Y-13453469D01*
X13968791Y-13453469D02*
X13968791Y-13501088D01*
X13968791Y-13501088D02*
X13959267Y-13520136D01*
X13959267Y-13520136D02*
X13949744Y-13529660D01*
X13949744Y-13529660D02*
X13930696Y-13539184D01*
X13930696Y-13539184D02*
X13873553Y-13539184D01*
X13873553Y-13539184D02*
X13854506Y-13529660D01*
X13854506Y-13529660D02*
X13844982Y-13520136D01*
X14064029Y-13539184D02*
X14102125Y-13539184D01*
X14102125Y-13539184D02*
X14121172Y-13529660D01*
X14121172Y-13529660D02*
X14130696Y-13520136D01*
X14130696Y-13520136D02*
X14149744Y-13491565D01*
X14149744Y-13491565D02*
X14159267Y-13453469D01*
X14159267Y-13453469D02*
X14159267Y-13377279D01*
X14159267Y-13377279D02*
X14149744Y-13358231D01*
X14149744Y-13358231D02*
X14140220Y-13348708D01*
X14140220Y-13348708D02*
X14121172Y-13339184D01*
X14121172Y-13339184D02*
X14083077Y-13339184D01*
X14083077Y-13339184D02*
X14064029Y-13348708D01*
X14064029Y-13348708D02*
X14054506Y-13358231D01*
X14054506Y-13358231D02*
X14044982Y-13377279D01*
X14044982Y-13377279D02*
X14044982Y-13424898D01*
X14044982Y-13424898D02*
X14054506Y-13443946D01*
X14054506Y-13443946D02*
X14064029Y-13453469D01*
X14064029Y-13453469D02*
X14083077Y-13462993D01*
X14083077Y-13462993D02*
X14121172Y-13462993D01*
X14121172Y-13462993D02*
X14140220Y-13453469D01*
X14140220Y-13453469D02*
X14149744Y-13443946D01*
X14149744Y-13443946D02*
X14159267Y-13424898D01*
X14283077Y-13339184D02*
X14302125Y-13339184D01*
X14302125Y-13339184D02*
X14321172Y-13348708D01*
X14321172Y-13348708D02*
X14330696Y-13358231D01*
X14330696Y-13358231D02*
X14340220Y-13377279D01*
X14340220Y-13377279D02*
X14349744Y-13415374D01*
X14349744Y-13415374D02*
X14349744Y-13462993D01*
X14349744Y-13462993D02*
X14340220Y-13501088D01*
X14340220Y-13501088D02*
X14330696Y-13520136D01*
X14330696Y-13520136D02*
X14321172Y-13529660D01*
X14321172Y-13529660D02*
X14302125Y-13539184D01*
X14302125Y-13539184D02*
X14283077Y-13539184D01*
X14283077Y-13539184D02*
X14264029Y-13529660D01*
X14264029Y-13529660D02*
X14254506Y-13520136D01*
X14254506Y-13520136D02*
X14244982Y-13501088D01*
X14244982Y-13501088D02*
X14235458Y-13462993D01*
X14235458Y-13462993D02*
X14235458Y-13415374D01*
X14235458Y-13415374D02*
X14244982Y-13377279D01*
X14244982Y-13377279D02*
X14254506Y-13358231D01*
X14254506Y-13358231D02*
X14264029Y-13348708D01*
X14264029Y-13348708D02*
X14283077Y-13339184D01*
X14425934Y-13339184D02*
X14425934Y-13377279D01*
X14502125Y-13339184D02*
X14502125Y-13377279D01*
X14797363Y-13615374D02*
X14787839Y-13605850D01*
X14787839Y-13605850D02*
X14768791Y-13577279D01*
X14768791Y-13577279D02*
X14759268Y-13558231D01*
X14759268Y-13558231D02*
X14749744Y-13529660D01*
X14749744Y-13529660D02*
X14740220Y-13482041D01*
X14740220Y-13482041D02*
X14740220Y-13443946D01*
X14740220Y-13443946D02*
X14749744Y-13396327D01*
X14749744Y-13396327D02*
X14759268Y-13367755D01*
X14759268Y-13367755D02*
X14768791Y-13348708D01*
X14768791Y-13348708D02*
X14787839Y-13320136D01*
X14787839Y-13320136D02*
X14797363Y-13310612D01*
X14854506Y-13339184D02*
X14978315Y-13339184D01*
X14978315Y-13339184D02*
X14911648Y-13415374D01*
X14911648Y-13415374D02*
X14940220Y-13415374D01*
X14940220Y-13415374D02*
X14959268Y-13424898D01*
X14959268Y-13424898D02*
X14968791Y-13434422D01*
X14968791Y-13434422D02*
X14978315Y-13453469D01*
X14978315Y-13453469D02*
X14978315Y-13501088D01*
X14978315Y-13501088D02*
X14968791Y-13520136D01*
X14968791Y-13520136D02*
X14959268Y-13529660D01*
X14959268Y-13529660D02*
X14940220Y-13539184D01*
X14940220Y-13539184D02*
X14883077Y-13539184D01*
X14883077Y-13539184D02*
X14864029Y-13529660D01*
X14864029Y-13529660D02*
X14854506Y-13520136D01*
X15216410Y-13539184D02*
X15216410Y-13339184D01*
X15302125Y-13539184D02*
X15302125Y-13434422D01*
X15302125Y-13434422D02*
X15292601Y-13415374D01*
X15292601Y-13415374D02*
X15273553Y-13405850D01*
X15273553Y-13405850D02*
X15244982Y-13405850D01*
X15244982Y-13405850D02*
X15225934Y-13415374D01*
X15225934Y-13415374D02*
X15216410Y-13424898D01*
X15425934Y-13539184D02*
X15406887Y-13529660D01*
X15406887Y-13529660D02*
X15397363Y-13520136D01*
X15397363Y-13520136D02*
X15387839Y-13501088D01*
X15387839Y-13501088D02*
X15387839Y-13443946D01*
X15387839Y-13443946D02*
X15397363Y-13424898D01*
X15397363Y-13424898D02*
X15406887Y-13415374D01*
X15406887Y-13415374D02*
X15425934Y-13405850D01*
X15425934Y-13405850D02*
X15454506Y-13405850D01*
X15454506Y-13405850D02*
X15473553Y-13415374D01*
X15473553Y-13415374D02*
X15483077Y-13424898D01*
X15483077Y-13424898D02*
X15492601Y-13443946D01*
X15492601Y-13443946D02*
X15492601Y-13501088D01*
X15492601Y-13501088D02*
X15483077Y-13520136D01*
X15483077Y-13520136D02*
X15473553Y-13529660D01*
X15473553Y-13529660D02*
X15454506Y-13539184D01*
X15454506Y-13539184D02*
X15425934Y-13539184D01*
X15606887Y-13539184D02*
X15587839Y-13529660D01*
X15587839Y-13529660D02*
X15578315Y-13510612D01*
X15578315Y-13510612D02*
X15578315Y-13339184D01*
X15759268Y-13529660D02*
X15740220Y-13539184D01*
X15740220Y-13539184D02*
X15702125Y-13539184D01*
X15702125Y-13539184D02*
X15683077Y-13529660D01*
X15683077Y-13529660D02*
X15673553Y-13510612D01*
X15673553Y-13510612D02*
X15673553Y-13434422D01*
X15673553Y-13434422D02*
X15683077Y-13415374D01*
X15683077Y-13415374D02*
X15702125Y-13405850D01*
X15702125Y-13405850D02*
X15740220Y-13405850D01*
X15740220Y-13405850D02*
X15759268Y-13415374D01*
X15759268Y-13415374D02*
X15768791Y-13434422D01*
X15768791Y-13434422D02*
X15768791Y-13453469D01*
X15768791Y-13453469D02*
X15673553Y-13472517D01*
X15844982Y-13529660D02*
X15864030Y-13539184D01*
X15864030Y-13539184D02*
X15902125Y-13539184D01*
X15902125Y-13539184D02*
X15921172Y-13529660D01*
X15921172Y-13529660D02*
X15930696Y-13510612D01*
X15930696Y-13510612D02*
X15930696Y-13501088D01*
X15930696Y-13501088D02*
X15921172Y-13482041D01*
X15921172Y-13482041D02*
X15902125Y-13472517D01*
X15902125Y-13472517D02*
X15873553Y-13472517D01*
X15873553Y-13472517D02*
X15854506Y-13462993D01*
X15854506Y-13462993D02*
X15844982Y-13443946D01*
X15844982Y-13443946D02*
X15844982Y-13434422D01*
X15844982Y-13434422D02*
X15854506Y-13415374D01*
X15854506Y-13415374D02*
X15873553Y-13405850D01*
X15873553Y-13405850D02*
X15902125Y-13405850D01*
X15902125Y-13405850D02*
X15921172Y-13415374D01*
X15997363Y-13615374D02*
X16006887Y-13605850D01*
X16006887Y-13605850D02*
X16025934Y-13577279D01*
X16025934Y-13577279D02*
X16035458Y-13558231D01*
X16035458Y-13558231D02*
X16044982Y-13529660D01*
X16044982Y-13529660D02*
X16054506Y-13482041D01*
X16054506Y-13482041D02*
X16054506Y-13443946D01*
X16054506Y-13443946D02*
X16044982Y-13396327D01*
X16044982Y-13396327D02*
X16035458Y-13367755D01*
X16035458Y-13367755D02*
X16025934Y-13348708D01*
X16025934Y-13348708D02*
X16006887Y-13320136D01*
X16006887Y-13320136D02*
X15997363Y-13310612D01*
X16359268Y-13615374D02*
X16349744Y-13605850D01*
X16349744Y-13605850D02*
X16330696Y-13577279D01*
X16330696Y-13577279D02*
X16321172Y-13558231D01*
X16321172Y-13558231D02*
X16311649Y-13529660D01*
X16311649Y-13529660D02*
X16302125Y-13482041D01*
X16302125Y-13482041D02*
X16302125Y-13443946D01*
X16302125Y-13443946D02*
X16311649Y-13396327D01*
X16311649Y-13396327D02*
X16321172Y-13367755D01*
X16321172Y-13367755D02*
X16330696Y-13348708D01*
X16330696Y-13348708D02*
X16349744Y-13320136D01*
X16349744Y-13320136D02*
X16359268Y-13310612D01*
X16435458Y-13405850D02*
X16435458Y-13539184D01*
X16435458Y-13424898D02*
X16444982Y-13415374D01*
X16444982Y-13415374D02*
X16464030Y-13405850D01*
X16464030Y-13405850D02*
X16492601Y-13405850D01*
X16492601Y-13405850D02*
X16511649Y-13415374D01*
X16511649Y-13415374D02*
X16521172Y-13434422D01*
X16521172Y-13434422D02*
X16521172Y-13539184D01*
X16644982Y-13539184D02*
X16625934Y-13529660D01*
X16625934Y-13529660D02*
X16616411Y-13520136D01*
X16616411Y-13520136D02*
X16606887Y-13501088D01*
X16606887Y-13501088D02*
X16606887Y-13443946D01*
X16606887Y-13443946D02*
X16616411Y-13424898D01*
X16616411Y-13424898D02*
X16625934Y-13415374D01*
X16625934Y-13415374D02*
X16644982Y-13405850D01*
X16644982Y-13405850D02*
X16673553Y-13405850D01*
X16673553Y-13405850D02*
X16692601Y-13415374D01*
X16692601Y-13415374D02*
X16702125Y-13424898D01*
X16702125Y-13424898D02*
X16711649Y-13443946D01*
X16711649Y-13443946D02*
X16711649Y-13501088D01*
X16711649Y-13501088D02*
X16702125Y-13520136D01*
X16702125Y-13520136D02*
X16692601Y-13529660D01*
X16692601Y-13529660D02*
X16673553Y-13539184D01*
X16673553Y-13539184D02*
X16644982Y-13539184D01*
X16768792Y-13405850D02*
X16844982Y-13405850D01*
X16797363Y-13339184D02*
X16797363Y-13510612D01*
X16797363Y-13510612D02*
X16806887Y-13529660D01*
X16806887Y-13529660D02*
X16825934Y-13539184D01*
X16825934Y-13539184D02*
X16844982Y-13539184D01*
X17064030Y-13405850D02*
X17064030Y-13605850D01*
X17064030Y-13415374D02*
X17083077Y-13405850D01*
X17083077Y-13405850D02*
X17121173Y-13405850D01*
X17121173Y-13405850D02*
X17140220Y-13415374D01*
X17140220Y-13415374D02*
X17149744Y-13424898D01*
X17149744Y-13424898D02*
X17159268Y-13443946D01*
X17159268Y-13443946D02*
X17159268Y-13501088D01*
X17159268Y-13501088D02*
X17149744Y-13520136D01*
X17149744Y-13520136D02*
X17140220Y-13529660D01*
X17140220Y-13529660D02*
X17121173Y-13539184D01*
X17121173Y-13539184D02*
X17083077Y-13539184D01*
X17083077Y-13539184D02*
X17064030Y-13529660D01*
X17273554Y-13539184D02*
X17254506Y-13529660D01*
X17254506Y-13529660D02*
X17244982Y-13510612D01*
X17244982Y-13510612D02*
X17244982Y-13339184D01*
X17435458Y-13539184D02*
X17435458Y-13434422D01*
X17435458Y-13434422D02*
X17425935Y-13415374D01*
X17425935Y-13415374D02*
X17406887Y-13405850D01*
X17406887Y-13405850D02*
X17368792Y-13405850D01*
X17368792Y-13405850D02*
X17349744Y-13415374D01*
X17435458Y-13529660D02*
X17416411Y-13539184D01*
X17416411Y-13539184D02*
X17368792Y-13539184D01*
X17368792Y-13539184D02*
X17349744Y-13529660D01*
X17349744Y-13529660D02*
X17340220Y-13510612D01*
X17340220Y-13510612D02*
X17340220Y-13491565D01*
X17340220Y-13491565D02*
X17349744Y-13472517D01*
X17349744Y-13472517D02*
X17368792Y-13462993D01*
X17368792Y-13462993D02*
X17416411Y-13462993D01*
X17416411Y-13462993D02*
X17435458Y-13453469D01*
X17502125Y-13405850D02*
X17578315Y-13405850D01*
X17530696Y-13339184D02*
X17530696Y-13510612D01*
X17530696Y-13510612D02*
X17540220Y-13529660D01*
X17540220Y-13529660D02*
X17559268Y-13539184D01*
X17559268Y-13539184D02*
X17578315Y-13539184D01*
X17721173Y-13529660D02*
X17702125Y-13539184D01*
X17702125Y-13539184D02*
X17664030Y-13539184D01*
X17664030Y-13539184D02*
X17644982Y-13529660D01*
X17644982Y-13529660D02*
X17635458Y-13510612D01*
X17635458Y-13510612D02*
X17635458Y-13434422D01*
X17635458Y-13434422D02*
X17644982Y-13415374D01*
X17644982Y-13415374D02*
X17664030Y-13405850D01*
X17664030Y-13405850D02*
X17702125Y-13405850D01*
X17702125Y-13405850D02*
X17721173Y-13415374D01*
X17721173Y-13415374D02*
X17730696Y-13434422D01*
X17730696Y-13434422D02*
X17730696Y-13453469D01*
X17730696Y-13453469D02*
X17635458Y-13472517D01*
X17902125Y-13539184D02*
X17902125Y-13339184D01*
X17902125Y-13529660D02*
X17883077Y-13539184D01*
X17883077Y-13539184D02*
X17844982Y-13539184D01*
X17844982Y-13539184D02*
X17825935Y-13529660D01*
X17825935Y-13529660D02*
X17816411Y-13520136D01*
X17816411Y-13520136D02*
X17806887Y-13501088D01*
X17806887Y-13501088D02*
X17806887Y-13443946D01*
X17806887Y-13443946D02*
X17816411Y-13424898D01*
X17816411Y-13424898D02*
X17825935Y-13415374D01*
X17825935Y-13415374D02*
X17844982Y-13405850D01*
X17844982Y-13405850D02*
X17883077Y-13405850D01*
X17883077Y-13405850D02*
X17902125Y-13415374D01*
X17978316Y-13615374D02*
X17987839Y-13605850D01*
X17987839Y-13605850D02*
X18006887Y-13577279D01*
X18006887Y-13577279D02*
X18016411Y-13558231D01*
X18016411Y-13558231D02*
X18025935Y-13529660D01*
X18025935Y-13529660D02*
X18035458Y-13482041D01*
X18035458Y-13482041D02*
X18035458Y-13443946D01*
X18035458Y-13443946D02*
X18025935Y-13396327D01*
X18025935Y-13396327D02*
X18016411Y-13367755D01*
X18016411Y-13367755D02*
X18006887Y-13348708D01*
X18006887Y-13348708D02*
X17987839Y-13320136D01*
X17987839Y-13320136D02*
X17978316Y-13310612D01*
M02*
